<svg width="86" height="95" viewBox="0 0 86 95" fill="none" xmlns="http://www.w3.org/2000/svg">
<path d="M47.5 47.5H38C27.9218 47.5 18.2563 51.5036 11.1299 58.6299C4.00356 65.7563 0 75.4218 0 85.5C0 88.0196 1.00089 90.4359 2.78249 92.2175C4.56408 93.9991 6.98045 95 9.5 95H76C78.5196 95 80.9359 93.9991 82.7175 92.2175C84.4991 90.4359 85.5 88.0196 85.5 85.5C85.5 75.4218 81.4965 65.7563 74.3701 58.6299C67.2437 51.5036 57.5782 47.5 47.5 47.5Z" fill="#306F9D"/>
<path d="M42.75 57C58.4901 57 71.25 44.2401 71.25 28.5C71.25 12.7599 58.4901 0 42.75 0C27.0099 0 14.25 12.7599 14.25 28.5C14.25 44.2401 27.0099 57 42.75 57Z" fill="#306F9D"/>
<path d="M43.2272 64.0175C43.9702 63.9275 44.7466 64.1894 45.2819 64.7129C45.7945 65.1916 46.0993 65.8908 46.0857 66.5933C46.0989 67.2736 45.8133 67.9516 45.329 68.4275C44.8201 68.9486 44.0767 69.235 43.3497 69.178C42.8422 69.1526 42.3442 68.9717 41.9395 68.6645C41.3977 68.2626 41.0264 67.6392 40.9326 66.9711C40.8299 66.2955 41.0094 65.5817 41.4231 65.038C41.8476 64.4665 42.5181 64.0848 43.2272 64.0175Z" fill="#8E9ED6"/>
<path d="M43.2272 71.4247C43.9702 71.3347 44.7466 71.5966 45.2819 72.1201C45.7945 72.5988 46.0993 73.298 46.0857 74.0005C46.0989 74.6808 45.8133 75.3588 45.329 75.8347C44.8201 76.3558 44.0767 76.6423 43.3497 76.5853C42.8422 76.5598 42.3442 76.3789 41.9395 76.0717C41.3977 75.6698 41.0264 75.0465 40.9326 74.3784C40.8299 73.7027 41.0094 72.9889 41.4231 72.4452C41.8476 71.8737 42.5181 71.4921 43.2272 71.4247Z" fill="#8E9ED6"/>
<path d="M43.2272 78.8319C43.9702 78.7419 44.7466 79.0039 45.2819 79.5273C45.7945 80.006 46.0993 80.7052 46.0857 81.4077C46.0989 82.0881 45.8133 82.7661 45.329 83.2419C44.8201 83.763 44.0767 84.0495 43.3497 83.9925C42.8422 83.967 42.3442 83.7861 41.9395 83.4789C41.3977 83.077 41.0264 82.4537 40.9326 81.7856C40.8299 81.1099 41.0094 80.3961 41.4231 79.8524C41.8476 79.2809 42.5181 78.8993 43.2272 78.8319Z" fill="#8E9ED6"/>
</svg>