<svg width="1440" height="195" viewBox="0 0 1440 195" fill="none" xmlns="http://www.w3.org/2000/svg">
<g opacity="0.08">
<path d="M-21.0459 -85H8.22553C7.71199 -76.8645 15.9029 -68.8223 29.7683 -61.9001C70.6969 -40.5192 111.24 -19.076 152.195 2.29723C173.763 13.1161 172.941 27.4971 151.142 38.2303C134.401 46.6925 119.2 55.4347 101.74 63.7724C92.7532 58.4369 92.0856 51.8647 101.637 46.5603C111.497 41.0614 123.514 35.9203 132.013 30.2037C143.157 22.7371 140.383 13.7383 127.057 6.69942C92.9586 -11.1971 58.7573 -29.0781 24.6329 -46.9669C14.542 -52.2635 3.80914 -57.4513 -5.04932 -62.9501C-15.9876 -69.7945 -20.8918 -77.4167 -21.0459 -85Z" fill="#CFCBC2" fill-opacity="0.8"/>
<path d="M36.5303 -85H65.0057C66.8801 -81.9511 67.5991 -78.8089 71.3222 -75.9001C75.1223 -72.859 80.951 -70.1057 86.2917 -67.2979C125.243 -46.718 164.811 -26.2471 203.711 -5.65941C227.693 7.17384 232.469 23.126 216.447 37.0481C207.794 44.7325 192.182 51.398 179.37 58.4602C165.402 66.1134 150.201 73.549 136.259 81.2022C129.916 78.3556 124.165 75.3845 119.132 72.3045C138.852 62.0924 158.315 51.8335 177.88 41.5981C201.323 29.3326 203.069 13.5438 182.194 0.858322C174.183 -3.87831 164.631 -8.3505 156.184 -13.0171C121.494 -31.0381 87.3958 -49.168 52.6039 -67.1657C41.9481 -72.5401 37.4546 -78.7934 36.5303 -85Z" fill="#CFCBC2" fill-opacity="0.8"/>
<path d="M218.865 -85H252.963C238.097 -76.8956 218.711 -69.2579 212.112 -60.0257C203.433 -49.2069 209.416 -37.3692 228.211 -27.8104C246.133 -18.446 264.158 -9.11273 281.952 0.267212C283.082 1.1772 286.266 2.1572 284.34 3.16052C280.258 5.9994 274.275 8.54272 269.242 11.2338C253.015 2.84942 236.967 -5.55831 220.97 -13.9816C208.851 -20.5304 194.498 -26.8226 187.411 -34.0948C173.494 -46.998 177.346 -61.5346 197.656 -73.629C204.537 -77.4478 211.624 -81.2434 218.865 -85Z" fill="#CFCBC2" fill-opacity="0.8"/>
<path d="M379.299 -85H408.75C408.776 -81.2511 409.957 -77.4867 413.423 -73.8701C419.432 -66.0301 435.403 -59.4502 448.215 -52.5435C482.802 -34.2503 517.953 -16.0504 552.617 2.235C568.51 10.3316 572.439 20.3649 564.274 29.4182C559.549 34.8003 549.202 39.4825 540.343 44.297C527.556 50.7291 515.642 57.3091 503.086 63.7802C493.098 58.7791 492.405 52.2847 501.315 47.0969C510.584 41.6992 521.959 36.6514 530.997 31.2148C542.192 24.4482 542.5 16.126 531.793 9.28162C527.813 6.71497 522.934 4.28831 518.287 1.83055C481.287 -17.3571 444.954 -36.6614 408.134 -55.8802C390.109 -64.5757 379.171 -74.6712 379.299 -85Z" fill="#CFCBC2" fill-opacity="0.8"/>
<path d="M436.814 -85H465.649C466.985 -80.3645 470.348 -75.7289 478.436 -71.7156C513.665 -53.1347 549.047 -34.5692 584.507 -16.0193C594.007 -11.0494 604.201 -6.17274 611.904 -0.907219C628.979 10.7438 630.827 24.3082 617.784 36.4025C610.954 42.9047 598.398 48.6369 587.408 54.5324C570.744 63.4068 553.438 72.1645 536.851 81.0467C530.637 78.3011 523.294 75.61 520.675 72.3123C521.984 71.0367 524.321 69.8857 526.477 68.7345C544.374 59.5957 561.68 50.348 579.217 41.1469C603.739 28.1426 603.174 11.3271 578.421 -1.59943C541.139 -21.176 503.933 -40.7681 466.368 -60.2902C458.049 -64.8401 448.215 -69.1957 443.003 -74.1967C439.1 -77.6812 437.842 -81.36 436.814 -85Z" fill="#CFCBC2" fill-opacity="0.8"/>
<path d="M619.9 -85H653.486C643.754 -80.1078 634.279 -75.1612 625.113 -70.1757C601.259 -56.7902 604.289 -39.7336 630.556 -26.877C646.348 -18.6949 661.574 -10.4038 677.776 -2.29165C680.677 -0.774994 683.912 0.71833 685.761 2.39832C682.449 5.65719 675.259 8.37939 669.611 11.2805C647.246 -0.821655 623.726 -12.7294 601.182 -24.8082C573.785 -39.4147 572.886 -58.058 597.51 -73.0612C604.443 -77.1289 611.915 -81.1111 619.9 -85Z" fill="#CFCBC2" fill-opacity="0.8"/>
<path d="M779.96 -85H809.334C808.538 -76.2423 818.526 -67.7023 833.855 -60.3679C873.731 -39.5003 913.248 -18.5704 953.278 2.26609C974.538 12.9294 974.076 27.0615 953.149 37.7325C936.305 46.3658 920.437 55.1702 903.182 63.7257C894.17 58.8102 893.22 52.6658 901.257 47.5791C911.784 41.0847 926.831 35.2903 935.304 28.4848C943.829 21.5626 940.696 13.6371 929.142 7.21272C887.828 -14.4638 846.36 -36.117 804.995 -57.7935C788.741 -65.9757 780.037 -75.449 779.96 -85Z" fill="#CFCBC2" fill-opacity="0.8"/>
<path d="M837.638 -85H866.113C867.962 -81.9667 868.655 -78.84 872.378 -75.9467C876.743 -72.5401 883.316 -69.4601 889.273 -66.3101C928.122 -45.9247 967.125 -25.5704 1005.77 -5.14607C1033.91 10.176 1033.91 29.8459 1005.69 45.168C983.096 57.2002 960.013 69.1546 937.392 81.1867C930.972 78.3634 925.272 75.4001 920.265 72.3279C934.413 64.9001 948.664 57.488 962.812 50.0602C974.931 43.6514 989.13 37.3514 994.009 29.9859C1002.64 19.1827 996.756 7.43829 978.038 -2.11276C941.885 -20.9893 905.886 -39.897 869.862 -58.7968C860.207 -64.0312 848.268 -68.9857 842.773 -74.8112C839.486 -78.1245 838.511 -81.5778 837.638 -85Z" fill="#CFCBC2" fill-opacity="0.8"/>
<path d="M1020.06 -85H1054.21C1044.66 -80.4967 1036.44 -75.7601 1027.38 -71.1712C1003.17 -58.1202 1003.4 -41.2814 1028.3 -28.347C1045.89 -19.146 1063.56 -9.95272 1081.2 -0.759453C1083.1 0.32943 1085.25 1.41054 1086.23 2.61609C1082.2 5.65717 1075.73 8.33272 1070.75 11.2338C1057.91 5.0894 1046.61 -1.34278 1034.21 -7.56496C1022.04 -14.2227 1008.53 -20.6627 997.055 -27.437C978.49 -39.3681 974.896 -53.4691 988.633 -66.0301C995.309 -72.8745 1008.56 -78.8478 1020.06 -85Z" fill="#CFCBC2" fill-opacity="0.8"/>
<path d="M1180.34 -85H1209.69C1209.97 -81.2511 1211.03 -77.4789 1214.49 -73.8623C1220.58 -66.0146 1236.6 -59.4346 1249.36 -52.5202C1284 -34.2192 1319.1 -16.0116 1353.79 2.28164C1370.74 10.9538 1374.1 21.8815 1363.37 31.4015C1356.64 36.9703 1345.62 41.9325 1335.97 47.0502C1324.8 52.5802 1315.3 58.4057 1303.49 63.8112C1298.79 60.5757 1295.04 57.0679 1296.4 53.4824C1297.58 48.2947 1308.32 44.048 1316.38 39.6614C1324.08 35.4536 1333.48 31.4248 1337.79 26.7348C1343.8 20.0537 1340.39 12.6882 1328.65 6.75384C1286.95 -15.1016 1245.25 -36.9492 1203.66 -58.828C1188.41 -66.7379 1180.6 -75.8534 1180.34 -85Z" fill="#CFCBC2" fill-opacity="0.8"/>
<path d="M1238.03 -85H1266.66C1268.64 -80.5978 1270.77 -76.0789 1278.63 -72.2134C1318.5 -51.1436 1358.61 -30.1048 1398.95 -9.10493C1405.62 -5.59718 1412.02 -2.0272 1416.66 1.78389C1433.99 15.7916 1430.27 32.0781 1406.24 45.1681C1383.77 57.2469 1360.12 69.1235 1337.84 81.2334C1332.06 78.4412 1325.18 75.7734 1321.86 72.6001C1322.07 71.5346 1324.23 70.6168 1325.77 69.6912C1340.43 62.1624 1354.83 54.5869 1369.16 47.0036C1376.43 43.1925 1384.31 39.4436 1389.34 35.2903C1403.8 23.8804 1400.85 10.6583 1382.15 -0.144989C1339.68 -22.786 1295.8 -45.178 1253.46 -67.8423C1243.29 -73.0301 1239.11 -79.0267 1238.03 -85Z" fill="#CFCBC2" fill-opacity="0.8"/>
<path d="M1420.79 -85H1454.64C1443.08 -79.0734 1430.91 -73.2245 1421.23 -66.979C1403.31 -54.5191 1407.19 -39.5547 1429.81 -27.8726C1447.45 -18.6715 1464.68 -9.39271 1482.8 -0.26944C1484.27 0.811668 1487.96 1.97832 1486.19 3.20721C1482.01 6.06163 1475.92 8.61272 1470.99 11.3349C1453.2 2.11832 1436.07 -7.22272 1418.07 -16.4082C1408.39 -21.6115 1397.48 -26.6748 1390.91 -32.3448C1376.86 -44.2369 1377.63 -57.6691 1393.19 -69.3823C1400.56 -74.8656 1410.81 -79.9367 1420.79 -85Z" fill="#CFCBC2" fill-opacity="0.8"/>
<path d="M320.036 -67.2909C323.374 -70.5731 330.692 -73.303 336.444 -76.2119C356.882 -65.3075 377.809 -54.4887 398.479 -43.6155C427.519 -29.8878 434.477 -12.1235 415.425 3.17533C409.289 8.24641 400.045 12.8897 390.981 17.5174C353.467 37.2573 315.62 56.9427 278.055 76.6748C263.317 84.2426 261.879 94.0503 275.436 101.859C285.322 107.35 296.414 112.647 305.863 118.208C312.77 123.053 312.821 129.276 301.857 133.577C285.347 124.391 267.065 115.509 250.478 106.331C237.024 98.8025 233.66 89.7725 240.516 81.4892C244.675 75.3293 257.437 70.2582 267.168 64.8449C303.09 45.9062 339.191 27.0063 375.216 8.08307C401.714 -4.54018 404.282 -21.3478 381.532 -34.64C361.787 -45.6532 339.576 -56.262 320.036 -67.2909Z" fill="#CFCBC2" fill-opacity="0.8"/>
<path d="M721.486 -68.3236C725.876 -71.0846 731.474 -73.6513 736.789 -76.2568C758.46 -64.878 780.029 -53.4837 801.828 -42.1359C833.95 -26.3627 834.54 -5.51841 804.807 10.6048C761.824 32.9036 719.765 55.3734 676.808 77.6721C666.794 83.2877 664.278 89.9921 668.926 96.1909C672.674 101.153 683.022 105.268 690.879 109.67C699.147 114.259 710.702 118.715 710.881 124.183C710.753 127.419 709.983 131.051 702.511 133.586C692.754 128.212 682.329 122.954 672.418 117.603C659.939 111.023 644.918 104.606 639.962 97.0231C636.008 91.9132 637.42 86.5777 640.989 81.491C644.404 76.9099 652.313 72.8111 660.016 68.79C699.173 48.2101 738.689 27.6925 777.743 7.09707C795.922 -2.30621 802.29 -13.7395 794.202 -24.3872C788.296 -33.2538 770.323 -40.6815 756.072 -48.4515C745.391 -54.277 733.888 -59.9547 723.078 -65.7569C721.871 -66.5269 719.56 -67.468 721.486 -68.3236Z" fill="#CFCBC2" fill-opacity="0.8"/>
<path d="M1136.99 -76.1172C1153.45 -68.2461 1167.78 -60.0017 1183.59 -52.014C1193.84 -46.3129 1206.11 -40.9308 1214.3 -34.903C1230.53 -23.042 1231.4 -9.37652 1217.13 2.69451C1209.3 9.40669 1195.92 15.3178 1184.6 21.5088C1149.57 39.6698 1115.22 57.9553 1080.14 76.1085C1068.46 82.0895 1063.71 89.4239 1069.59 96.2061C1073.65 101.549 1084.84 105.975 1093.29 110.712C1100.86 114.997 1111.65 119.135 1111.55 124.237C1111.44 127.426 1110.57 131.12 1102.82 133.524C1090.23 126.485 1076.47 119.664 1063.5 112.695C1056.85 109.195 1049.54 105.773 1045.15 101.938C1033.03 92.1384 1036.9 80.7051 1054.85 71.7918C1097.29 49.6097 1139.51 27.381 1181.77 5.17561C1199.15 -4.7021 1202.8 -16.6487 1192.22 -27.3508C1185.13 -34.8486 1169.73 -41.2185 1157.56 -47.9929C1145.87 -54.4796 1132.21 -60.6551 1121.2 -67.2506C1124.13 -70.5172 1131.75 -73.1694 1136.99 -76.1172Z" fill="#CFCBC2" fill-opacity="0.8"/>
<path d="M-32.3457 -59.0449C-26.363 -56.2372 -20.406 -53.4216 -15.2194 -50.4661C-5.00003 -44.7417 7.58155 -39.3673 14.8737 -33.1995C31.7176 -19.5496 28.277 -3.79973 6.14365 9.12685C-6.10413 15.9868 -19.8668 22.5901 -32.3457 29.4112V11.7557C-19.8155 5.77466 -9.08262 -0.688629 -5.48789 -7.76636C-0.994465 -15.8941 -4.28108 -24.4107 -14.9112 -31.994C-19.6614 -35.4395 -26.6455 -38.5351 -32.3457 -41.8328V-59.0449Z" fill="#CFCBC2" fill-opacity="0.8"/>
<path d="M302.028 -58.75C320.001 -50.5134 334.663 -41.6546 351.532 -33.208C373.768 -22.2802 373.691 -7.69701 351.558 3.23847C309.91 24.9072 268.828 46.6771 227.283 68.3614C208.821 78.1768 202.839 90.2245 213.058 101.152C217.757 106.69 226.923 111.73 236.732 116.568C252.472 125.193 269.957 133.531 285.209 142.226C281.769 145.392 274.785 148.083 269.778 151.039C267.518 150.097 265.207 149.156 263.153 148.169C242.56 137.334 221.942 126.492 201.195 115.681C172.745 100.382 171.821 80.7591 199.603 65.3203C240.25 43.7293 281.666 22.2706 322.595 0.726269C333.456 -4.39925 340.722 -10.427 339.079 -16.5947C338.591 -22.9258 327.165 -28.3935 317.048 -33.6902C309.191 -38.2479 297.457 -42.4246 295.352 -47.6979C293.323 -51.5012 296.79 -55.3122 302.028 -58.75Z" fill="#CFCBC2" fill-opacity="0.8"/>
<path d="M702.827 -58.75C718.823 -51.0578 732.997 -43.039 748.274 -35.2224C772.667 -24.2947 776.159 -9.21366 753.718 2.25071C718.31 21.0184 682.234 39.6771 646.672 58.4214C634.065 65.3514 618.35 71.9858 612.676 79.8491C603.972 90.7534 610.057 102.599 628.904 112.236C647.904 122.199 667.162 132.131 685.623 142.164C683.056 145.369 675.558 148.044 670.474 150.945C663.516 148.519 659.151 145.579 653.63 142.872C636.555 133.78 619.198 124.742 601.994 115.681C579.296 103.789 574.187 89.0968 586.023 75.898C594.856 66.1136 615.372 57.9237 630.881 49.0804C659.921 33.9761 688.679 18.8173 717.488 3.66625C725.884 -0.751495 735.539 -5.15369 738.209 -10.2948C742.189 -16.0503 738.492 -22.1247 729.582 -27.2891C720.723 -32.3602 710.196 -37.1435 701.492 -42.2379C692.736 -47.379 693.968 -53.6945 702.827 -58.75Z" fill="#CFCBC2" fill-opacity="0.8"/>
<path d="M1103.25 -58.7891C1120.74 -50.4747 1135.89 -41.7325 1152.55 -33.2626C1173.74 -22.8248 1174.79 -9.00382 1155.45 1.745C1117.61 21.446 1080.38 41.2481 1042.45 60.9257C1033.26 65.7946 1023.01 70.5546 1017.13 75.9134C1003.86 87.2611 1007.68 100.18 1026.71 110.727C1045.61 120.775 1064.87 130.762 1084.1 140.749C1085.31 141.464 1087.28 142.296 1085.51 143.113C1081.25 145.882 1075.52 148.425 1070.72 151.101C1049.23 140.826 1030.38 130.062 1009.79 119.616C998.03 113.822 988.53 107.538 984.088 100.849C975.255 88.7311 981.982 75.7423 1001.52 64.8691C1040.96 43.9314 1081.15 23.126 1120.84 2.235C1127.57 -1.29609 1134.91 -4.8194 1137.89 -8.84048C1142.13 -14.4093 1140.97 -20.4682 1132.68 -25.6482C1126.95 -29.2881 1119.89 -32.7181 1113.34 -36.2181C1106.39 -39.8503 1098.04 -43.4514 1096.45 -47.7369C1094.5 -51.548 1097.89 -55.3669 1103.25 -58.7891Z" fill="#CFCBC2" fill-opacity="0.8"/>
<path d="M1503.8 -58.7959C1520.92 -50.6137 1535.77 -42.0193 1552.28 -33.7205C1561.08 -29.3883 1566.09 -24.4883 1569.89 -19.565V-9.95955C1563.7 -1.33405 1547.99 6.14812 1533.2 13.607C1498.43 32.0324 1462.9 50.3256 1428.21 68.7666C1409.05 79.0254 1404.46 91.7342 1416.57 102.957C1422.48 109.141 1434.57 114.492 1444.95 120.037C1457.45 126.431 1469.08 132.98 1481.95 139.311C1483.75 140.361 1486.39 141.395 1486.7 142.616C1482.97 145.688 1476.2 148.294 1470.7 151.086C1448 139.528 1426.38 127.776 1403.97 116.164C1373.21 100.375 1373.26 79.5932 1404.12 63.82C1441.4 44.0645 1479.38 24.4258 1516.71 4.67036C1529.17 -1.53627 1542.52 -8.20179 1540.8 -15.7773C1540.54 -26.8917 1511.27 -34.9261 1499.13 -44.8271C1493.78 -49.4548 1497.02 -54.4715 1503.8 -58.7959Z" fill="#CFCBC2" fill-opacity="0.8"/>
<path d="M24.4598 17.0124C39.5577 9.37465 52.9866 1.42581 69.2143 -5.99414C74.5294 -3.23305 81.0256 -0.643064 84.9798 2.3358C84.3892 3.16802 83.0797 3.93024 81.7959 4.68468C62.333 14.8891 42.4335 25.0234 23.5868 35.3367C1.60758 48.0688 2.86574 64.2776 27.1559 76.6442C69.1116 98.8807 111.812 120.985 153.845 143.206C167.479 150.61 171.074 159.508 165.245 167.76C160.598 174.107 148.453 179.567 138.002 185.136C131.532 188.387 125.754 191.77 119.155 194.998H93.2734C97.6898 185.245 121.826 177.965 133.56 169.075C142.47 162.028 140.287 153.823 127.963 147.266C90.757 127.441 52.4218 107.802 15.0365 87.9997C3.96984 82.3453 -7.48197 76.6442 -13.516 70.282C-26.7652 57.3321 -22.2974 42.8578 -1.57633 30.849C6.61453 26.1512 15.8325 21.6324 24.4598 17.0124Z" fill="#CFCBC2" fill-opacity="0.8"/>
<path d="M468.877 -6.03125C475.784 -3.34793 481.279 -0.38462 486.029 2.68758C466.207 13.0631 446.282 23.4152 426.716 33.8374C408.896 43.3729 403.966 55.0006 412.85 65.6094C420.271 74.9582 440.427 82.6348 454.909 91.0115C483.179 105.781 511.398 120.551 539.488 135.352C547.422 139.521 556.46 143.542 561.698 148.123C572.354 157.231 570.505 167.723 555.202 176.263C543.904 182.579 531.554 188.723 519.974 195H493.809C497.378 186.818 515.146 180.331 527.6 173.269C540.31 166.798 543.006 158.639 534.84 151.538C530.809 148.077 524.159 144.981 518.176 141.816C478.942 121.275 439.708 100.741 400.705 80.1537C372.204 64.6605 372.512 44.7806 401.553 29.373C423.968 17.5664 446.538 5.7909 468.877 -6.03125Z" fill="#CFCBC2" fill-opacity="0.8"/>
<path d="M869.497 -6.05566C875.557 -3.32568 881.36 -0.541255 886.932 2.28206C867.238 13.272 845.335 23.8808 825.564 34.8552C807.385 44.9196 804.561 57.2161 815.628 68.1205C820.558 73.1449 830.135 77.5704 838.48 82.1204C876.995 102.343 915.69 122.526 954.128 142.756C968.558 150.253 972.281 159.384 966.298 167.815C961.625 174.146 949.48 179.599 939.081 185.16C932.636 188.411 926.885 191.794 920.183 194.999H894.352C897.665 187.213 914.406 181.022 926.217 174.302C938.131 168.484 943.189 161.313 938.182 154.586C934.639 149.343 924.471 144.863 915.895 140.282C883.722 123.35 851.19 106.488 819.068 89.5559C807.719 83.4893 794.752 77.6016 788.205 70.8505C773.364 57.0139 779.192 41.3807 803.123 28.7886C825.308 17.1842 847.338 5.5487 869.497 -6.05566Z" fill="#CFCBC2" fill-opacity="0.8"/>
<path d="M1222.51 18.9343C1238.87 10.6588 1253.48 2.05664 1270.86 -6.02441C1276.9 -3.23221 1282.21 -0.307783 1287.12 2.67886C1267.09 13.2255 1246.73 23.7098 1226.96 34.3031C1203.56 47.0741 1203.9 63.4851 1227.88 76.1628C1265.06 95.9416 1303.09 115.58 1340.58 135.305C1347.74 139.139 1356.14 142.802 1361.32 146.948C1373.52 156.336 1372.34 167.38 1356.34 176.301C1345.02 182.609 1332.59 188.73 1321.04 194.999H1294.84C1297.26 192.137 1298.64 189.142 1303.45 186.529C1312.51 181.535 1322.5 176.698 1331.41 171.681C1344.61 163.919 1343.35 154.197 1328.64 146.707C1290.92 127.021 1253.38 107.313 1215.91 87.5961C1208.75 83.7539 1200.82 80.0284 1195.01 75.9684C1177.76 64.084 1175.83 50.2474 1189.93 37.982C1197.35 31.1376 1211.16 25.2032 1222.51 18.9343Z" fill="#CFCBC2" fill-opacity="0.8"/>
<path d="M53.6968 36.6835C70.361 28.2058 85.69 19.4947 102.816 11.1104C106.925 13.9648 110.699 16.9748 110.34 20.1403C110.288 24.2236 104.331 28.0036 97.5526 31.4336C89.6698 35.5324 81.4276 39.5768 74.2125 43.7846C61.8877 51.4457 63.1715 61.0045 77.8329 68.3C119.172 89.9998 160.717 111.669 201.954 133.384C227.528 146.373 232.92 162.807 216.487 177.079C209.529 183.511 196.973 189.174 185.906 194.999H152.064C161.025 190.644 169.114 186.133 177.69 181.707C195.304 172.413 201.184 161.158 193.455 150.682C188.294 142.694 172.965 135.857 159.69 128.935C129.88 113.131 99.4013 97.4509 69.5907 81.6544C58.37 75.5411 44.5045 69.6844 39.6003 62.7311C32.2824 53.9034 38.5219 44.4301 53.6968 36.6835Z" fill="#CFCBC2" fill-opacity="0.8"/>
<path d="M453.334 37.1428C470.229 28.5173 486.123 19.7207 503.609 11.2041C511.415 15.9874 513.649 21.7896 506.151 26.744C496.728 32.8184 483.658 38.2939 473.978 44.3294C466.352 49.105 465.017 54.6194 467.816 59.8071C470.435 64.5282 478.831 68.6504 486.765 72.6948C519.041 89.6269 551.316 106.551 583.515 123.483C595.917 130.032 610.142 136.371 617.845 143.612C631.376 156.282 628.911 170.585 609.397 182.563C602.362 186.817 594.684 190.986 586.262 195H552.78C567.57 186.825 586.802 179.125 593.606 169.87C602.31 159.105 595.891 147.423 577.507 137.888C536.809 116.717 496.907 95.4058 456.03 74.2659C432.433 63.2838 430.944 48.405 453.334 37.1428Z" fill="#CFCBC2" fill-opacity="0.8"/>
<path d="M903.78 11.1484C912.304 15.9162 914.282 21.8117 906.604 26.805C897.027 33.0194 883.367 38.5727 873.815 44.7871C863.005 52.2382 865.008 61.2681 878.848 68.2447C920.239 89.9368 961.732 111.606 1002.94 133.329C1028.18 146.131 1033.91 162.293 1018.3 176.433C1011.49 183.13 998.527 188.994 986.998 194.998H953.156C961.938 190.814 969.564 186.419 977.96 182.165C996.165 172.777 1002.53 161.344 994.598 150.704C988.41 140.966 967.458 133.072 952.36 124.517C919.622 107.25 886.499 90.0457 853.762 72.7791C839.691 65.3359 833.965 56.3604 840.127 47.9293C844.955 40.7194 859 34.6061 870.734 28.3139C881.878 22.6128 892.225 16.7717 903.78 11.1484Z" fill="#CFCBC2" fill-opacity="0.8"/>
<path d="M1271.41 28.2683C1282.5 22.575 1293.16 16.8039 1304.64 11.1729C1312.44 15.9873 1314.83 21.8128 1307.23 26.7983C1298.6 32.3283 1286.97 37.3605 1277.52 42.7582C1263.45 50.5748 1264.32 60.647 1279.45 68.2769C1315.37 87.1924 1351.49 106.069 1387.52 124.969C1396.94 129.931 1407.29 134.777 1414.61 140.081C1425.93 148.31 1429.58 157.441 1426.16 166.284C1422.65 176.784 1405.67 186.242 1387.29 194.999H1353.83C1368.83 186.872 1387.67 179.125 1394.71 169.908C1403.08 159.292 1397.35 147.758 1379.41 138.308C1337.3 116.351 1295.65 94.3012 1253.51 72.3447C1238.34 64.2636 1234.1 54.3237 1242.86 45.3871C1248.33 39.126 1261.47 33.9072 1271.41 28.2683Z" fill="#CFCBC2" fill-opacity="0.8"/>
<path d="M1455.47 71.7911C1493.53 51.8335 1531.43 31.8525 1569.89 11.9648V29.7136C1540.59 44.4135 1513.37 59.479 1484.39 74.2333C1467.52 81.731 1462.07 91.7954 1474.6 100.203C1483.69 105.858 1495.3 111.1 1505.11 116.63C1514.35 121.841 1515.04 128.685 1503.98 133.694C1490.88 126.904 1478.35 120.021 1465.03 113.278C1457.07 109.062 1448.44 104.893 1443.82 100.211C1433.88 90.8154 1438.68 80.1988 1455.47 71.7911Z" fill="#CFCBC2" fill-opacity="0.8"/>
<path d="M320.176 72.7338C322.898 69.4049 330.549 66.7294 336.429 63.8672C351.784 71.9171 367.061 79.9826 382.57 88.0093C393.971 94.2003 407.271 100.135 415.436 106.824C428.352 117.495 429.764 129.449 418.569 140.314C411.123 148.186 395.46 154.952 382.545 162.053C361.027 172.965 340.923 184.126 319.2 195H285.718C313.782 180.378 341.539 165.701 369.629 151.087C376.947 147.252 384.496 143.41 389.22 139.194C402.29 127.66 399.003 114.422 378.821 103.814C361.002 94.6903 344.261 85.3726 326.107 76.296C323.899 75.1449 321.588 74.0016 320.176 72.7338Z" fill="#CFCBC2" fill-opacity="0.8"/>
<path d="M720.842 72.7483C723.564 69.4194 731.01 66.6972 736.941 63.8506C753.862 72.725 770.758 81.6071 787.627 90.4893C797.641 95.817 809.196 100.935 815.743 106.784C834.128 121.515 828.967 138.696 801.801 152.128C774.301 166.384 747.546 180.765 719.943 194.999H686.102C716.657 179.256 746.519 163.39 776.817 147.609C796.974 137.412 803.213 124.704 792.198 113.247C785.137 105.329 769.012 98.6248 756.096 91.5315C744.542 85.2393 731.601 79.1572 720.842 72.7483Z" fill="#CFCBC2" fill-opacity="0.8"/>
<path d="M1136.87 63.8418C1160.42 75.5317 1182.45 87.5094 1205.17 99.3549C1235.5 115.455 1234.21 136.322 1202.45 152.15C1174.95 166.407 1148.17 180.803 1120.34 194.998H1086.8C1117.46 179.084 1147.68 163.086 1178.21 147.149C1198.34 136.859 1203.71 124.073 1192.31 112.616C1185.53 105.282 1170.02 99.1682 1158.39 92.5261C1146.45 85.845 1132.43 79.4984 1121.24 72.7162C1124.24 69.4573 1131.58 66.774 1136.87 63.8418Z" fill="#CFCBC2" fill-opacity="0.8"/>
<path d="M-32.3457 81.0771C-20.7655 86.1171 -11.753 91.6315 -1.19988 96.8659C31.3325 112.484 34.7988 133.382 5.24497 149.638C-7.20823 156.249 -19.6357 162.86 -32.3457 169.432V151.862C-26.7225 148.557 -19.6871 145.477 -14.9883 142.023C-0.352551 131.679 0.366394 119.6 -13.422 109.139C-18.1722 105.219 -25.9522 101.766 -32.3457 98.0948V81.0771Z" fill="#CFCBC2" fill-opacity="0.8"/>
<path d="M301.943 81.2256C319.403 89.5555 334.809 98.2744 351.524 106.744C368.856 115.378 372.81 126.266 362.617 135.864C357.43 140.826 347.519 145.135 339.225 149.638C310.621 164.789 281.504 179.855 252.849 194.998H218.725C254.698 176.495 289.746 157.828 325.463 139.279C339.559 132.403 343.693 123.622 333.91 116.008C324.436 109.07 308.773 103.097 298.707 96.2521C291.852 91.3833 295.138 85.9156 301.943 81.2256Z" fill="#CFCBC2" fill-opacity="0.8"/>
<path d="M699.271 96.2686C692.492 91.3841 695.24 85.8153 702.943 81.1953C720.146 90.0153 737.041 98.8896 753.731 107.803C773.939 118.241 773.554 131.875 753.757 142.344C720.249 159.89 686.638 177.429 653.258 194.999H619.545C655.903 176.099 691.748 157.106 727.952 138.183C741.073 131.369 743.717 122.713 733.549 115.41C724.1 108.713 709.003 102.919 699.271 96.2686Z" fill="#CFCBC2" fill-opacity="0.8"/>
<path d="M1099.85 96.2833C1093.25 91.4144 1095.59 85.8145 1103.6 81.2334C1120.65 89.8278 1136.72 98.6011 1153.56 107.234C1169.48 115.409 1173.31 125.535 1164.99 134.651C1159.44 140.64 1147.27 145.726 1137.54 151.124C1109.84 165.777 1081.7 180.353 1053.99 194.998H1019.84C1051.42 178.805 1081.98 162.425 1113.38 146.201C1119.7 142.887 1126.17 139.605 1131.82 136.191C1141.78 130.35 1142.76 123.311 1136.34 117.096C1127.4 109.677 1110.33 103.478 1099.85 96.2833Z" fill="#CFCBC2" fill-opacity="0.8"/>
<path d="M1503.57 81.1953C1514.1 85.6986 1521.98 90.6842 1531.3 95.413C1546.61 103.385 1564.53 111.21 1569.87 120.481V130.055C1565.48 134.971 1560.24 139.894 1551.33 144.249C1518.7 161.127 1486.88 178.16 1454.04 194.999H1420.64C1453.53 177.927 1485.93 160.769 1518.64 143.658C1530.69 137.786 1542.39 131.315 1540.78 124.159C1540.11 113.31 1512.58 105.306 1499.72 95.7474C1493.66 90.9797 1497 85.7375 1503.57 81.1953Z" fill="#CFCBC2" fill-opacity="0.8"/>
<path d="M6.60558 166.322C27.7375 155.55 47.5599 144.536 69.2567 133.865C74.2636 136.65 80.8626 139.209 84.6114 142.187C84.5857 143.696 80.9653 144.964 78.8341 146.271C61.528 155.083 45.1463 164.058 27.8916 172.871C14.8221 179.544 8.19753 187.259 7.73535 194.998H-20.0982C-22.6915 184.848 -10.3667 174.916 6.60558 166.322Z" fill="#CFCBC2" fill-opacity="0.8"/>
<path d="M469.191 133.787C474.711 136.704 482.491 139.387 485.162 142.708C466.238 153.807 443.643 164.33 423.974 175.328C413.524 181.379 409.082 188.216 408.337 194.998H380.375C378.167 186.03 387.667 177.101 401.687 169.3C424.051 157.431 446.904 145.656 469.191 133.787Z" fill="#CFCBC2" fill-opacity="0.8"/>
<path d="M852.123 143.208C857.797 140.066 863.6 136.939 870.404 133.999C875.36 136.55 881.163 138.969 885.117 141.691C887.274 142.749 884.065 143.791 882.755 144.756C864.679 154.097 847.09 163.515 829.116 172.872C816.073 179.545 809.32 187.253 808.935 195H781.024C778.662 185.456 789.24 175.968 805.006 167.801C820.566 159.58 836.331 151.39 852.123 143.208Z" fill="#CFCBC2" fill-opacity="0.8"/>
<path d="M1270.32 133.968C1275.71 136.534 1282.11 138.953 1285.62 141.839C1287.4 142.858 1284.52 143.83 1283.29 144.732C1265.26 154.097 1247.62 163.515 1229.44 172.849C1216.22 179.506 1210.21 187.276 1209.44 195H1181.53C1179.25 186.024 1188.8 177.111 1202.79 169.302C1225.36 157.534 1247.39 145.673 1270.32 133.968Z" fill="#CFCBC2" fill-opacity="0.8"/>
<path d="M102.586 151.195C111.11 155.94 113.087 161.796 105.59 166.79C96.2692 172.654 83.8674 178.013 74.2386 183.831C68.4357 187.292 66.6126 191.181 65.4828 194.999H35.4668C38.0601 191.017 38.8304 186.903 43.5293 183.068C48.2024 179.024 56.0595 175.423 63.0692 171.729C76.2927 164.892 89.3365 158.032 102.586 151.195Z" fill="#CFCBC2" fill-opacity="0.8"/>
<path d="M451.632 178.183C468.707 169.137 485.423 160.014 503.653 151.179C511.022 156.203 513.924 162.208 505.399 167.279C491.072 176.332 466.165 184.428 465.96 194.998H435.995C438.974 189.235 441.618 183.293 451.632 178.183Z" fill="#CFCBC2" fill-opacity="0.8"/>
<path d="M851.961 178.145C869.344 169.131 886.085 159.999 904.29 151.141C911.556 156.017 914.56 161.788 906.755 166.782C897.357 172.63 885.212 178.028 875.429 183.807C869.472 187.26 867.726 191.165 866.673 194.999H836.478C839.816 189.251 841.793 183.255 851.961 178.145Z" fill="#CFCBC2" fill-opacity="0.8"/>
<path d="M1271.29 168.321C1282.64 162.635 1292.68 156.709 1304.8 151.155C1311.45 155.853 1314.86 161.321 1308.08 166.197C1294.24 175.756 1267.15 183.985 1267.08 194.998H1236.62C1238.99 191.996 1240.12 188.924 1242.43 185.922C1247.87 179.497 1260.92 174.061 1271.29 168.321Z" fill="#CFCBC2" fill-opacity="0.8"/>
</g>
<path d="M-9.44727 111V149.064L94.6869 190.397V150.54L-4.92989 111H-9.44727Z" fill="#EFEEF1"/>
<path d="M194.304 111L94.6875 150.54V190.397L198.822 149.064V111H194.304Z" fill="#FBFFFE"/>
<path d="M196.646 111V149.064L300.78 190.397V150.54L201.163 111H196.646Z" fill="#EFEEF1"/>
<path d="M400.396 111L300.779 150.54V190.397L404.913 149.064V111H400.396Z" fill="#FBFFFE"/>
<path d="M406.901 110V148.064L511.036 189.397V149.54L411.419 110H406.901Z" fill="#EFEEF1"/>
<path d="M610.652 110L511.035 149.54V189.397L615.169 148.064V110H610.652Z" fill="#FBFFFE"/>
<path d="M615.075 110V148.064L719.209 189.397V149.54L619.593 110H615.075Z" fill="#EFEEF1"/>
<path d="M818.827 110L719.21 149.54V189.397L823.344 148.064V110H818.827Z" fill="#FBFFFE"/>
<path d="M826.372 110V148.064L930.506 189.397V149.54L830.889 110H826.372Z" fill="#EFEEF1"/>
<path d="M1030.12 110L930.506 149.54V189.397L1034.64 148.064V110H1030.12Z" fill="#FBFFFE"/>
<path d="M1034.55 110V148.064L1138.68 189.397V149.54L1039.06 110H1034.55Z" fill="#EFEEF1"/>
<path d="M1238.3 110L1138.68 149.54V189.397L1242.81 148.064V110H1238.3Z" fill="#FBFFFE"/>
<path d="M1242.72 110V148.064L1346.85 189.397V149.54L1247.24 110H1242.72Z" fill="#EFEEF1"/>
<path d="M1446.47 110L1346.85 149.54V189.397L1450.99 148.064V110H1446.47Z" fill="#FBFFFE"/>
<path d="M-9.44727 81.0001V119.064L94.6869 160.397V120.54L-4.92989 81.0001H-9.44727Z" fill="#EFEEF1"/>
<path d="M194.304 81.0001L94.6875 120.54V160.397L198.822 119.064V81.0001H194.304Z" fill="#FBFFFE"/>
<path d="M196.646 81.0001V119.064L300.78 160.397V120.54L201.163 81.0001H196.646Z" fill="#EFEEF1"/>
<path d="M400.396 81.0001L300.779 120.54V160.397L404.913 119.064V81.0001H400.396Z" fill="#FBFFFE"/>
<path d="M406.901 80.0001V118.064L511.036 159.397V119.54L411.419 80.0001H406.901Z" fill="#EFEEF1"/>
<path d="M610.652 80.0001L511.035 119.54V159.397L615.169 118.064V80.0001H610.652Z" fill="#FBFFFE"/>
<path d="M615 80.0001V118.064L719.134 159.397V119.54L619.517 80.0001H615Z" fill="#EFEEF1"/>
<path d="M818.752 80.0001L719.135 119.54V159.397L823.269 118.064V80.0001H818.752Z" fill="#FBFFFE"/>
<path d="M826.372 80.0001V118.064L930.506 159.397V119.54L830.889 80.0001H826.372Z" fill="#EFEEF1"/>
<path d="M1030.12 80.0001L930.506 119.54V159.397L1034.64 118.064V80.0001H1030.12Z" fill="#FBFFFE"/>
<path d="M1034.55 80.0001V118.064L1138.68 159.397V119.54L1039.06 80.0001H1034.55Z" fill="#EFEEF1"/>
<path d="M1238.3 80.0001L1138.68 119.54V159.397L1242.81 118.064V80.0001H1238.3Z" fill="#FBFFFE"/>
<path d="M1242.72 80.0001V118.064L1346.85 159.397V119.54L1247.24 80.0001H1242.72Z" fill="#EFEEF1"/>
<path d="M1446.47 80.0001L1346.85 119.54V159.397L1450.99 118.064V80.0001H1446.47Z" fill="#FBFFFE"/>
<g clip-path="url(#clip0_0_1)">
<path opacity="0.81" d="M426.14 70.4462L426.106 70.4389L426.106 70.4736C426.106 71.0128 426.106 71.552 426.106 72.0911C426.106 73.1695 426.106 74.2478 426.106 75.3262L426.106 75.3657L426.144 75.3527L426.16 75.3471L426.178 75.3406L426.178 75.3207C426.18 74.4552 426.18 73.5896 426.18 72.724C426.18 72.2011 426.179 71.6781 426.18 71.1553L426.18 71.1552C426.179 71.0694 426.18 70.9834 426.18 70.8973C426.18 70.7572 426.18 70.6169 426.179 70.4768L426.178 70.4544L426.156 70.4497L426.14 70.4462Z" fill="#CFCFCF" stroke="#BFBFBF" stroke-width="0.0561521"/>
<path opacity="0.48" d="M419.809 71.6976L419.819 71.6836C419.833 71.7117 419.822 71.7431 419.823 71.7727C419.823 73.3339 419.823 74.8951 419.823 76.4563C419.821 76.4913 419.832 76.5312 419.809 76.5614V71.6976Z" fill="#7A7A7A"/>
</g>
<g opacity="0.2">
<path d="M661.545 -256.906L662.809 -256.905C666.099 -256.152 668.589 -253.727 671.483 -252.142C706.408 -231.945 741.312 -211.699 776.258 -191.53C777.029 -191.106 777.868 -190.536 777.715 -189.495C777.711 -168.022 777.672 -146.541 777.668 -125.061C814.335 -103.842 850.988 -82.5957 887.648 -61.3699C889.543 -60.0839 892.666 -59.4774 891.372 -56.0558L891.382 -59.1799L891.326 8.18358L891.322 4.69841L890.889 8.30816C880.456 14.77 869.641 20.6276 859.063 26.8533C812.762 53.537 766.474 80.2485 720.173 106.939C718.513 108.187 716.862 106.416 715.412 105.713C659.725 73.447 604.016 41.2085 548.315 8.97697C547.517 8.52505 546.657 7.89952 546.824 6.85828C546.797 -36.4216 546.916 -79.7013 546.89 -122.981C546.953 -123.967 546.655 -125.286 547.815 -125.744C566.402 -136.6 585.184 -147.151 603.709 -158.119C603.726 -179.516 603.751 -200.906 603.761 -222.296C603.589 -223.331 604.367 -224.073 605.221 -224.475C624.024 -235.234 642.743 -246.174 661.545 -256.906ZM609.253 -222.618C645.851 -201.364 682.476 -180.138 719.15 -159.01C736.813 -169.277 754.553 -179.406 772.23 -189.652C735.626 -210.857 699 -232.027 662.396 -253.232C644.663 -243.055 626.979 -232.802 609.253 -222.618ZM607.376 -219.426C607.429 -199.029 607.183 -178.632 607.451 -158.241C624.909 -147.577 642.806 -137.641 660.459 -127.303C660.462 -147.77 660.5 -168.229 660.496 -188.696C642.78 -198.923 625.092 -209.199 607.376 -219.426ZM664.125 -186.575C664.056 -144.282 664.125 -101.994 664.111 -59.7074C681.611 -49.1611 699.438 -39.1283 717.106 -28.8388C717.078 -71.23 717.342 -113.635 717.092 -156.019C699.356 -166.066 681.8 -176.425 664.125 -186.575ZM753.98 -174.9C743.047 -168.411 731.76 -162.499 721.105 -155.565C721.071 -155.967 721.002 -156.773 720.967 -157.182C720.731 -114.389 720.862 -71.5879 720.778 -28.7941C738.449 -39.1031 756.369 -49.0232 773.859 -59.6308C774.081 -101.918 774.033 -144.205 774.095 -186.492C767.385 -182.63 760.683 -178.762 753.98 -174.9ZM552.466 -124.296C556.545 -121.543 560.966 -119.311 565.185 -116.759C578.592 -109.001 592.005 -101.228 605.419 -93.4688C623.158 -103.674 640.884 -113.906 658.61 -124.132C640.908 -134.387 623.213 -144.642 605.504 -154.869C587.827 -144.678 570.157 -134.459 552.466 -124.296ZM550.526 -121.02C550.512 -78.7056 550.408 -36.3978 550.456 5.91709C568.033 16.3523 585.832 26.4337 603.499 36.7302C603.527 -5.54299 603.576 -47.8161 603.597 -90.0962C586.076 -100.684 568.2 -110.682 550.526 -121.02ZM607.506 -90.2874C606.996 -69.8212 607.34 -49.3334 607.233 -28.8599C624.882 -39.1342 642.747 -49.0613 660.223 -59.6203C660.622 -80.0589 660.375 -100.512 660.447 -120.958C642.812 -110.725 625.023 -100.728 607.506 -90.2874ZM777.665 -120.854C777.642 -101.082 777.619 -81.3024 777.623 -61.523C794.752 -71.3743 811.852 -81.288 828.974 -91.1532C811.889 -101.081 794.784 -110.981 777.665 -120.854ZM722.595 -25.613C740.241 -15.3304 757.992 -5.23519 775.583 5.13064C790.231 -3.05643 804.679 -11.6116 819.251 -19.9445C841.353 -32.8117 863.6 -45.4288 885.653 -58.3723C867.937 -68.537 850.319 -78.8542 832.624 -89.0535C795.984 -67.8395 759.255 -46.7922 722.595 -25.613ZM620.843 -32.4727C617.044 -30.0807 612.828 -28.2652 609.299 -25.505C645.876 -4.432 682.369 16.7867 718.925 37.9083C736.637 27.6757 754.37 17.4848 772.082 7.25218C735.449 -13.9042 698.887 -35.1924 662.254 -56.3557C648.446 -48.397 634.645 -40.4314 620.843 -32.4727ZM834.591 -24.4932C834.074 -4.02001 834.432 16.4747 834.304 36.9551C851.94 26.7433 869.658 16.6773 887.218 6.3543C887.825 -14.1396 887.383 -34.6483 887.539 -55.1495C869.904 -44.9029 852.143 -34.8717 834.591 -24.4932ZM607.221 -22.5214C607.266 -2.12417 607.028 18.2728 607.288 38.6564C624.747 49.3276 642.637 59.2701 660.297 69.6013C660.335 49.1486 660.338 28.6959 660.355 8.24316C642.653 -2.02558 624.937 -12.2735 607.221 -22.5214ZM777.781 8.27744C777.354 28.7298 777.65 49.2036 777.55 69.6633C795.171 59.4375 812.945 49.4618 830.435 39.0138C830.945 18.5823 830.594 -1.8707 830.715 -22.3095C813.059 -12.1323 795.361 -2.03859 777.781 8.27744ZM720.943 41.1383C720.44 61.5698 720.805 82.0228 720.663 102.462C738.327 92.2359 756.101 82.2046 773.66 71.8053C774.163 51.346 773.798 30.8791 773.94 10.4195C756.29 20.6869 738.454 30.6347 720.943 41.1383ZM664.018 10.3775C664.05 30.7539 663.902 51.1302 664.037 71.5067C681.468 82.1709 699.351 92.0996 716.991 102.424C717.014 82.0128 717.066 61.6086 717.027 41.2045C699.485 30.7276 681.7 20.6323 664.018 10.3775Z" fill="white"/>
<path d="M777.78 8.27618C795.361 -2.03984 813.059 -12.1336 830.715 -22.3107C830.594 -1.87195 830.945 18.5811 830.435 39.0126C812.945 49.4606 795.171 59.4363 777.549 69.662C777.65 49.2024 777.354 28.7286 777.78 8.27618Z" fill="#D8C05F"/>
<path d="M664.019 10.376C681.7 20.6308 699.485 30.726 717.027 41.2029C717.066 61.6071 717.015 82.0112 716.991 102.422C699.351 92.0981 681.469 82.1694 664.038 71.5051C663.902 51.1286 664.051 30.7524 664.019 10.376Z" fill="#D8C05F"/>
<path d="M550.526 -121.021C568.2 -110.682 586.076 -100.684 603.597 -90.0963C603.576 -47.8162 603.527 -5.54311 603.5 36.73C585.832 26.4336 568.033 16.3522 550.456 5.91697C550.408 -36.3979 550.512 -78.7057 550.526 -121.021Z" fill="#151F2D"/>
<path d="M620.844 -32.4728C634.645 -40.4315 648.447 -48.3971 662.255 -56.3558C698.887 -35.1925 735.45 -13.9043 772.082 7.25207C754.37 17.4847 736.638 27.6756 718.926 37.9082C682.37 16.7866 645.877 -4.4321 609.3 -25.5051C612.829 -28.2653 617.044 -30.0808 620.844 -32.4728Z" fill="#151F2D"/>
<path d="M834.59 -24.4942C852.142 -34.8727 869.903 -44.904 887.538 -55.1505C887.383 -34.6493 887.824 -14.1406 887.217 6.35325C869.658 16.6762 851.939 26.7422 834.303 36.954C834.431 16.4736 834.073 -4.02105 834.59 -24.4942Z" fill="#151F2D"/>
<path d="M722.596 -25.6133C759.256 -46.7926 795.986 -67.8399 832.625 -89.0539C850.32 -78.8546 867.939 -68.5373 885.655 -58.3727C863.602 -45.4292 841.354 -32.8121 819.252 -19.9449C804.68 -11.612 790.233 -3.05681 775.584 5.13026C757.993 -5.23557 740.242 -15.3308 722.596 -25.6133Z" fill="#C18A33"/>
<path d="M607.222 -22.5215C624.938 -12.2735 642.654 -2.02563 660.356 8.2431C660.339 28.6958 660.336 49.1485 660.298 69.6013C642.638 59.2701 624.748 49.3275 607.289 38.6563C607.029 18.2728 607.267 -2.12422 607.222 -22.5215Z" fill="#C18A33"/>
<path d="M720.942 41.1386C738.453 30.6351 756.29 20.6872 773.939 10.4198C773.798 30.8794 774.163 51.3463 773.66 71.8056C756.1 82.2049 738.326 92.2362 720.663 102.462C720.805 82.0231 720.44 61.5701 720.942 41.1386Z" fill="#C18A33"/>
</g>
<defs>
<clipPath id="clip0_0_1">
<rect width="12.6755" height="13.4204" fill="white" transform="translate(419.809 66.8115)"/>
</clipPath>
</defs>
</svg>