<svg width="31" height="32" viewBox="0 0 31 32" fill="none" xmlns="http://www.w3.org/2000/svg">
<path opacity="0.97" d="M10.9658 1.5H11.0124C13.4487 2.90671 15.8847 4.31397 18.3216 5.72014C18.9317 6.06916 19.5366 6.42773 20.1499 6.77074C20.139 8.52538 20.1499 10.2806 20.1448 12.0355C23.039 13.7115 25.9368 15.3817 28.8317 17.0572C28.9767 17.1391 29.1187 17.227 29.2661 17.3048C29.256 19.0658 29.2645 20.8272 29.2618 22.5884C25.4543 24.789 21.6454 26.9866 17.8374 29.1864C17.0823 29.6253 16.3217 30.0554 15.5696 30.5C14.5944 29.926 13.6104 29.3669 12.6319 28.7986C9.08958 26.7529 5.54726 24.7071 2.00522 22.6613C1.96125 22.6357 1.91974 22.6002 1.86621 22.6004V22.5912C1.91701 22.5259 1.89352 22.4396 1.89816 22.3639C1.89652 18.9868 1.89816 15.6097 1.89707 12.2326C1.89516 12.1685 1.91974 12.1007 1.88942 12.0398L1.86621 12.0702V12.0412C2.52956 11.6695 3.1839 11.2817 3.84397 10.9038C4.70859 10.4024 5.57703 9.9067 6.43947 9.40147C6.43346 7.64628 6.44329 5.8911 6.43455 4.13592C6.46623 4.1209 6.49818 4.1056 6.52904 4.08812C7.53294 3.50752 8.53738 2.92829 9.54156 2.34796C10.0301 2.0694 10.513 1.77992 11.0053 1.50819L10.9658 1.5ZM9.56723 2.36844C8.54012 2.96188 7.51273 3.5545 6.48589 4.14821C9.51452 5.89738 12.5418 7.64874 15.5721 9.39464C17.0801 8.52374 18.5873 7.65093 20.0975 6.78385C19.5352 6.45095 18.9658 6.12924 18.4008 5.80098C15.9394 4.37924 13.4766 2.96051 11.0171 1.53578C10.5302 1.80614 10.0512 2.09207 9.56723 2.36844ZM6.46814 4.17715C6.46841 5.22366 6.46814 6.27016 6.46841 7.31666C6.47142 8.01442 6.46186 8.71272 6.47306 9.40993C7.63371 10.0725 8.78836 10.7459 9.94656 11.4125C10.2972 11.6116 10.6424 11.8216 10.9969 12.0136C10.9952 10.2732 10.9966 8.53303 10.9961 6.79259C9.48721 5.92032 7.97754 5.04915 6.46814 4.17715ZM11.0283 6.81143C11.0275 10.3087 11.0302 13.8057 11.0269 17.3027C12.5325 18.1774 14.043 19.0439 15.5494 19.9173L15.5838 19.9053C15.6974 19.873 15.7919 19.7911 15.8979 19.7387C17.3027 18.9287 18.7061 18.1165 20.1114 17.3076C20.1147 13.809 20.1153 10.3101 20.115 6.81116C18.6042 7.68261 17.0924 8.55214 15.5843 9.42823L15.5486 9.42059C14.0408 8.55242 12.5358 7.68015 11.0283 6.81143ZM1.93039 12.0467C3.43678 12.9198 4.94563 13.7887 6.45312 14.6602C7.95678 13.7937 9.45744 12.9219 10.9627 12.0581C10.9586 12.051 10.9507 12.0363 10.9466 12.0292C9.44843 11.1635 7.95023 10.2978 6.45121 9.43315C4.94454 10.3046 3.43514 11.1717 1.93039 12.0467ZM1.92028 12.0816C1.90281 12.2586 1.91537 12.4369 1.91209 12.6144C1.91073 15.3817 1.91318 18.1487 1.91127 20.916C1.9069 21.4641 1.92165 22.013 1.90554 22.5608C2.10244 22.693 2.31627 22.8006 2.51973 22.9235C3.6031 23.5492 4.68647 24.1746 5.76984 24.8002C5.99323 24.9234 6.20816 25.0657 6.43728 25.176C6.43455 21.6807 6.43646 18.1856 6.43619 14.6902C4.93171 13.8191 3.42613 12.9503 1.92028 12.0816ZM6.4706 14.6897C6.47087 16.4323 6.47033 18.1749 6.47087 19.9173C7.97945 19.0483 9.48585 18.1749 10.9947 17.3062C10.998 15.5628 10.9955 13.8191 10.9961 12.0756C9.48721 12.9465 7.97836 13.8171 6.4706 14.6897ZM20.145 17.2857C21.6492 16.417 23.1554 15.5505 24.6563 14.6758C23.1504 13.812 21.6495 12.94 20.1459 12.0732C20.145 13.8109 20.1467 15.5483 20.145 17.2857ZM18.0725 18.5223C17.251 18.9997 16.4233 19.4675 15.6056 19.9509C17.1172 20.8166 18.6217 21.6949 20.1336 22.5595C23.1592 20.8095 26.1875 19.0644 29.2132 17.3144C27.7084 16.44 26.199 15.5732 24.694 14.6987C22.4849 15.9694 20.281 17.25 18.0725 18.5223ZM6.4889 19.9438C7.05147 20.2797 7.62333 20.6006 8.18946 20.9307C10.6492 22.3517 13.1095 23.7723 15.5693 25.1932C17.0784 24.3223 18.5881 23.4522 20.0964 22.5794C17.0678 20.8319 14.04 19.0835 11.0122 17.3349C9.50332 18.2025 7.99884 19.0781 6.4889 19.9438ZM24.7049 19.9588C24.7057 21.6995 24.7055 23.4405 24.7052 25.1815C26.2165 24.3209 27.7161 23.4391 29.2268 22.5775C29.2367 22.4339 29.2287 22.2894 29.2315 22.1457C29.2312 20.5454 29.2317 18.9451 29.2309 17.3447C27.7215 18.2145 26.2129 19.0863 24.7049 19.9588ZM6.4706 19.9774C6.4706 21.72 6.4706 23.4623 6.4706 25.205C7.97891 26.0764 9.48721 26.9476 10.9961 27.8182C10.995 26.0748 10.9988 24.3313 10.9942 22.5879C9.48503 21.7203 7.97918 20.8464 6.4706 19.9774ZM20.1456 22.5914C20.1469 24.3332 20.1434 26.0753 20.1472 27.8174C21.6547 26.9457 23.1636 26.0764 24.6705 25.2041C24.6697 23.4621 24.671 21.72 24.67 19.9782C23.1614 20.8485 21.6528 21.7192 20.1456 22.5914ZM11.0275 22.6111C11.0294 24.3529 11.0277 26.0947 11.0283 27.8368C12.5358 28.7082 14.0433 29.5802 15.5527 30.4489C15.554 28.7082 15.5507 26.9675 15.5543 25.2271C14.9057 24.8434 14.2494 24.472 13.5981 24.0932C12.7409 23.5997 11.8864 23.1013 11.0275 22.6111ZM15.5854 25.2227C15.5838 26.9651 15.5865 28.7074 15.5841 30.4498C16.1791 30.1114 16.7701 29.7659 17.3636 29.4248C18.2798 28.8937 19.2004 28.3693 20.1139 27.8338C20.1109 26.0936 20.1134 24.3534 20.1128 22.6133C18.6007 23.4776 17.0954 24.3543 15.5854 25.2227Z" fill="#7A7A7A" stroke="white" stroke-width="1.4"/>
<path opacity="0.81" d="M15.5473 9.41992L15.5831 9.42757C15.5888 9.91641 15.5839 10.4055 15.5856 10.8944C15.5836 13.8979 15.5897 16.9014 15.5826 19.9046L15.5481 19.9166C15.5457 16.4177 15.5476 12.9188 15.5473 9.41992Z" fill="#7A7A7A" stroke="white" stroke-width="1.4"/>
<path opacity="0.48" d="M1.86523 12.0694L1.88845 12.0391C1.91876 12.1 1.89418 12.1677 1.89609 12.2319C1.89719 15.609 1.89555 18.9861 1.89719 22.3632C1.89254 22.4388 1.91603 22.5251 1.86523 22.5904V12.0694Z" fill="#7A7A7A" stroke="white" stroke-width="1.4"/>
</svg>