<svg width="24" height="24" viewBox="0 0 24 24" fill="none" xmlns="http://www.w3.org/2000/svg">
<path d="M23.2687 21.5274L23.384 21.3975L23.2594 21.2765L13.5925 11.8936L23.2594 2.51065L23.384 2.38966L23.2687 2.25979L22.0423 0.879416L21.9163 0.737558L21.7802 0.869717L10.5567 11.7633L10.4224 11.8936L10.5567 12.0239L21.7802 22.9175L21.9163 23.0496L22.0423 22.9078L23.2687 21.5274Z" fill="black" stroke="black" stroke-width="0.36312"/>
<path d="M13.5855 21.5274L13.7009 21.3975L13.5763 21.2765L3.90938 11.8936L13.5763 2.51065L13.7009 2.38966L13.5855 2.25979L12.3592 0.879416L12.2332 0.737558L12.0971 0.869717L0.873547 11.7633L0.739319 11.8936L0.873547 12.0239L12.0971 22.9175L12.2332 23.0496L12.3592 22.9078L13.5855 21.5274Z" fill="black" stroke="black" stroke-width="0.36312"/>
</svg>