<svg width="20" height="25" viewBox="0 0 20 25" fill="none" xmlns="http://www.w3.org/2000/svg">
<path fill-rule="evenodd" clip-rule="evenodd" d="M4.81641 4.70703H11.6113C12.0938 4.70703 12.0684 4.90234 12.0254 5.40039L11.752 8.89844C11.7051 9.45508 11.7441 9.32031 11.1543 9.40625L6.3125 9.83398L6.59961 10.668C8.95508 10.668 9.50586 10.668 11.8594 10.668C11.9395 10.9648 12.0469 11.4453 12.125 11.7754H11.1543L11.0605 11.4375C9.09961 11.4375 8.9375 11.4375 6.97461 11.4375C5.90234 11.4199 6.00977 11.709 5.75391 10.7832L3.91211 4.49414H3.34375V3.71094H4.57812C4.65039 3.98047 4.75 4.43555 4.81641 4.70703ZM13.6719 0.908203C13.5859 0.830078 13.4648 0.779297 13.3457 0.779297C13.3203 0.779297 13.2949 0.779297 13.2676 0.787109H1.43945C1.14844 0.787109 0.873047 0.908203 0.675781 1.10547C0.478516 1.30273 0.357422 1.56836 0.357422 1.86914V23.6973C0.357422 23.998 0.478516 24.2637 0.675781 24.4609C0.873047 24.6582 1.13867 24.7793 1.43945 24.7793H18.3848C18.6855 24.7793 18.9512 24.6582 19.1484 24.4609C19.3457 24.2637 19.4668 23.998 19.4668 23.6973V7.08789C19.4746 7.04492 19.4844 7.00977 19.4844 6.9668C19.4844 6.82031 19.416 6.69141 19.3203 6.59766L13.7305 0.941406C13.7129 0.923828 13.7051 0.916016 13.6875 0.90625L13.6719 0.908203ZM13.2871 1.75781V5.55859C13.2871 5.96289 13.4512 6.33203 13.7168 6.59766C13.9824 6.86328 14.3516 7.02734 14.7559 7.02734H18.4785V23.6992C18.4785 23.7246 18.4707 23.7598 18.4434 23.7773C18.4258 23.7949 18.4004 23.8125 18.3652 23.8125H1.42969C1.4043 23.8125 1.36914 23.8047 1.35156 23.7773C1.33398 23.7598 1.31641 23.7266 1.31641 23.6992V1.86914C1.31641 1.83398 1.32422 1.80859 1.35156 1.79102C1.36914 1.77344 1.39453 1.75586 1.42969 1.75586H13.2871V1.75781ZM14.2559 5.55859V2.53125L17.7305 6.05664H14.7539C14.6172 6.05664 14.4961 5.99609 14.4023 5.91016C14.3164 5.82422 14.2559 5.69531 14.2559 5.55859ZM4.36523 14.2168C4.09961 14.2168 3.87695 14.4316 3.87695 14.707C3.87695 14.9727 4.0918 15.1973 4.36523 15.1973H15.3281C15.5938 15.1973 15.8184 14.9824 15.8184 14.707C15.8184 14.4414 15.6035 14.2168 15.3281 14.2168H4.36523ZM4.54883 20.1895C4.2832 20.1895 4.05859 20.4043 4.05859 20.6797C4.05859 20.9453 4.27344 21.168 4.54883 21.168H15.4395C15.7051 21.168 15.9297 20.9531 15.9297 20.6777C15.9297 20.4121 15.7148 20.1895 15.4395 20.1895H4.54883ZM4.36523 17.3926C4.09961 17.3926 3.87695 17.6074 3.87695 17.8809C3.87695 18.1465 4.0918 18.3691 4.36523 18.3691H15.4395C15.7051 18.3691 15.9277 18.1543 15.9277 17.8809C15.9277 17.6152 15.7129 17.3926 15.4395 17.3926H4.36523ZM8.05664 6.06445H8.33008C8.37891 6.06445 8.41992 6.10547 8.41992 6.1543V7.20508H9.37891C9.42969 7.20508 9.46875 7.24609 9.46875 7.29492V7.56836C9.46875 7.61914 9.42773 7.66016 9.37891 7.66016H7.9668V6.15625C7.96484 6.10547 8.00586 6.06445 8.05664 6.06445ZM8.41797 5.23633C9.46875 5.23633 10.3223 6.08984 10.3223 7.14062C10.3223 8.19141 9.4707 9.04492 8.41797 9.04492C7.36719 9.04492 6.51367 8.19336 6.51367 7.14062C6.51367 6.08789 7.36523 5.23633 8.41797 5.23633ZM6.98047 12.168C7.39453 12.168 7.73047 12.5039 7.73047 12.918C7.73047 13.332 7.39453 13.668 6.98047 13.668C6.56641 13.668 6.23047 13.332 6.23047 12.918C6.23047 12.502 6.56641 12.168 6.98047 12.168ZM10.0742 12.168C10.4883 12.168 10.8242 12.5039 10.8242 12.918C10.8242 13.332 10.4883 13.668 10.0742 13.668C9.66016 13.668 9.32422 13.332 9.32422 12.918C9.32422 12.502 9.6582 12.168 10.0742 12.168Z" fill="white" stroke="white" stroke-width="0.3"/>
</svg>