<svg width="30" height="30" viewBox="0 0 30 30" fill="none" xmlns="http://www.w3.org/2000/svg">
<path d="M23.5066 23.4188C21.8971 23.4188 20.6066 24.7093 20.6066 26.3188C20.6066 27.0879 20.9122 27.8255 21.456 28.3694C21.9999 28.9132 22.7375 29.2188 23.5066 29.2188C24.2758 29.2188 25.0134 28.9132 25.5573 28.3694C26.1011 27.8255 26.4066 27.0879 26.4066 26.3188C26.4066 25.5496 26.1011 24.812 25.5573 24.2681C25.0134 23.7243 24.2758 23.4188 23.5066 23.4188ZM0.306641 0.21875V3.11875H3.20664L8.42664 14.1243L6.45464 17.6768C6.23714 18.0828 6.10664 18.5613 6.10664 19.0688C6.10664 19.8379 6.41218 20.5755 6.95603 21.1194C7.49989 21.6632 8.23751 21.9688 9.00664 21.9688H26.4066V19.0688H9.61564C9.5195 19.0688 9.4273 19.0306 9.35931 18.9626C9.29133 18.8946 9.25314 18.8024 9.25314 18.7063C9.25314 18.6338 9.26764 18.5758 9.29664 18.5323L10.6016 16.1688H21.4041C22.4916 16.1688 23.4486 15.5598 23.9416 14.6753L29.1326 5.29375C29.2341 5.06175 29.3066 4.81525 29.3066 4.56875C29.3066 4.18419 29.1539 3.81537 28.8819 3.54345C28.61 3.27152 28.2412 3.11875 27.8566 3.11875H6.41114L5.04814 0.21875M9.00664 23.4188C7.39714 23.4188 6.10664 24.7093 6.10664 26.3188C6.10664 27.0879 6.41218 27.8255 6.95603 28.3694C7.49989 28.9132 8.23751 29.2188 9.00664 29.2188C9.77577 29.2188 10.5134 28.9132 11.0573 28.3694C11.6011 27.8255 11.9066 27.0879 11.9066 26.3188C11.9066 25.5496 11.6011 24.812 11.0573 24.2681C10.5134 23.7243 9.77577 23.4188 9.00664 23.4188Z" fill="#CCCCCC"/>
</svg>
