<svg width="27" height="27" viewBox="0 0 27 27" fill="none" xmlns="http://www.w3.org/2000/svg">
<path d="M10.8721 9.66243C10.5122 9.30263 9.92866 9.30263 9.56876 9.66243C9.20885 10.0222 9.20885 10.6056 9.56876 10.9654L11.9891 13.3851L9.56878 15.8048C9.20888 16.1645 9.20888 16.7479 9.56878 17.1077C9.92869 17.4675 10.5122 17.4675 10.8721 17.1077L13.2925 14.6881L15.7128 17.1077C16.0727 17.4675 16.6562 17.4675 17.0161 17.1077C17.3761 16.7479 17.3761 16.1645 17.0161 15.8047L14.5958 13.3851L17.0161 10.9654C17.3761 10.6056 17.3761 10.0223 17.0161 9.66247C16.6562 9.30265 16.0727 9.30265 15.7128 9.66247L13.2925 12.0821L10.8721 9.66243Z" fill="#1C274C"/>
<path fill-rule="evenodd" clip-rule="evenodd" d="M13.2917 0.179688C5.99621 0.179688 0.0820312 6.09221 0.0820312 13.3857C0.0820312 20.6792 5.99621 26.5917 13.2917 26.5917C20.5873 26.5917 26.5014 20.6792 26.5014 13.3857C26.5014 6.09221 20.5873 0.179688 13.2917 0.179688ZM1.92524 13.3857C1.92524 7.10991 7.0142 2.02238 13.2917 2.02238C19.5692 2.02238 24.6582 7.10991 24.6582 13.3857C24.6582 19.6614 19.5692 24.749 13.2917 24.749C7.0142 24.749 1.92524 19.6614 1.92524 13.3857Z" fill="#1C274C"/>
</svg>