<svg width="19" height="20" viewBox="0 0 19 20" fill="none" xmlns="http://www.w3.org/2000/svg">
<path d="M13.2994 14.5207L17.9657 9.85441M17.9657 9.85441L13.2994 5.18811M17.9657 9.85441H6.76654M9.56632 14.5207C9.56632 15.3886 9.56632 15.8226 9.47094 16.1786C9.21206 17.1447 8.45733 17.8995 7.49118 18.1584C7.13514 18.2537 6.70119 18.2537 5.83329 18.2537H5.36666C4.06213 18.2537 3.40986 18.2537 2.89534 18.0406C2.20932 17.7565 1.66427 17.2114 1.38011 16.5254C1.16699 16.0108 1.16699 15.3586 1.16699 14.0541V5.65474C1.16699 4.35021 1.16699 3.69794 1.38011 3.18343C1.66427 2.49741 2.20932 1.95236 2.89534 1.6682C3.40986 1.45508 4.06213 1.45508 5.36666 1.45508H5.83329C6.70119 1.45508 7.13514 1.45508 7.49118 1.55048C8.45733 1.80936 9.21206 2.56404 9.47094 3.53022C9.56632 3.88625 9.56632 4.32021 9.56632 5.18811" stroke="#F18B8B" stroke-width="1.86652" stroke-linecap="round" stroke-linejoin="round"/>
</svg>