<svg width="62" height="62" viewBox="0 0 62 62" fill="none" xmlns="http://www.w3.org/2000/svg">
<path d="M32.6284 0.772414C32.1784 0.280314 31.5426 0 30.8757 0C30.2088 0 29.5729 0.280314 29.1229 0.772414L16.4562 14.6266C15.5711 15.5946 15.6384 17.0969 16.6064 17.982C17.5745 18.8671 19.0767 18.7998 19.9618 17.8318L28.5007 8.49237V43.5417C28.5007 44.8533 29.564 45.9167 30.8757 45.9167C32.1873 45.9167 33.2507 44.8533 33.2507 43.5417V8.49237L41.7896 17.8318C42.6747 18.7998 44.1769 18.8671 45.145 17.982C46.113 17.0969 46.1802 15.5946 45.2951 14.6266L32.6284 0.772414Z" fill="#3A3F71"/>
<path d="M4.75 40.375C4.75 39.0634 3.6867 38 2.375 38C1.06334 38 1.65918e-06 39.0634 1.65918e-06 40.375V40.5489C-6.16742e-05 44.8796 -0.000125234 48.3702 0.368981 51.1157C0.752211 53.966 1.57203 56.3657 3.47811 58.2717C5.38419 60.1781 7.78411 60.9979 10.6345 61.3811C13.3799 61.75 16.8705 61.75 21.2012 61.75H40.5489C44.8796 61.75 48.3702 61.75 51.1157 61.3811C53.966 60.9979 56.3657 60.1781 58.272 58.2717C60.1781 56.3657 60.9979 53.966 61.3811 51.1157C61.75 48.3702 61.75 44.8796 61.75 40.5489V40.375C61.75 39.0634 60.6866 38 59.375 38C58.0634 38 57 39.0634 57 40.375C57 44.9204 56.9949 48.0906 56.6735 50.4827C56.361 52.8064 55.7897 54.0366 54.9132 54.9132C54.0366 55.7897 52.8064 56.361 50.4827 56.6735C48.0906 56.9949 44.9204 57 40.375 57H21.375C16.8295 57 13.6593 56.9949 11.2674 56.6735C8.94378 56.361 7.71327 55.7897 6.83687 54.9132C5.96046 54.0366 5.38903 52.8064 5.07664 50.4827C4.75504 48.0906 4.75 44.9204 4.75 40.375Z" fill="#3A3F71"/>
</svg>