<svg width="67" height="64" viewBox="0 0 67 64" fill="none" xmlns="http://www.w3.org/2000/svg">
<path d="M59.546 23.3596C58.594 20.4719 59.2287 16.7592 57.4834 14.3793C55.7381 11.9993 51.9937 11.3964 49.582 9.61941C47.1703 7.84238 45.5202 4.51047 42.6326 3.59023C39.7449 2.66998 36.6351 4.41527 33.4619 4.41527C30.2886 4.41527 27.1154 2.66998 24.2912 3.59023C21.467 4.51047 19.7534 7.90585 17.3418 9.61941C14.9301 11.333 11.2491 11.9359 9.44037 14.3793C7.63162 16.8227 8.32974 20.4719 7.37776 23.3596C6.42578 26.2472 3.76025 28.6589 3.76025 31.8322C3.76025 35.0054 6.48925 37.5123 7.37776 40.3047C8.26627 43.0972 7.69508 46.9051 9.44037 49.2851C11.1857 51.665 14.9301 52.2679 17.3418 54.0132C19.7534 55.7585 21.4035 59.1539 24.2912 60.0741C27.1788 60.9943 30.2886 59.2491 33.4619 59.2491C36.6351 59.2491 39.8084 60.9943 42.6326 60.0741C45.4568 59.1539 47.1703 55.7585 49.582 54.0132C51.9937 52.2679 55.7381 51.7285 57.4834 49.2851C59.2287 46.8416 58.594 43.1924 59.546 40.3047C60.498 37.4171 63.1635 35.0054 63.1635 31.8322C63.1635 28.6589 60.4345 26.152 59.546 23.3596Z" fill="#CFA460"/>
<path d="M25.3701 23.8984H25.6874" stroke="white" stroke-width="7.93313" stroke-linecap="round" stroke-linejoin="round"/>
<path d="M41.2363 39.7646H41.5537" stroke="white" stroke-width="7.93313" stroke-linecap="round" stroke-linejoin="round"/>
<path d="M23.9421 41.3519L42.9816 22.3124M59.546 23.3596C58.594 20.4719 59.2287 16.7592 57.4834 14.3793C55.7381 11.9993 51.9937 11.3964 49.582 9.61941C47.1703 7.84238 45.5202 4.51047 42.6326 3.59023C39.7449 2.66998 36.6351 4.41527 33.4619 4.41527C30.2886 4.41527 27.1154 2.66998 24.2912 3.59023C21.467 4.51047 19.7534 7.90585 17.3418 9.61941C14.9301 11.333 11.2491 11.9359 9.44037 14.3793C7.63162 16.8227 8.32974 20.4719 7.37776 23.3596C6.42578 26.2472 3.76025 28.6589 3.76025 31.8322C3.76025 35.0054 6.48925 37.5123 7.37776 40.3047C8.26627 43.0972 7.69508 46.9051 9.44037 49.2851C11.1857 51.665 14.9301 52.2679 17.3418 54.0132C19.7534 55.7585 21.4035 59.1539 24.2912 60.0741C27.1788 60.9943 30.2886 59.2491 33.4619 59.2491C36.6351 59.2491 39.8084 60.9943 42.6326 60.0741C45.4568 59.1539 47.1703 55.7585 49.582 54.0132C51.9937 52.2679 55.7381 51.7285 57.4834 49.2851C59.2287 46.8416 58.594 43.1924 59.546 40.3047C60.498 37.4171 63.1635 35.0054 63.1635 31.8322C63.1635 28.6589 60.4345 26.152 59.546 23.3596Z" stroke="white" stroke-width="6.3465" stroke-linecap="round" stroke-linejoin="round"/>
</svg>