<svg width="24" height="21" viewBox="0 0 24 21" fill="none" xmlns="http://www.w3.org/2000/svg">
<path d="M2.99209 1.24771C4.02862 0.491644 5.29162 0.0360044 6.5773 0.00151382C7.45136 -0.0175468 8.33314 0.143107 9.13369 0.499359C10.0958 0.904623 10.9218 1.57855 11.6111 2.35459C12.2928 1.58627 13.1087 0.920053 14.0577 0.51252C15.0225 0.0795716 16.1049 -0.0779053 17.155 0.0364583C18.6703 0.206642 20.1013 0.949552 21.1523 2.04826C22.3186 3.23909 23.0248 4.85017 23.1795 6.50481C23.3833 8.3664 22.9023 10.2507 22.0436 11.8976C20.9068 14.0937 19.18 15.9276 17.2744 17.4774C16.5964 18.0356 15.8703 18.5307 15.155 19.039C14.5052 19.4479 13.8712 19.8835 13.199 20.2561C12.8419 20.459 12.4888 20.6687 12.1294 20.8674C11.7926 21.058 11.3642 21.0385 11.0357 20.8384C10.659 20.6228 10.2828 20.4059 9.9061 20.1899C9.37013 19.8926 8.86593 19.5432 8.3463 19.2187C8.03907 19.0317 7.7518 18.8148 7.45817 18.6078C5.60748 17.3217 3.90019 15.8032 2.52374 14.012C1.49493 12.6505 0.654897 11.1175 0.253716 9.44967C-0.156994 7.77506 -0.0812056 5.96521 0.570032 4.3614C1.06652 3.12518 1.91199 2.0292 2.99209 1.24771ZM3.96645 3.17057C2.96895 4.01513 2.31408 5.24908 2.16704 6.54702C2.0023 7.96658 2.3463 9.39975 2.94353 10.6832C3.82531 12.5393 5.22899 14.0946 6.77517 15.4243C8.26326 16.6995 9.90973 17.7764 11.6111 18.7435C12.7026 18.1213 13.7718 17.4588 14.7911 16.7236C16.271 15.6557 17.6606 14.4431 18.8056 13.0163C19.4323 12.2203 19.9978 11.3648 20.3899 10.4272C20.9041 9.27404 21.1804 7.99698 21.0761 6.73218C20.9939 5.66796 20.5705 4.63506 19.8911 3.81273C19.2399 3.02171 18.3377 2.42176 17.3311 2.20211C16.7171 2.06278 16.0718 2.09001 15.465 2.25112C14.3726 2.55064 13.4713 3.32577 12.8251 4.23524C12.6849 4.43855 12.5573 4.65185 12.3999 4.84291C12.1203 5.17601 11.622 5.29492 11.2213 5.12791C10.9721 5.03669 10.7901 4.83383 10.6513 4.61554C10.3581 4.16262 10.035 3.72287 9.63562 3.35709C8.92675 2.66092 7.98098 2.17669 6.97893 2.1245C5.88522 2.03555 4.79513 2.47077 3.96645 3.17057Z" fill="black"/>
</svg>