<svg width="21" height="21" viewBox="0 0 21 21" fill="none" xmlns="http://www.w3.org/2000/svg">
<path d="M13.4655 3.05626H15.5971C16.9235 3.05626 17.5872 3.05626 18.0938 3.3144C18.5395 3.54145 18.9015 3.90351 19.1286 4.34915C19.3867 4.85577 19.3867 5.51947 19.3867 6.84589V15.8457C19.3867 17.1721 19.3867 17.835 19.1286 18.3416C18.9015 18.7872 18.5395 19.1499 18.0938 19.377C17.5877 19.6349 16.9248 19.6349 15.601 19.6349H6.59383C5.27003 19.6349 4.60807 19.6349 4.10194 19.377C3.65633 19.1499 3.29303 18.7869 3.06602 18.3413C2.8081 17.8351 2.8081 17.1729 2.8081 15.8491V13.7139M1.62391 7.793V1.87207M1.62391 1.87207H7.54485M1.62391 1.87207L9.91322 10.1614" stroke="black" stroke-width="2.36837" stroke-linecap="round" stroke-linejoin="round"/>
</svg>