<svg width="31" height="31" viewBox="0 0 31 31" fill="none" xmlns="http://www.w3.org/2000/svg">
<path d="M14 19.25C14 21.32 17.3585 23 21.5 23C25.6415 23 29 21.32 29 19.25M2 11.75C2 13.82 5.3585 15.5 9.5 15.5C11.189 15.5 12.7475 15.221 14 14.75M2 17C2 19.07 5.3585 20.75 9.5 20.75C11.189 20.75 12.746 20.471 14 20M21.5 17C17.3585 17 14 15.32 14 13.25C14 11.18 17.3585 9.5 21.5 9.5C25.6415 9.5 29 11.18 29 13.25C29 15.32 25.6415 17 21.5 17Z" stroke="#C3C3C3" stroke-width="2.25" stroke-linecap="round" stroke-linejoin="round"/>
<path d="M2 5.75V22.25C2 24.32 5.3585 26 9.5 26C11.189 26 12.746 25.721 14 25.25M14 25.25V13.25M14 25.25C14 27.32 17.3585 29 21.5 29C25.6415 29 29 27.32 29 25.25V13.25M17 10.25V5.75" stroke="#C3C3C3" stroke-width="2.25" stroke-linecap="round" stroke-linejoin="round"/>
<path d="M9.5 9.5C5.3585 9.5 2 7.82 2 5.75C2 3.68 5.3585 2 9.5 2C13.6415 2 17 3.68 17 5.75C17 7.82 13.6415 9.5 9.5 9.5Z" stroke="#C3C3C3" stroke-width="2.25" stroke-linecap="round" stroke-linejoin="round"/>
</svg>