<svg width="17" height="17" viewBox="0 0 17 17" fill="none" xmlns="http://www.w3.org/2000/svg">
<path d="M8.25 16.5C3.7125 16.5 0 12.7875 0 8.25C0 3.7125 3.7125 0 8.25 0C12.7875 0 16.5 3.7125 16.5 8.25C16.5 12.7875 12.7875 16.5 8.25 16.5ZM6.53125 11.6875C6.94375 13.8188 7.7 15.125 8.25 15.125C8.8 15.125 9.55625 13.8188 9.96875 11.6875H6.53125ZM11.4125 11.6875C11.2063 12.8562 10.8625 13.9563 10.45 14.7812C12.0312 14.2312 13.4063 13.1313 14.2313 11.6875H11.4125ZM2.26875 11.6875C3.09375 13.1313 4.46875 14.2312 6.05 14.7812C5.6375 13.9563 5.29375 12.8562 5.0875 11.6875H2.26875ZM11.6187 10.3125H14.85C14.9875 9.69375 15.125 8.9375 15.125 8.25C15.125 7.5625 14.9875 6.80625 14.7812 6.1875H11.55C11.6875 6.875 11.6875 7.5625 11.6875 8.25C11.6875 8.9375 11.6875 9.625 11.6187 10.3125ZM6.325 10.3125H10.2437C10.3125 9.69375 10.3813 9.00625 10.3813 8.25C10.3813 7.49375 10.3125 6.80625 10.2437 6.1875H6.325C6.25625 6.80625 6.1875 7.49375 6.1875 8.25C6.1875 9.00625 6.25625 9.69375 6.325 10.3125ZM1.71875 10.3125H4.95C4.88125 9.625 4.88125 8.9375 4.88125 8.25C4.88125 7.5625 4.88125 6.875 4.95 6.1875H1.71875C1.5125 6.80625 1.375 7.5625 1.375 8.25C1.375 8.9375 1.5125 9.69375 1.71875 10.3125ZM11.4125 4.8125H14.2313C13.4063 3.36875 12.0312 2.26875 10.45 1.71875C10.8625 2.54375 11.2063 3.64375 11.4125 4.8125ZM6.53125 4.8125H10.0375C9.625 2.68125 8.86875 1.375 8.31875 1.375C7.76875 1.375 6.94375 2.68125 6.53125 4.8125ZM2.26875 4.8125H5.0875C5.29375 3.64375 5.6375 2.54375 6.05 1.71875C4.46875 2.26875 3.1625 3.36875 2.26875 4.8125Z" fill="black"/>
</svg>