<svg width="19" height="19" viewBox="0 0 19 19" fill="none" xmlns="http://www.w3.org/2000/svg">
<path d="M12.7435 8.35089L7.89791 13.5268C7.48695 13.986 6.90196 14.2516 6.2856 14.2588C5.66929 14.266 5.07828 14.014 4.65667 13.5644C3.72531 12.5921 3.74095 11.054 4.69189 10.1009L11.1999 3.14102C11.9179 2.34183 12.9396 1.8826 14.0139 1.87636C15.088 1.87012 16.115 2.31743 16.8421 3.10824C18.3932 4.82222 18.3821 7.43582 16.8166 9.13662L9.91628 16.5094C8.9343 17.4951 7.59005 18.0336 6.19909 17.9984C4.80812 17.9633 3.49282 17.3576 2.56179 16.3236C0.433715 13.9231 0.48636 10.2963 2.68324 7.95863L9.20098 1" stroke="#606060" stroke-width="1.82163" stroke-linecap="round" stroke-linejoin="round"/>
</svg>