<svg width="25" height="25" viewBox="0 0 25 25" fill="none" xmlns="http://www.w3.org/2000/svg">
<path d="M15.776 3.64425H18.2558C19.7989 3.64425 20.5711 3.64425 21.1604 3.94456C21.6789 4.20871 22.1001 4.62991 22.3642 5.14836C22.6646 5.73774 22.6646 6.50987 22.6646 8.05299V18.5231C22.6646 20.0662 22.6646 20.8374 22.3642 21.4268C22.1001 21.9452 21.6789 22.3671 21.1604 22.6312C20.5716 22.9313 19.8004 22.9313 18.2603 22.9313H7.78171C6.24164 22.9313 5.47154 22.9313 4.88273 22.6312C4.36432 22.3671 3.94166 21.9448 3.67757 21.4263C3.37752 20.8375 3.37752 20.0672 3.37752 18.5271V16.0431M1.99987 9.15483V2.2666M1.99987 2.2666H8.8881M1.99987 2.2666L11.6434 11.9101" stroke="#C18A33" stroke-width="2.75529" stroke-linecap="round" stroke-linejoin="round"/>
</svg>