<svg width="24" height="24" viewBox="0 0 24 24" fill="none" xmlns="http://www.w3.org/2000/svg">
<path d="M9.18848 12.1075L12.5119 10.1563L9.18848 8.20508V12.1075Z" fill="white"/>
<path d="M10.5413 0C4.93358 0 0.388672 4.54491 0.388672 10.1527C0.388672 15.7604 4.93358 20.3053 10.5413 20.3053C16.1491 20.3053 20.694 15.7604 20.694 10.1527C20.694 4.54491 16.1491 0 10.5413 0ZM15.6177 11.969C15.6177 13.718 13.8687 13.718 13.8687 13.718H7.21396C5.46501 13.718 5.46501 11.969 5.46501 11.969V8.34026C5.46501 6.5913 7.21396 6.59131 7.21396 6.59131H13.8687C15.6177 6.59131 15.6177 8.34026 15.6177 8.34026V11.969Z" fill="white"/>
</svg>