<svg width="24" height="26" viewBox="0 0 24 26" fill="none" xmlns="http://www.w3.org/2000/svg">
<path d="M4.03407 24.8337C2.48518 24.8337 1.22949 23.5452 1.22949 21.9542V10.3809C1.22949 9.50648 1.61737 8.67813 2.28137 8.13246L9.99561 1.79751C10.4885 1.38935 11.1084 1.16602 11.7483 1.16602C12.3882 1.16602 13.0081 1.38935 13.501 1.79751L21.2139 8.13246C21.8792 8.67813 22.2671 9.50648 22.2671 10.3809V21.9542C22.2671 23.5452 21.0114 24.8337 19.4625 24.8337H4.03407Z" stroke="white" stroke-width="1.97228" stroke-linecap="round" stroke-linejoin="round"/>
<path d="M8.46094 24.834V17.6024C8.46094 16.9049 8.738 16.236 9.23116 15.7429C9.72433 15.2497 10.3932 14.9727 11.0906 14.9727H12.4055C13.1029 14.9727 13.7718 15.2497 14.265 15.7429C14.7581 16.236 15.0352 16.9049 15.0352 17.6024V24.834" stroke="white" stroke-width="1.97228" stroke-linecap="round" stroke-linejoin="round"/>
</svg>