<svg width="38" height="38" viewBox="0 0 28 28" fill="none" xmlns="http://www.w3.org/2000/svg">
<path d="M8.14842 14.0195L12.9454 17.6589C13.0682 17.752 13.1918 17.8014 13.3029 17.8014C13.4162 17.8014 13.515 17.75 13.5811 17.6569C13.6443 17.5678 13.6764 17.4465 13.6764 17.2959V15.9025C13.6764 15.5359 13.9747 15.2376 14.3412 15.2376H18.2982C18.7573 15.2376 19.1308 14.864 19.1308 14.4051V12.5956C19.1308 12.1366 18.7573 11.763 18.2982 11.763H14.3412C13.9747 11.763 13.6764 11.4647 13.6764 11.0981V9.70462C13.6764 9.33206 13.4835 9.19922 13.3029 9.19922C13.1919 9.19922 13.0682 9.24858 12.9454 9.34171L8.14847 12.9811C7.96833 13.1177 7.86914 13.3021 7.86914 13.5005C7.86909 13.6986 7.96823 13.883 8.14842 14.0195Z" fill="#aeaeae"/>
<path d="M13.4999 0C6.05602 0 0 6.05602 0 13.5C0 20.944 6.05602 27 13.4999 27C20.9438 27 26.9998 20.944 26.9998 13.5C26.9998 6.05602 20.9438 0 13.4999 0ZM13.4999 3.52187C19.0019 3.52187 23.4781 7.99791 23.4781 13.5C23.4781 19.0021 19.0019 23.4781 13.4999 23.4781C7.99791 23.4781 3.52165 19.0021 3.52165 13.5C3.52165 7.99791 7.99796 3.52187 13.4999 3.52187Z" fill="#aeaeae"/>
</svg>