<svg width="59" height="62" viewBox="0 0 59 62" fill="none" xmlns="http://www.w3.org/2000/svg">
<path opacity="0.97" d="M20.201 2H20.2944C25.167 4.81343 30.039 7.62795 34.9127 10.4403C36.1329 11.1383 37.3427 11.8555 38.5694 12.5415C38.5476 16.0508 38.5694 19.5611 38.5591 23.0709C44.3476 26.4229 50.1432 29.7634 55.9328 33.1143C56.2229 33.2782 56.5069 33.454 56.8018 33.6097C56.7816 37.1315 56.7985 40.6545 56.7931 44.1769C49.1781 48.5781 41.5604 52.9733 33.9443 57.3728C32.4341 58.2505 30.9129 59.1108 29.4087 60C27.4583 58.8519 25.4903 57.7339 23.5333 56.5972C16.4487 52.5057 9.36406 48.4142 2.27996 44.3227C2.19203 44.2713 2.10901 44.2003 2.00195 44.2009V44.1823C2.10354 44.0518 2.05657 43.8792 2.06586 43.7279C2.06258 36.9737 2.06586 30.2195 2.06367 23.4653C2.05985 23.3369 2.10901 23.2015 2.04838 23.0797L2.00195 23.1403V23.0824C3.32865 22.3391 4.63732 21.5635 5.95747 20.8075C7.68671 19.8047 9.42359 18.8134 11.1485 17.8029C11.1364 14.2926 11.1561 10.7822 11.1386 7.27183C11.202 7.24179 11.2659 7.21121 11.3276 7.17625C13.3354 6.01505 15.3443 4.85658 17.3526 3.69592C18.3298 3.13881 19.2954 2.55985 20.2802 2.01639L20.201 2ZM17.404 3.73689C15.3498 4.92376 13.295 6.10899 11.2413 7.29641C17.2986 10.7948 23.3531 14.2975 29.4136 17.7893C32.4297 16.0475 35.4441 14.3019 38.4646 12.5677C37.34 11.9019 36.2011 11.2585 35.0711 10.602C30.1483 7.75849 25.2227 4.92103 20.3037 2.07155C19.3299 2.61228 18.3718 3.18414 17.404 3.73689ZM11.2058 7.35431C11.2064 9.44731 11.2058 11.5403 11.2064 13.6333C11.2124 15.0288 11.1933 16.4254 11.2156 17.8199C13.537 19.1449 15.8463 20.4918 18.1626 21.8251C18.864 22.2233 19.5543 22.6433 20.2633 23.0273C20.26 19.5464 20.2628 16.0661 20.2617 12.5852C17.244 10.8406 14.2246 9.0983 11.2058 7.35431ZM20.3261 12.6229C20.3245 19.6174 20.3299 26.6114 20.3234 33.6053C23.3345 35.3548 26.3555 37.0878 29.3683 38.8346L29.4371 38.8105C29.6643 38.7461 29.8533 38.5822 30.0652 38.4773C32.8748 36.8573 35.6817 35.233 38.4924 33.6152C38.499 26.6179 38.5001 19.6201 38.4995 12.6223C35.478 14.3652 32.4543 16.1043 29.4382 17.8565L29.3667 17.8412C26.3511 16.1048 23.3411 14.3603 20.3261 12.6229ZM2.13031 23.0933C5.1431 24.8395 8.1608 26.5775 11.1758 28.3204C14.1831 26.5873 17.1844 24.8439 20.195 23.1163C20.1868 23.1021 20.171 23.0726 20.1628 23.0584C17.1664 21.327 14.17 19.5955 11.172 17.8663C8.15862 19.6092 5.13982 21.3433 2.13031 23.0933ZM2.1101 23.1633C2.07514 23.5172 2.10027 23.8738 2.09371 24.2289C2.09098 29.7634 2.0959 35.2974 2.09207 40.832C2.08334 41.9282 2.11283 43.026 2.0806 44.1217C2.47441 44.386 2.90208 44.6012 3.30899 44.847C5.47573 46.0984 7.64247 47.3491 9.8092 48.6005C10.256 48.8468 10.6858 49.1313 11.1441 49.352C11.1386 42.3613 11.1425 35.3712 11.1419 28.3805C8.13294 26.6381 5.12179 24.9007 2.1101 23.1633ZM11.2107 28.3794C11.2113 31.8646 11.2102 35.3499 11.2113 38.8346C14.2284 37.0966 17.2412 35.3499 20.2589 33.6124C20.2655 30.1255 20.2606 26.6381 20.2617 23.1512C17.244 24.893 14.2262 26.6343 11.2107 28.3794ZM38.5596 33.5715C41.568 31.834 44.5803 30.101 47.5821 28.3515C44.5704 26.6239 41.5686 24.8799 38.5612 23.1463C38.5596 26.6217 38.5629 30.0966 38.5596 33.5715ZM34.4146 36.0446C32.7716 36.9994 31.1161 37.935 29.4808 38.9017C32.504 40.6332 35.5129 42.3897 38.5367 44.119C44.5879 40.619 50.6446 37.1288 56.6959 33.6288C53.6864 31.8799 50.6676 30.1463 47.6575 28.3974C43.2394 30.9388 38.8316 33.4999 34.4146 36.0446ZM11.2473 38.8875C12.3725 39.5594 13.5162 40.2011 14.6485 40.8615C19.568 43.7033 24.4886 46.5446 29.4082 49.3864C32.4264 47.6446 35.4458 45.9045 38.4624 44.1588C32.4051 40.6638 26.3495 37.167 20.2939 33.6698C17.2762 35.405 14.2672 37.1561 11.2473 38.8875ZM47.6793 38.9176C47.681 42.399 47.6804 45.881 47.6799 49.3629C50.7025 47.6419 53.7016 45.8782 56.7232 44.155C56.7428 43.8677 56.727 43.5788 56.7325 43.2915C56.7319 40.0908 56.733 36.8901 56.7314 33.6894C53.7126 35.4291 50.6954 37.1725 47.6793 38.9176ZM11.2107 38.9547C11.2107 42.44 11.2107 45.9247 11.2107 49.4099C14.2273 51.1528 17.244 52.8951 20.2617 54.6364C20.2595 51.1495 20.2671 47.6626 20.2578 44.1758C17.2396 42.4405 14.2279 40.6927 11.2107 38.9547ZM38.5607 44.1829C38.5634 47.6665 38.5563 51.1506 38.564 54.6348C41.5789 52.8913 44.5966 51.1528 47.6105 49.4083C47.6089 45.9241 47.6116 42.44 47.6094 38.9564C44.5923 40.6971 41.5751 42.4383 38.5607 44.1829ZM20.3245 44.2222C20.3283 47.7058 20.325 51.1894 20.3261 54.6735C23.3411 56.4164 26.3561 58.1604 29.3749 59.8979C29.3776 56.4164 29.371 52.935 29.3781 49.4541C28.0809 48.6867 26.7684 47.9439 25.4658 47.1864C23.7513 46.1994 22.0422 45.2026 20.3245 44.2222ZM29.4404 49.4454C29.4371 52.9301 29.4426 56.4148 29.4377 59.8995C30.6278 59.2228 31.8098 58.5318 32.9966 57.8496C34.8291 56.7873 36.6703 55.7386 38.4973 54.6675C38.4913 51.1872 38.4962 47.7069 38.4951 44.2266C35.4709 45.9552 32.4603 47.7085 29.4404 49.4454Z" fill="#7A7A7A" stroke="#EBDFAF" stroke-width="2"/>
<path opacity="0.81" d="M29.3642 17.8398L29.4357 17.8551C29.4472 18.8328 29.4374 19.811 29.4407 20.7887C29.4368 26.7957 29.4488 32.8027 29.4346 38.8092L29.3658 38.8332C29.3609 31.8354 29.3647 24.8376 29.3642 17.8398Z" fill="#7A7A7A" stroke="#EBDFAF" stroke-width="2"/>
<path opacity="0.48" d="M2 23.1397L2.04643 23.0791C2.10705 23.2009 2.0579 23.3364 2.06172 23.4647C2.0639 30.2189 2.06063 36.9731 2.0639 43.7273C2.05462 43.8786 2.10159 44.0512 2 44.1817V23.1397Z" fill="#7A7A7A" stroke="#EBDFAF" stroke-width="2"/>
</svg>