<svg width="15" height="15" viewBox="0 0 15 15" fill="none" xmlns="http://www.w3.org/2000/svg">
<path d="M6.38756 4.47177C6.38756 4.11899 6.67354 3.83301 7.02632 3.83301C7.37911 3.83301 7.66508 4.11899 7.66508 4.47177V6.38805H9.58137C9.93415 6.38805 10.2201 6.67402 10.2201 7.02681C10.2201 7.3796 9.93415 7.66557 9.58137 7.66557H7.66508V9.58185C7.66508 9.93464 7.37911 10.2206 7.02632 10.2206C6.67354 10.2206 6.38756 9.93464 6.38756 9.58185V7.66557H4.47128C4.1185 7.66557 3.83252 7.3796 3.83252 7.02681C3.83252 6.67402 4.11851 6.38805 4.47128 6.38805H6.38756V4.47177Z" fill="#C18A33"/>
<path fill-rule="evenodd" clip-rule="evenodd" d="M14.0527 7.02637C14.0527 10.9069 10.9069 14.0527 7.02637 14.0527C3.14581 14.0527 0 10.9069 0 7.02637C0 3.14581 3.14581 0 7.02637 0C10.9069 0 14.0527 3.14581 14.0527 7.02637ZM1.28188 7.02637C1.28188 10.199 3.85378 12.7709 7.02637 12.7709C10.199 12.7709 12.7709 10.199 12.7709 7.02637C12.7709 3.85378 10.199 1.28188 7.02637 1.28188C3.85378 1.28188 1.28188 3.85378 1.28188 7.02637Z" fill="#C18A33"/>
</svg>