<svg width="19" height="18" viewBox="0 0 19 18" fill="none" xmlns="http://www.w3.org/2000/svg">
<g opacity="0.5">
<path d="M18.0207 4.33341C18.0207 5.06003 17.7542 5.8587 17.4157 6.70617C17.0772 7.55364 16.6411 8.3523 16.3018 8.95731C15.3815 10.5554 14.1955 12.1287 12.8398 13.4356C11.4842 14.7424 9.88608 15.8324 8.09508 16.4862C7.05395 16.8975 6.01282 17.3576 4.85084 17.3576C4.26985 17.3576 3.44639 17.14 2.69653 16.8247C1.9699 16.5102 1.31687 16.026 1.07441 15.445C0.977573 15.2273 0.856728 14.9369 0.783911 14.5976C0.711092 14.283 0.663065 13.9678 0.663065 13.7501C0.663065 13.6292 0.663065 13.5076 0.687078 13.4836C0.759895 13.338 0.929544 13.2171 1.12321 13.0963C1.55934 12.8786 1.63138 12.8058 2.28519 12.4185C2.96301 12.0311 3.66484 11.595 4.27062 11.2805C4.56112 11.1108 4.75478 11.038 4.8276 11.038C5.21492 11.038 5.69908 11.571 6.11042 12.152C6.54655 12.733 7.03071 13.2659 7.36923 13.2659C7.53888 13.2659 7.70853 13.1931 7.90219 13.0723C8.09586 12.9514 8.28952 12.8546 8.41037 12.7818C10.5407 11.571 11.9691 10.1433 13.1791 8.03702C13.3248 7.79456 13.6633 7.28638 13.6633 7.0199C13.6633 6.70539 13.2272 6.34208 12.7918 5.95476C12.3805 5.59144 11.9443 5.15609 11.9443 4.62313C11.9443 4.55031 11.9931 4.33263 12.09 4.01812C12.3076 3.38833 12.5981 2.66248 12.8406 1.96065C12.9615 1.62135 13.0583 1.37966 13.0831 1.25881C13.1319 1.18599 13.1559 1.08916 13.1799 0.968316C13.2039 0.84747 13.2527 0.750638 13.2767 0.653807C13.3496 0.436129 13.4704 0.26648 13.5912 0.169649C13.7121 0.120846 14.0026 0.0488029 14.2931 0.024014C14.5836 0.024014 14.9229 0 15.0677 0C15.1406 0 15.2374 -2.62608e-07 15.3342 0.024014H15.6487C16.4234 0.363312 16.9804 1.04113 17.3917 1.8398C17.779 2.63847 18.0215 3.53474 18.0215 4.33341H18.0207Z" fill="#878787"/>
</g>
</svg>