<svg width="31" height="23" viewBox="0 0 31 23" fill="none" xmlns="http://www.w3.org/2000/svg">
<path d="M9.5 2.751L29 2.75208M9.5 11.751L29 11.7523M9.5 20.751L29 20.7522M2.75 2.75H2.765M2.75 11.75H2.765M2.75 20.75H2.765M3.5 2.75C3.5 3.16421 3.16421 3.5 2.75 3.5C2.33579 3.5 2 3.16421 2 2.75C2 2.33579 2.33579 2 2.75 2C3.16421 2 3.5 2.33579 3.5 2.75ZM3.5 11.75C3.5 12.1642 3.16421 12.5 2.75 12.5C2.33579 12.5 2 12.1642 2 11.75C2 11.3358 2.33579 11 2.75 11C3.16421 11 3.5 11.3358 3.5 11.75ZM3.5 20.75C3.5 21.1642 3.16421 21.5 2.75 21.5C2.33579 21.5 2 21.1642 2 20.75C2 20.3358 2.33579 20 2.75 20C3.16421 20 3.5 20.3358 3.5 20.75Z" stroke="black" stroke-width="3" stroke-linecap="round" stroke-linejoin="round"/>
</svg>