<svg width="27" height="27" viewBox="0 0 30 24" fill="none" xmlns="http://www.w3.org/2000/svg">
<g filter="url(#filter0_d_568_6724)">
<path d="M18.5926 6.2945C18.5967 6.2945 18.6023 6.2945 18.6079 6.2945C18.7538 6.2945 18.8893 6.33988 19.0003 6.41808L18.9982 6.41669C19.0792 6.48721 19.1337 6.58636 19.1469 6.69807V6.70017C19.1609 6.78535 19.1686 6.8831 19.1686 6.98295C19.1686 7.02833 19.1672 7.07302 19.1637 7.1177V7.11142C19.0066 8.76552 18.3251 12.7768 17.9788 14.6285C17.8322 15.4126 17.5438 15.6751 17.2645 15.7003C16.6578 15.7568 16.1969 15.2995 15.609 14.9141C14.6888 14.3101 14.1686 13.9345 13.2756 13.3459C12.2429 12.6665 12.9125 12.2916 13.5004 11.6813C13.6547 11.5207 16.3296 9.0874 16.382 8.86676C16.3848 8.85349 16.3862 8.83883 16.3862 8.82347C16.3862 8.76901 16.3659 8.71943 16.3331 8.68173C16.2968 8.65799 16.2514 8.64472 16.2039 8.64472C16.1725 8.64472 16.1425 8.65101 16.1146 8.66148L16.116 8.66078C16.0238 8.68173 14.5538 9.65319 11.706 11.5752C11.3953 11.8203 11.0029 11.9753 10.5755 11.9934H10.5714C9.96599 11.9201 9.41649 11.7853 8.89491 11.5933L8.94658 11.6101C8.29165 11.3964 7.77147 11.284 7.81616 10.9223C7.83989 10.7343 8.09917 10.5418 8.59398 10.3449C11.642 9.01688 13.6745 8.14154 14.6916 7.71888C15.8136 7.12329 17.1144 6.63314 18.4822 6.31544L18.5919 6.2938L18.5926 6.2945ZM14.2692 0C8.47249 0.0139645 3.77832 4.71651 3.77832 10.5153C3.77832 16.3224 8.48575 21.0305 14.2936 21.0305C20.1014 21.0305 24.8089 16.3231 24.8089 10.5153C24.8089 4.71651 20.1147 0.0139645 14.3194 0H14.318C14.3017 0 14.2854 0 14.2692 0Z" fill="white"/>
</g>
<defs>
<filter id="filter0_d_568_6724" x="0.877557" y="0" width="26.8323" height="26.8318" filterUnits="userSpaceOnUse" color-interpolation-filters="sRGB">
<feFlood flood-opacity="0" result="BackgroundImageFix"/>
<feColorMatrix in="SourceAlpha" type="matrix" values="0 0 0 0 0 0 0 0 0 0 0 0 0 0 0 0 0 0 127 0" result="hardAlpha"/>
<feOffset dy="2.90076"/>
<feGaussianBlur stdDeviation="1.45038"/>
<feComposite in2="hardAlpha" operator="out"/>
<feColorMatrix type="matrix" values="0 0 0 0 0 0 0 0 0 0 0 0 0 0 0 0 0 0 0.25 0"/>
<feBlend mode="normal" in2="BackgroundImageFix" result="effect1_dropShadow_568_6724"/>
<feBlend mode="normal" in="SourceGraphic" in2="effect1_dropShadow_568_6724" result="shape"/>
</filter>
</defs>
</svg>