<svg width="40" height="40" viewBox="0 0 40 40" fill="none" xmlns="http://www.w3.org/2000/svg">
<path d="M38.5914 18.5857L21.4948 1.48905C21.0368 1.03111 20.4165 0.773438 19.768 0.773438H2.67138C1.32136 0.773438 0.229004 1.86579 0.229004 3.21581V20.3124C0.229004 20.9609 0.486675 21.5813 0.94462 22.0392L18.0413 39.1358C18.5181 39.6127 19.1434 39.8515 19.768 39.8515C20.3926 39.8515 21.0179 39.6127 21.4948 39.1358L38.5914 22.0392C39.5458 21.0855 39.5458 19.5394 38.5914 18.5857ZM12.4409 17.8725C9.74328 17.8725 7.55613 15.6854 7.55613 12.9878C7.55613 10.2902 9.74328 8.10301 12.4409 8.10301C15.1385 8.10301 17.3256 10.2902 17.3256 12.9878C17.3256 15.6854 15.1385 17.8725 12.4409 17.8725Z" fill="#8DCCC1"/>
</svg>