<svg width="28" height="28" viewBox="0 0 28 28" fill="none" xmlns="http://www.w3.org/2000/svg">
<path fill-rule="evenodd" clip-rule="evenodd" d="M19.1792 14.7758H15.0161V18.939C15.0161 19.3969 14.6439 19.7716 14.1834 19.7716C13.723 19.7716 13.3508 19.3969 13.3508 18.939V14.7758H9.18764C8.7272 14.7758 8.35501 14.4011 8.35501 13.9432C8.35501 13.4852 8.7272 13.1106 9.18764 13.1106H13.3508V8.94741C13.3508 8.48946 13.723 8.11478 14.1834 8.11478C14.6439 8.11478 15.0161 8.48946 15.0161 8.94741V13.1106H19.1792C19.6397 13.1106 20.0119 13.4852 20.0119 13.9432C20.0119 14.4011 19.6397 14.7758 19.1792 14.7758ZM14.1834 0.621094C6.82547 0.621094 0.861328 6.58273 0.861328 13.9432C0.861328 21.3037 6.82547 27.2653 14.1834 27.2653C21.5414 27.2653 27.5055 21.3037 27.5055 13.9432C27.5055 6.58273 21.5414 0.621094 14.1834 0.621094Z" fill="black"/>
</svg>