<svg width="23" height="17" viewBox="0 0 23 17" fill="none" xmlns="http://www.w3.org/2000/svg">
<path d="M21.222 0.166016H1.77756C1.4092 0.166016 1.05594 0.312345 0.795468 0.572812C0.535001 0.833279 0.388672 1.18655 0.388672 1.5549V15.4438C0.388672 15.8121 0.535001 16.1654 0.795468 16.4259C1.05594 16.6864 1.4092 16.8327 1.77756 16.8327H21.222C21.5904 16.8327 21.9436 16.6864 22.2041 16.4259C22.4646 16.1654 22.6109 15.8121 22.6109 15.4438V1.5549C22.6109 1.18655 22.4646 0.833279 22.2041 0.572812C21.9436 0.312345 21.5904 0.166016 21.222 0.166016ZM21.222 15.4438H1.77756V1.5549H21.222V15.4438Z" fill="#4D2481"/>
<path d="M5.24913 5.72287H17.7491C17.9333 5.72287 18.1099 5.64971 18.2402 5.51947C18.3704 5.38924 18.4436 5.21261 18.4436 5.02843C18.4436 4.84425 18.3704 4.66762 18.2402 4.53738C18.1099 4.40715 17.9333 4.33398 17.7491 4.33398H5.24913C5.06495 4.33398 4.88832 4.40715 4.75809 4.53738C4.62785 4.66762 4.55469 4.84425 4.55469 5.02843C4.55469 5.21261 4.62785 5.38924 4.75809 5.51947C4.88832 5.64971 5.06495 5.72287 5.24913 5.72287Z" fill="#4D2481"/>
<path d="M5.24913 8.50022H17.7491C17.9333 8.50022 18.1099 8.42705 18.2402 8.29682C18.3704 8.16659 18.4436 7.98995 18.4436 7.80577C18.4436 7.62159 18.3704 7.44496 18.2402 7.31473C18.1099 7.18449 17.9333 7.11133 17.7491 7.11133H5.24913C5.06495 7.11133 4.88832 7.18449 4.75809 7.31473C4.62785 7.44496 4.55469 7.62159 4.55469 7.80577C4.55469 7.98995 4.62785 8.16659 4.75809 8.29682C4.88832 8.42705 5.06495 8.50022 5.24913 8.50022Z" fill="#4D2481"/>
<path d="M5.24913 11.2776H12.1936C12.3778 11.2776 12.5544 11.2044 12.6846 11.0742C12.8149 10.9439 12.888 10.7673 12.888 10.5831C12.888 10.3989 12.8149 10.2223 12.6846 10.0921C12.5544 9.96184 12.3778 9.88867 12.1936 9.88867H5.24913C5.06495 9.88867 4.88832 9.96184 4.75809 10.0921C4.62785 10.2223 4.55469 10.3989 4.55469 10.5831C4.55469 10.7673 4.62785 10.9439 4.75809 11.0742C4.88832 11.2044 5.06495 11.2776 5.24913 11.2776Z" fill="#4D2481"/>
</svg>