<svg width="17" height="14" viewBox="0 0 17 14" fill="none" xmlns="http://www.w3.org/2000/svg">
<path fill-rule="evenodd" clip-rule="evenodd" d="M3.46328 0.663086H13.4612C13.8247 0.663078 14.1384 0.66307 14.398 0.68078C14.6714 0.699435 14.9448 0.740458 15.2149 0.852338C15.8241 1.10467 16.3081 1.58869 16.5604 2.19788C16.6723 2.46799 16.7133 2.7414 16.732 3.01475C16.7497 3.27436 16.7497 3.58802 16.7497 3.95155V10.6345C16.7497 10.998 16.7497 11.3117 16.732 11.5713C16.7133 11.8447 16.6723 12.1181 16.5604 12.3882C16.3081 12.9974 15.8241 13.4814 15.2149 13.7337C14.9448 13.8456 14.6714 13.8866 14.398 13.9053C14.1384 13.923 13.8247 13.923 13.4612 13.923H3.46327C3.09974 13.923 2.78608 13.923 2.52647 13.9053C2.25312 13.8866 1.97971 13.8456 1.7096 13.7337C1.1004 13.4814 0.616393 12.9974 0.364057 12.3882C0.252177 12.1181 0.211154 11.8447 0.192499 11.5713C0.174788 11.3117 0.174797 10.998 0.174805 10.6345V3.95156C0.174797 3.58803 0.174788 3.27436 0.192499 3.01475C0.211154 2.7414 0.252177 2.46799 0.364057 2.19788C0.616393 1.58869 1.1004 1.10467 1.7096 0.852338C1.97971 0.740458 2.25312 0.699435 2.52647 0.68078C2.78608 0.66307 3.09975 0.663078 3.46328 0.663086ZM2.09538 2.55077C2.39678 2.20632 2.92035 2.17142 3.26481 2.47281L7.91652 6.54302C8.22895 6.81643 8.69554 6.81643 9.00797 6.54302L13.6597 2.47281C14.0041 2.17142 14.5277 2.20632 14.8291 2.55077C15.1305 2.89523 15.0956 3.4188 14.7512 3.7202L10.0994 7.79045C9.16204 8.61066 7.76245 8.61066 6.82506 7.79045L2.17335 3.7202C1.82889 3.4188 1.79398 2.89523 2.09538 2.55077Z" fill="#aeaeae"/>
</svg>