<svg width="28" height="25" viewBox="0 0 28 25" fill="none" xmlns="http://www.w3.org/2000/svg">
<path d="M8.47237 4.36044H25.9726L23.5917 12.6938H9.75446M24.7821 17.4557H10.4964L8.11547 1.97949H4.54404M4.54404 7.93187H2.16309M5.73451 11.5033H2.16309M6.92499 15.0747H2.16309M11.6869 22.2176C11.6869 22.8751 11.1539 23.4081 10.4964 23.4081C9.83894 23.4081 9.30594 22.8751 9.30594 22.2176C9.30594 21.5601 9.83894 21.0271 10.4964 21.0271C11.1539 21.0271 11.6869 21.5601 11.6869 22.2176ZM24.7821 22.2176C24.7821 22.8751 24.2492 23.4081 23.5917 23.4081C22.9342 23.4081 22.4012 22.8751 22.4012 22.2176C22.4012 21.5601 22.9342 21.0271 23.5917 21.0271C24.2492 21.0271 24.7821 21.5601 24.7821 22.2176Z" stroke="black" stroke-width="2.38095" stroke-linecap="round" stroke-linejoin="round"/>
</svg>