<svg width="24" height="23" viewBox="0 0 24 23" fill="none" xmlns="http://www.w3.org/2000/svg">
<path d="M10.9548 7.31889C10.9548 6.74151 11.4228 6.27344 12.0002 6.27344C12.5776 6.27344 13.0457 6.74151 13.0457 7.31889V10.4553H16.182C16.7594 10.4553 17.2275 10.9233 17.2275 11.5007C17.2275 12.0781 16.7594 12.5462 16.182 12.5462H13.0457V15.6825C13.0457 16.2599 12.5776 16.728 12.0002 16.728C11.4228 16.728 10.9548 16.2599 10.9548 15.6825V12.5462H7.8184C7.24101 12.5462 6.77295 12.0781 6.77295 11.5007C6.77295 10.9233 7.24102 10.4553 7.8184 10.4553H10.9548V7.31889Z" fill="white"/>
<path fill-rule="evenodd" clip-rule="evenodd" d="M23.5 11.5C23.5 17.8512 18.3512 23 12 23C5.64873 23 0.5 17.8512 0.5 11.5C0.5 5.14873 5.64873 0 12 0C18.3512 0 23.5 5.14873 23.5 11.5ZM2.59805 11.5C2.59805 16.6926 6.80745 20.902 12 20.902C17.1926 20.902 21.402 16.6926 21.402 11.5C21.402 6.30745 17.1926 2.09805 12 2.09805C6.80745 2.09805 2.59805 6.30745 2.59805 11.5Z" fill="white"/>
</svg>