<svg width="16" height="18" viewBox="0 0 16 18" fill="none" xmlns="http://www.w3.org/2000/svg">
<path d="M14.3395 6.42904H12.7322V4.41997C12.7322 3.24772 12.2665 2.12348 11.4376 1.29458C10.6087 0.465674 9.48447 0 8.31222 0H7.50859C6.33635 0 5.21211 0.465674 4.3832 1.29458C3.5543 2.12348 3.08863 3.24772 3.08863 4.41997V6.42904H1.48136C1.26823 6.42904 1.06382 6.51371 0.913112 6.66442C0.762402 6.81513 0.677734 7.01954 0.677734 7.23267V16.8762C0.677734 17.0894 0.762402 17.2938 0.913112 17.4445C1.06382 17.5952 1.26823 17.6799 1.48136 17.6799H14.3395C14.5526 17.6799 14.757 17.5952 14.9077 17.4445C15.0584 17.2938 15.1431 17.0894 15.1431 16.8762V7.23267C15.1431 7.01954 15.0584 6.81513 14.9077 6.66442C14.757 6.51371 14.5526 6.42904 14.3395 6.42904ZM4.69589 4.41997C4.69589 3.67399 4.99223 2.95857 5.51971 2.43108C6.04719 1.9036 6.76262 1.60726 7.50859 1.60726H8.31222C9.0582 1.60726 9.77362 1.9036 10.3011 2.43108C10.8286 2.95857 11.1249 3.67399 11.1249 4.41997V6.42904H4.69589V4.41997ZM4.29407 13.2599C4.05566 13.2599 3.8226 13.1892 3.62436 13.0567C3.42613 12.9243 3.27162 12.736 3.18038 12.5158C3.08915 12.2955 3.06528 12.0531 3.11179 11.8193C3.1583 11.5855 3.27311 11.3707 3.44169 11.2021C3.61028 11.0335 3.82507 10.9187 4.0589 10.8722C4.29273 10.8257 4.53511 10.8495 4.75538 10.9408C4.97564 11.032 5.16391 11.1865 5.29636 11.3847C5.42882 11.583 5.49952 11.816 5.49952 12.0545C5.50513 12.2143 5.47779 12.3735 5.4192 12.5223C5.3606 12.6711 5.27201 12.8062 5.15894 12.9193C5.04586 13.0324 4.91072 13.121 4.76193 13.1796C4.61314 13.2382 4.45389 13.2655 4.29407 13.2599ZM7.91041 13.2599C7.67199 13.2599 7.43893 13.1892 7.2407 13.0567C7.04247 12.9243 6.88796 12.736 6.79672 12.5158C6.70548 12.2955 6.68161 12.0531 6.72813 11.8193C6.77464 11.5855 6.88945 11.3707 7.05803 11.2021C7.22661 11.0335 7.4414 10.9187 7.67524 10.8722C7.90907 10.8257 8.15145 10.8495 8.37171 10.9408C8.59198 11.032 8.78024 11.1865 8.9127 11.3847C9.04516 11.583 9.11586 11.816 9.11586 12.0545C9.12147 12.2143 9.09413 12.3735 9.03553 12.5223C8.97694 12.6711 8.88835 12.8062 8.77528 12.9193C8.6622 13.0324 8.52706 13.121 8.37827 13.1796C8.22948 13.2382 8.07022 13.2655 7.91041 13.2599ZM11.5267 13.2599C11.2883 13.2599 11.0553 13.1892 10.857 13.0567C10.6588 12.9243 10.5043 12.736 10.4131 12.5158C10.3218 12.2955 10.298 12.0531 10.3445 11.8193C10.391 11.5855 10.5058 11.3707 10.6744 11.2021C10.843 11.0335 11.0577 10.9187 11.2916 10.8722C11.5254 10.8257 11.7678 10.8495 11.988 10.9408C12.2083 11.032 12.3966 11.1865 12.529 11.3847C12.6615 11.583 12.7322 11.816 12.7322 12.0545C12.7378 12.2143 12.7105 12.3735 12.6519 12.5223C12.5933 12.6711 12.5047 12.8062 12.3916 12.9193C12.2785 13.0324 12.1434 13.121 11.9946 13.1796C11.8458 13.2382 11.6866 13.2655 11.5267 13.2599Z" fill="#aeaeae"/>
</svg>