<svg width="20" height="18" viewBox="0 0 24 22" fill="none" xmlns="http://www.w3.org/2000/svg">
<path d="M3.45456 0.624808C9.17939 0.617305 14.9042 0.626682 20.6291 0.620117C21.566 2.16669 22.5208 3.70387 23.439 5.26264C15.8459 5.27389 8.25276 5.26639 0.659668 5.26639C1.56941 3.70669 2.53356 2.17794 3.45456 0.624808Z" fill="currentColor"/>
<path d="M0.639794 6.11179C8.24227 6.10335 15.8457 6.10991 23.4482 6.10898C23.4472 11.0422 23.451 15.9755 23.4472 20.9088C23.4378 21.4537 22.9501 21.9348 22.4043 21.9339C15.4921 21.9339 8.57897 21.9339 1.66584 21.9339C1.09654 21.9179 0.624789 21.3805 0.637919 20.8178C0.634167 15.9155 0.631353 11.0132 0.639794 6.11179ZM11.1516 8.9048C11.1506 10.3182 11.1497 11.7316 11.1516 13.145C9.74194 13.1375 8.33137 13.1459 6.92173 13.1403C6.91704 13.7358 6.91517 14.3305 6.92454 14.926C8.33324 14.9213 9.74288 14.9269 11.1516 14.9232C11.1506 16.3441 11.1478 17.765 11.1535 19.1859C11.7499 19.1934 12.3464 19.1896 12.9439 19.1868C12.9457 17.7659 12.9439 16.346 12.9439 14.9251C14.3591 14.9213 15.7744 14.9269 17.1897 14.9232C17.1869 14.3276 17.1925 13.7321 17.1859 13.1365C15.7725 13.1497 14.3601 13.1384 12.9467 13.1412C12.9439 11.7269 12.9429 10.3135 12.9467 8.89918C12.3483 8.89918 11.749 8.8898 11.1516 8.9048Z" fill="currentColor"/>
</svg>