<svg width="29" height="31" viewBox="0 0 29 31" fill="none" xmlns="http://www.w3.org/2000/svg">
<path opacity="0.97" d="M0.92154 11.8783C0.92172 11.8998 0.921969 11.9212 0.922214 11.9422C0.922907 12.0016 0.923574 12.0589 0.922572 12.1121L0.922571 12.1144C0.921934 13.4061 0.922129 14.6974 0.922324 15.9887C0.922548 17.4642 0.922771 18.9396 0.921752 20.4155C0.921753 20.4153 0.921754 20.4152 0.921756 20.415L1.03241 20.4159C1.03208 19.0565 1.03214 17.6971 1.0322 16.3378C1.03226 14.93 1.03232 13.5222 1.03195 12.1144C1.03195 12.1143 1.03195 12.1143 1.03195 12.1142C1.03191 11.9875 1.03188 11.8609 1.03184 11.7343L0.92154 11.8783ZM0.92154 11.8783C0.921149 11.8314 0.921088 11.7837 0.922106 11.7359L0.92154 11.8783ZM1.03241 20.416L0.921752 20.4159L1.03241 20.416ZM1.03241 20.416C1.03253 20.8986 1.03269 21.3813 1.03293 21.8639M1.03241 20.416L0.92234 21.0497C0.923803 21.3195 0.925258 21.5877 0.920673 21.8571L1.03293 21.8639M1.03293 21.8639L0.920554 21.864C0.919616 21.9179 0.918434 21.9718 0.916961 22.0258C0.916675 22.0362 0.916378 22.0467 0.91607 22.0572L0.915071 22.0912L0.914798 22.1004L0.914053 22.1258L0.971031 22.164C0.981074 22.1708 0.991201 22.1775 1.0014 22.1841C1.03135 22.2037 1.06194 22.223 1.09293 22.2419C1.09305 22.242 1.09318 22.2421 1.0933 22.2422C1.18232 22.2966 1.27463 22.3488 1.36453 22.3996C1.44286 22.4439 1.51935 22.4871 1.59023 22.5299L1.59234 22.5311L3.2174 23.4695L4.84245 24.4079L4.84243 24.4079L4.84459 24.4091C4.92095 24.4512 5.00035 24.4981 5.08163 24.5461C5.21159 24.6229 5.34635 24.7026 5.48108 24.7698M1.03293 21.8639C1.03166 21.8847 1.0325 21.9062 1.03334 21.9279C1.034 21.9447 1.03466 21.9616 1.03433 21.9783C1.0235 21.9769 1.01217 21.9761 1.00034 21.9762L1.00077 22.0597L1.00093 22.0911L1.00093 22.0912L1.00098 22.1004C1.00138 22.1004 1.00179 22.1004 1.0022 22.1004C1.00597 22.1005 1.00968 22.1007 1.01333 22.101C1.01345 22.101 1.01357 22.101 1.01369 22.101L1.09906 22.1675C1.1047 22.1602 1.10981 22.1529 1.11444 22.1455C1.12293 22.151 1.13141 22.1563 1.13998 22.1613L1.63883 22.4494L1.63935 22.4497L4.88931 24.3267L4.88984 24.327L5.44774 24.6492C5.44775 24.6582 5.44775 24.6671 5.44776 24.6761L5.48108 24.6761V24.6845V24.6947V24.705V24.7698M5.48108 24.7698C5.49343 24.776 5.50578 24.782 5.51813 24.788L5.54885 24.8028L5.69649 24.8739L5.69642 24.7928L10.0065 27.2821C10.0065 27.2941 10.0065 27.3062 10.0065 27.3183L10.0388 27.3183C10.0388 27.3244 10.0388 27.3306 10.0388 27.3368L10.0388 27.4085L10.0687 27.4258L10.1009 27.4444L10.0687 27.4259C8.55983 26.5552 7.0515 25.684 5.54319 24.8126L5.48108 24.7767V24.7698ZM10.0064 27.1385C10.0065 27.1745 10.0065 27.2105 10.0065 27.2465C8.56948 26.4172 7.13293 25.5875 5.6964 24.7575L5.69636 24.705H5.72965V24.6947V24.6845V24.6743V24.6685M10.0064 27.1385L10.0387 27.1571C10.0387 27.1453 10.0387 27.1334 10.0387 27.1216M10.0064 27.1385C10.0064 27.1266 10.0064 27.1148 10.0064 27.1029C10.0172 27.1091 10.028 27.1153 10.0387 27.1216M10.0064 27.1385L5.72965 24.6685M10.0387 27.1216C10.0694 27.1393 10.1001 27.157 10.1307 27.1747C10.1305 26.5821 10.1307 25.9896 10.131 25.3971C10.1314 24.3432 10.1318 23.2893 10.1293 22.2354C10.1197 22.2299 10.1102 22.2245 10.1006 22.219L10.1183 22.1881L10.083 22.1677L10.067 22.1956C10.0573 22.1901 10.0477 22.1845 10.038 22.179M10.0387 27.1216C10.0386 26.5295 10.0387 25.9375 10.0388 25.3455C10.039 24.29 10.0391 23.2345 10.038 22.179M10.038 22.179C10.038 22.1665 10.038 22.1541 10.038 22.1417L10.0047 22.1225M10.038 22.179C10.027 22.1726 10.0159 22.1663 10.0048 22.1599C10.0048 22.1474 10.0048 22.1349 10.0047 22.1225M10.0047 22.1225C10.0047 22.111 10.0047 22.0996 10.0046 22.0882L10.0379 22.0881L10.0379 22.0355C9.22724 21.5693 8.41752 21.1013 7.60778 20.6334C7.50767 20.5755 7.40756 20.5176 7.30745 20.4598C7.3074 20.4598 7.30736 20.4597 7.30732 20.4597C6.78158 20.1559 6.25577 19.8521 5.72965 19.549V19.559V19.5693V19.5795V19.5897V19.5999V19.6101V19.6203V19.6305V19.6407V19.6509V19.6512M10.0047 22.1225L7.26206 20.5384L7.26161 20.5381C7.0469 20.4129 6.83042 20.2885 6.61353 20.1638C6.31848 19.9942 6.0227 19.8242 5.72965 19.6512M5.72965 19.6512C5.71805 19.6444 5.70645 19.6375 5.69486 19.6307C5.69486 19.6446 5.69485 19.6585 5.69485 19.6724M5.72965 19.6512V19.6612V19.6714V19.6816V19.6918V19.6924C5.71805 19.6857 5.70645 19.679 5.69485 19.6724M5.69485 19.6724C5.66502 19.6552 5.63519 19.638 5.60537 19.6208V24.554C5.61221 24.5574 5.61907 24.5607 5.62597 24.564L5.60916 24.5989L5.65225 24.6238L5.66754 24.5973C5.67712 24.6029 5.6867 24.6084 5.69629 24.6139M5.69485 19.6724C5.69479 21.3195 5.69502 22.9667 5.69629 24.6139M5.69629 24.6139C5.69629 24.6257 5.6963 24.6375 5.69631 24.6493L5.72965 24.6685M5.69629 24.6139C5.70741 24.6204 5.71853 24.6268 5.72965 24.6332V24.6335V24.6437V24.6539V24.6641V24.6685M5.48108 19.5034L5.48138 19.5036L5.48142 19.6323L5.55335 19.5908C5.55909 19.5941 5.56483 19.5974 5.57057 19.6008C5.57049 21.2463 5.57071 22.8918 5.57194 24.5373C5.54126 24.5218 5.51103 24.5058 5.48108 24.4895M5.48108 19.5034V19.4978V19.4876V19.4774V19.3823M5.48108 19.5034L5.44629 19.4826C5.44629 19.4558 5.44629 19.429 5.4463 19.4022L5.48108 19.3823M5.48108 19.5034V19.508V19.5182V19.5284V19.5386V19.5488V19.559V19.5693V19.5795V19.5897V19.5999V19.6101V19.6203V19.6305V19.6407V19.6509V19.6612V19.6714V19.6816V19.6918V19.702V19.7122V19.7224V19.7326V19.7428V19.753V19.7633V19.7735V19.7837V19.7939V19.8041V19.8143V19.8245V19.8347V19.8449V19.8552V19.8654V19.8756V19.8858V19.896V19.9062V19.9164V19.9266V19.9368V19.947V19.9573V19.9675V19.9777V19.9879V19.9981V20.0083V20.0185V20.0287V20.0389V20.0492V20.0594V20.0696V20.0798V20.09V20.1002V20.1104V20.1206V20.1308V20.141V20.1513V20.1615V20.1717V20.1819V20.1921V20.2023V20.2125V20.2227V20.2329V20.2431V20.2534V20.2636V20.2738V20.284V20.2942V20.3044V20.3146V20.3248V20.335V20.3452V20.3555V20.3657V20.3759V20.3861V20.3963V20.4065V20.4167V20.4269V20.4371V20.4474V20.4576V20.4678V20.478V20.4882V20.4984V20.5086V20.5188V20.529V20.5392V20.5495V20.5597V20.5699V20.5801V20.5903V20.6005V20.6107V20.6209V20.6311V20.6413V20.6516V20.6618V20.672V20.6822V20.6924V20.7026V20.7128V20.723V20.7332V20.7434V20.7537V20.7639V20.7741V20.7843V20.7945V20.8047V20.8149V20.8251V20.8353V20.8455V20.8558V20.866V20.8762V20.8864V20.8966V20.9068V20.917V20.9272V20.9374V20.9476V20.9579V20.9681V20.9783V20.9885V20.9987V21.0089V21.0191V21.0293V21.0395V21.0497V21.06V21.0702V21.0804V21.0906V21.1008V21.111V21.1212V21.1314V21.1416V21.1518V21.1621V21.1723V21.1825V21.1927V21.2029V21.2131V21.2233V21.2335V21.2437V21.2539V21.2642V21.2744V21.2846V21.2948V21.305V21.3152V21.3254V21.3356V21.3458V21.356V21.3663V21.3765V21.3867V21.3969V21.4071V21.4173V21.4275V21.4377V21.4479V21.4581V21.4684V21.4786V21.4888V21.499V21.5092V21.5194V21.5296V21.5398V21.55V21.5602V21.5705V21.5807V21.5909V21.6011V21.6113V21.6215V21.6317V21.6419V21.6521V21.6623V21.6726V21.6828V21.693V21.7032V21.7134V21.7236V21.7338V21.744V21.7542V21.7644V21.7747V21.7849V21.7951V21.8053V21.8155V21.8257V21.8359V21.8461V21.8563V21.8665V21.8768V21.887V21.8972V21.9074V21.9176V21.9278V21.938V21.9482V21.9584V21.9686V21.9788V21.9891V21.9993V22.0095V22.0197V22.0299V22.0401V22.0503V22.0605V22.0707V22.0809V22.0912V22.1014V22.1116V22.1218V22.132V22.1422V22.1524V22.1626V22.1728V22.183V22.1933V22.2035V22.2137V22.2239V22.2341V22.2443V22.2545V22.2647V22.2749V22.2851V22.2954V22.3056V22.3158V22.326V22.3362V22.3464V22.3566V22.3668V22.377V22.3872V22.3975V22.4077V22.4179V22.4281V22.4383V22.4485V22.4587V22.4689V22.4791V22.4893V22.4996V22.5098V22.52V22.5302V22.5404V22.5506V22.5608V22.571V22.5812V22.5914V22.6017V22.6119V22.6221V22.6323V22.6425V22.6527V22.6629V22.6731V22.6833V22.6935V22.7038V22.714V22.7242V22.7344V22.7446V22.7548V22.765V22.7752V22.7854V22.7956V22.8058V22.8161V22.8263V22.8365V22.8467V22.8569V22.8671V22.8773V22.8875V22.8977V22.9079V22.9182V22.9284V22.9386V22.9488V22.959V22.9692V22.9794V22.9896V22.9998V23.01V23.0203V23.0305V23.0407V23.0509V23.0611V23.0713V23.0815V23.0917V23.1019V23.1121V23.1224V23.1326V23.1428V23.153V23.1632V23.1734V23.1836V23.1938V23.204V23.2142V23.2245V23.2347V23.2449V23.2551V23.2653V23.2755V23.2857V23.2959V23.3061V23.3163V23.3266V23.3368V23.347V23.3572V23.3674V23.3776V23.3878V23.398V23.4082V23.4184V23.4287V23.4389V23.4491V23.4593V23.4695V23.4797V23.4899V23.5001V23.5103V23.5205V23.5308V23.541V23.5512V23.5614V23.5716V23.5818V23.592V23.6022V23.6124V23.6227V23.6329V23.6431V23.6533V23.6635V23.6737V23.6839V23.6941V23.7043V23.7145V23.7248V23.735V23.7452V23.7554V23.7656V23.7758V23.786V23.7962V23.8064V23.8166V23.8269V23.8371V23.8473V23.8575V23.8677V23.8779V23.8881V23.8983V23.9085V23.9187V23.929V23.9392V23.9494V23.9596V23.9698V23.98V23.9902V24.0004V24.0106V24.0209V24.0311V24.0413V24.0515V24.0617V24.0719V24.0821V24.0923V24.1025V24.1127V24.123V24.1332V24.1434V24.1536V24.1638V24.174V24.1842V24.1944V24.2046V24.2148V24.2251V24.2353V24.2455V24.2557V24.2659V24.2761V24.2863V24.2965V24.3067V24.317V24.3272V24.3374V24.3476V24.3578V24.368V24.3782V24.3884V24.3986V24.4088V24.4191V24.4293V24.4395V24.4497V24.4599V24.4701V24.4803V24.4895M5.48108 19.3823L5.48134 19.3821C5.48133 19.3422 5.48132 19.3023 5.48131 19.2625M5.48108 19.3823V19.2623L5.48131 19.2625M5.48131 19.2625L5.55335 19.304C5.5591 19.3007 5.56484 19.2973 5.57059 19.294C5.57063 18.7112 5.5707 18.1284 5.57077 17.5456C5.5709 16.4618 5.57103 15.3779 5.57096 14.294L5.52595 14.2679L5.50867 14.2978C5.49948 14.2925 5.49029 14.2871 5.48109 14.2818M5.48131 19.2625C5.48105 18.3186 5.48109 17.3747 5.48113 16.4307C5.48116 15.7144 5.48119 14.9981 5.48109 14.2818M5.48109 14.2818C5.48109 14.2685 5.48109 14.2553 5.48109 14.242C5.46962 14.2354 5.45814 14.2288 5.44667 14.2221M5.48109 14.2818C5.46962 14.2752 5.45815 14.2685 5.44667 14.2619C5.44667 14.2486 5.44667 14.2354 5.44667 14.2221M5.44667 14.2221C5.44667 14.2115 5.44667 14.2009 5.44667 14.1902L5.48108 14.1902C5.48108 14.1901 5.48108 14.1899 5.48108 14.1897L5.48107 14.1382C4.04617 13.3074 2.61029 12.4788 1.17414 11.6503C1.17196 11.6842 1.17077 11.7176 1.17019 11.7512M5.44667 14.2221C4.91464 13.9146 4.38237 13.6073 3.85007 13.3C2.95653 12.7842 2.06291 12.2684 1.17019 11.7512M1.17019 11.7512C1.1655 11.7485 1.16081 11.7457 1.15613 11.743C1.15613 11.7565 1.15613 11.77 1.15614 11.7834M1.17019 11.7512C1.16997 11.7645 1.16983 11.7779 1.16978 11.7913M1.15614 11.7834C1.12679 11.7665 1.09744 11.7496 1.06809 11.7326C1.06751 11.7323 1.06692 11.732 1.06633 11.7316C1.05979 11.7278 1.05324 11.7241 1.04669 11.7203C1.04658 11.7243 1.04648 11.7282 1.04639 11.7322C1.04638 11.7324 1.04638 11.7325 1.04638 11.7326C1.04485 11.7985 1.04566 11.8644 1.04648 11.9304C1.04723 11.9918 1.04799 12.0532 1.04686 12.1144M1.15614 11.7834C1.15617 11.8938 1.1562 12.0041 1.15623 12.1145M1.15614 11.7834C1.16069 11.7861 1.16523 11.7887 1.16978 11.7913M1.04686 12.1144C1.04622 13.4058 1.04641 14.6972 1.04661 15.9885C1.04683 17.4643 1.04706 18.9401 1.04604 20.416C1.04437 20.6256 1.04549 20.8354 1.04662 21.0452C1.04808 21.3182 1.04955 21.5912 1.04485 21.8639C1.04485 21.8642 1.04484 21.8644 1.04484 21.8647C1.04418 21.903 1.04339 21.9413 1.04247 21.9796C1.05854 21.9823 1.07342 21.9864 1.08705 21.9912L1.10957 21.9577C1.12582 21.9686 1.14207 21.9792 1.15834 21.9897M1.04686 12.1144L1.15623 12.1165M1.04686 12.1144L1.15623 12.1145M1.15834 21.9897C1.15795 22.0006 1.15716 22.0124 1.15566 22.0247C1.15909 22.0268 1.16237 22.0288 1.16549 22.0308M1.15834 21.9897C1.16104 21.9914 1.16373 21.9932 1.16642 21.9949C1.16612 22.0068 1.16581 22.0188 1.16549 22.0308M1.15834 21.9897C1.15841 21.988 1.15846 21.9864 1.1585 21.9848C1.1591 21.9627 1.15822 21.9405 1.15754 21.9231L1.15732 21.9174C1.15655 21.8974 1.15625 21.8835 1.15698 21.8716L1.15722 21.8716L1.15721 21.8639C1.15698 21.3815 1.15681 20.8992 1.1567 20.4169C1.1567 20.4166 1.1567 20.4163 1.1567 20.4161C1.15636 19.0566 1.15642 17.6973 1.15648 16.3379C1.15655 14.9308 1.15661 13.5237 1.15623 12.1165M1.16549 22.0308C1.16518 22.042 1.16486 22.0533 1.16453 22.0645L1.14857 22.064C1.14423 22.0818 1.13807 22.1001 1.12934 22.1184C1.13802 22.1238 1.14672 22.1292 1.15544 22.1346L1.20214 22.0537L1.20239 22.0539C1.1956 22.0499 1.18901 22.0457 1.18014 22.04L1.1739 22.0361C1.17127 22.0344 1.16846 22.0326 1.16549 22.0308ZM1.15623 12.1165L1.17112 12.1167C1.17113 12.1164 1.17113 12.116 1.17114 12.1156C1.1724 12.0462 1.17155 11.9814 1.17073 11.9189C1.17016 11.8755 1.1696 11.8332 1.16978 11.7913M1.15623 12.1165C1.15623 12.1158 1.15623 12.1151 1.15623 12.1145M1.16978 11.7913L1.15623 12.1145M5.48108 24.4895C5.46989 24.4834 5.45873 24.4773 5.44761 24.4711C5.44762 24.4826 5.44762 24.4941 5.44763 24.5056M5.48108 24.4895V24.4905V24.5007V24.511V24.5212V24.525L5.44763 24.5056M5.44763 24.5056L4.95147 24.2191M5.44763 24.5056C5.44766 24.5413 5.44769 24.577 5.44771 24.6126C5.34816 24.5593 5.25057 24.5016 5.15299 24.4438C5.07059 24.3951 4.98819 24.3463 4.9046 24.3002M4.95147 24.2191L4.96676 24.1926L4.96567 24.192C4.96532 24.1918 4.96496 24.1916 4.96461 24.1914L4.94985 24.2181M4.95147 24.2191L4.94985 24.2181M4.95147 24.2191L4.9046 24.3002M4.94985 24.2181L1.7031 22.343M4.94985 24.2181L4.9046 24.3002M1.7031 22.343L1.71875 22.3171C1.71841 22.3169 1.71806 22.3167 1.71772 22.3165L1.71665 22.3159L1.7015 22.3421M1.7031 22.343L1.7015 22.3421M1.7031 22.343L1.65449 22.4235M1.7015 22.3421L1.20265 22.054L1.15557 22.1346C1.24162 22.1875 1.32979 22.2372 1.41797 22.287C1.49731 22.3317 1.57666 22.3765 1.65449 22.4235M1.7015 22.3421L1.65449 22.4235M1.65449 22.4235L4.9046 24.3002M5.55355 14.0365C5.54431 14.0419 5.53507 14.0472 5.52583 14.0525L5.54295 14.0822L5.49799 14.1082C4.96942 13.8027 4.44069 13.4975 3.91197 13.1923C3.00401 12.6681 2.09608 12.144 1.189 11.6184C1.21865 11.6012 1.2483 11.584 1.27795 11.5667M5.55355 14.0365C5.56493 14.0431 5.57632 14.0497 5.5877 14.0563C5.59917 14.0497 5.61063 14.043 5.6221 14.0364M5.55355 14.0365C5.56502 14.0299 5.5765 14.0233 5.58798 14.0167C5.59935 14.0233 5.61072 14.0298 5.6221 14.0364M5.55355 14.0365C4.12905 13.2118 2.7036 12.3892 1.27795 11.5667M5.6221 14.0364C5.63143 14.0418 5.64076 14.0472 5.65009 14.0526L5.63283 14.0824C5.63297 14.0825 5.6331 14.0826 5.63323 14.0827L5.6777 14.1084C6.24174 13.7833 6.80538 13.4574 7.36902 13.1316C8.24208 12.6269 9.11515 12.1222 9.98972 11.62L9.98952 11.6196C9.95894 11.602 9.92836 11.5843 9.89778 11.5666M5.6221 14.0364C6.95742 13.2637 8.29359 12.4925 9.62977 11.7213C9.7191 11.6698 9.80844 11.6182 9.89778 11.5666M9.89778 11.5666C9.90953 11.5598 9.92128 11.5531 9.93303 11.5463C9.92212 11.5402 9.91123 11.5341 9.90033 11.528M9.89778 11.5666C9.88703 11.5604 9.87628 11.5542 9.86554 11.548C9.87714 11.5413 9.88873 11.5347 9.90033 11.528M9.90033 11.528C9.93027 11.5108 9.9602 11.4936 9.99014 11.4765C9.68168 11.2982 9.37321 11.12 9.06474 10.9418C9.06468 10.9417 9.06463 10.9417 9.06457 10.9417C7.9355 10.2893 6.80633 9.63709 5.6767 8.98548L5.63705 9.00871C5.63522 9.00978 5.63338 9.01086 5.63155 9.01194L5.6482 9.04073C5.63794 9.04667 5.62768 9.0526 5.61742 9.05854M9.90033 11.528C9.73581 11.4359 9.57213 11.3405 9.40956 11.2457C9.27892 11.1696 9.14901 11.0939 9.01996 11.0206L9.01932 11.0203C8.57698 10.7657 8.13548 10.5103 7.69411 10.2549C7.0025 9.85483 6.31119 9.45491 5.61742 9.05854M5.61742 9.05854C5.60637 9.05223 5.59532 9.04592 5.58428 9.03961C5.57394 9.04566 5.5636 9.05171 5.55326 9.05776M5.61742 9.05854C5.60696 9.06458 5.59651 9.07063 5.58606 9.07667C5.57513 9.07037 5.56419 9.06406 5.55326 9.05776M5.55326 9.05776C5.54347 9.05211 5.53367 9.04646 5.52388 9.04081L5.53936 9.01396L5.49249 8.98721C4.98217 9.2823 4.47155 9.57691 3.96092 9.87154C3.63852 10.0576 3.31611 10.2436 2.99378 10.4297C2.99373 10.4297 2.99368 10.4298 2.99364 10.4298C2.39166 10.7774 1.78993 11.1255 1.1889 11.4747C1.219 11.4922 1.2491 11.5096 1.27921 11.5271M5.55326 9.05776C5.04485 9.35511 4.53403 9.64956 4.02365 9.94376C3.6957 10.1328 3.36793 10.3217 3.04108 10.5113L3.04049 10.5116C2.79012 10.655 2.53974 10.8003 2.28901 10.9457C1.95328 11.1405 1.61693 11.3357 1.27921 11.5271M1.27921 11.5271C1.26743 11.5337 1.25565 11.5404 1.24387 11.5471C1.25523 11.5536 1.26659 11.5602 1.27795 11.5667M1.27921 11.5271C1.2904 11.5335 1.30158 11.54 1.31277 11.5465C1.30117 11.5533 1.28956 11.56 1.27795 11.5667M1.15452 11.4548C1.51292 11.2523 1.86902 11.0457 2.22515 10.8391C2.47606 10.6935 2.72698 10.5479 2.97873 10.4038C3.3062 10.2139 3.63421 10.0248 3.96223 9.83571C4.47019 9.5429 4.97819 9.25008 5.48423 8.95415L5.48355 8.91193L1.15452 11.4548ZM1.15452 11.4548C1.14551 11.4496 1.13649 11.4444 1.12748 11.4391L1.11963 11.4527L1.15452 11.4548ZM5.69873 8.96185C6.38612 9.35467 7.0715 9.75116 7.75684 10.1476C8.19817 10.4029 8.63949 10.6582 9.08132 10.9125M5.69873 8.96185L5.60304 5.24691C5.60304 4.77151 5.60304 4.29611 5.60294 3.82071C5.63352 3.83837 5.6641 3.85604 5.69468 3.8737M5.69873 8.96185L5.69854 8.90848L5.73209 8.90794C5.73191 8.89651 5.73173 8.88507 5.73156 8.87364M5.69873 8.96185L5.69836 8.85449M9.08132 10.9125C9.21309 10.9874 9.34408 11.0637 9.47509 11.1401C9.65183 11.2431 9.82859 11.3461 10.0073 11.4454C10.0073 11.4112 10.0072 11.377 10.0072 11.3428M9.08132 10.9125L9.12611 10.8337M9.08132 10.9125L9.12657 10.8339M10.0072 11.3428C10.0178 11.3489 10.0284 11.355 10.039 11.3611C10.039 11.3477 10.039 11.3342 10.039 11.3208M10.0072 11.3428C10.0072 11.3295 10.0072 11.3162 10.0072 11.303C10.0178 11.3089 10.0284 11.3149 10.039 11.3208M10.0072 11.3428C9.71367 11.1732 9.42012 11.0035 9.12657 10.8339M10.039 11.3208C10.0697 11.338 10.1006 11.355 10.1315 11.372C10.1307 10.3557 10.1308 9.33952 10.1309 8.3233C10.131 7.69432 10.131 7.06534 10.1309 6.43633C10.1209 6.43059 10.111 6.42486 10.101 6.41912L10.1178 6.38999C10.107 6.38375 10.0962 6.3775 10.0854 6.37126L10.0686 6.40019C10.0587 6.39443 10.0487 6.38868 10.0388 6.38292M10.039 11.3208C10.0389 10.95 10.0389 10.5791 10.0388 10.2083C10.0387 8.93323 10.0385 7.65812 10.0388 6.38292M10.0388 6.38292C10.0388 6.37006 10.0388 6.3572 10.0388 6.34434C10.028 6.33814 10.0173 6.33194 10.0066 6.32574M10.0388 6.38292C10.028 6.37672 10.0173 6.37051 10.0066 6.36431C10.0066 6.35145 10.0066 6.3386 10.0066 6.32574M10.0066 6.32574C10.0065 6.3147 10.0065 6.30366 10.0065 6.29263L10.0388 6.29262L10.0388 6.23938C9.14029 5.72 8.24152 5.20099 7.34269 4.68195C6.80419 4.37099 6.26568 4.06002 5.7272 3.74896L5.72721 3.85327M10.0066 6.32574C9.40912 5.9806 8.81171 5.6354 8.21431 5.2902C7.3853 4.81117 6.55629 4.33214 5.72721 3.85327M5.72721 3.85327C5.71631 3.84698 5.70541 3.84068 5.69451 3.83439C5.69457 3.84749 5.69462 3.8606 5.69468 3.8737M5.72721 3.85327L5.72721 3.8925C5.71637 3.88623 5.70552 3.87997 5.69468 3.8737M5.69468 3.8737C5.6982 4.74112 5.69757 5.61005 5.69693 6.47863C5.69685 6.59118 5.69677 6.70372 5.6967 6.81626M5.6967 6.81626L5.72747 6.81612C5.72747 6.8162 5.72747 6.81627 5.72747 6.81634V6.81663L5.6967 6.81663M5.6967 6.81626C5.6967 6.81638 5.6967 6.81651 5.6967 6.81663M5.6967 6.81626L5.6967 6.81663M9.12657 10.8339L9.14332 10.8048C9.14323 10.8048 9.14314 10.8047 9.14304 10.8047C9.14292 10.8046 9.14281 10.8045 9.14269 10.8045L9.12611 10.8337M9.12657 10.8339C9.12641 10.8338 9.12626 10.8338 9.12611 10.8337M9.12611 10.8337C7.99483 10.18 6.86343 9.52654 5.73156 8.87364M5.73156 8.87364C5.73137 8.86148 5.7312 8.84932 5.73103 8.83717C5.7201 8.83093 5.70917 8.82469 5.69825 8.81845M5.73156 8.87364C5.72049 8.86726 5.70943 8.86088 5.69836 8.85449M5.69825 8.81845C5.69615 8.15209 5.69626 7.48453 5.6967 6.81663M5.69825 8.81845C5.69828 8.83046 5.69832 8.84248 5.69836 8.85449M5.69825 8.81845C5.68864 8.81296 5.67904 8.80748 5.66944 8.802L5.65406 8.82894C5.65206 8.82779 5.65007 8.82664 5.64807 8.82549L5.60624 8.80136L5.69836 8.85449M10.1005 0.875714L10.0955 0.92492L10.0945 0.925481L10.0801 0.899377C9.77371 1.06844 9.46935 1.24534 9.16642 1.4214C8.98205 1.52855 8.7982 1.6354 8.61476 1.73999L8.61413 1.74035C8.18602 1.98777 7.75776 2.23504 7.3295 2.48231C6.75361 2.81482 6.1777 3.14734 5.60208 3.48025C5.58677 3.4889 5.57089 3.49708 5.55402 3.50538L5.47857 3.46179L5.47859 3.54139L5.44464 3.55748L5.44488 3.60627L5.37225 3.64827L5.44529 3.69045C5.44973 4.6203 5.44904 5.54828 5.44836 6.47665C5.44779 7.26048 5.44721 8.04459 5.44971 8.83035C4.93461 9.13174 4.41791 9.42958 3.90083 9.72764C3.5728 9.91673 3.24462 10.1059 2.91661 10.2961C2.66359 10.441 2.41226 10.5868 2.1613 10.7324C1.79896 10.9427 1.4374 11.1525 1.07266 11.3583L1.04666 11.3061L0.979086 11.3943L0.950299 11.3777L0.945131 11.43C0.943496 11.431 0.94186 11.4319 0.940224 11.4328L0.876691 11.4684V11.5125L0.817605 11.5468L0.876691 11.5811V11.9369L0.907602 11.8965C0.908042 13.3768 0.907977 14.8572 0.907912 16.3377C0.907831 18.1787 0.907749 20.0197 0.908641 21.8605C0.907386 21.8849 0.90822 21.9085 0.908926 21.9269L0.909119 21.932C0.909846 21.9508 0.910382 21.9647 0.91002 21.9781C0.909261 22.0062 0.904592 22.0126 0.902894 22.0148L0.876691 22.0485V22.0912V22.1004V22.2254L1.00135 22.2247C1.00248 22.2249 1.00661 22.226 1.01552 22.2308C1.02233 22.2344 1.02992 22.2391 1.04058 22.2459C1.04208 22.2468 1.04369 22.2478 1.04538 22.2489C1.05438 22.2547 1.06586 22.262 1.07732 22.2687L1.07782 22.269L11.7042 28.4061C12.0796 28.6241 12.4552 28.8404 12.8305 29.0566C13.4196 29.3959 14.0082 29.7348 14.5944 30.0795L14.5942 30.1636L14.667 30.1222L14.7045 30.1443L14.7406 30.1229L14.8115 30.1638L14.8116 30.081C15.2626 29.8149 15.7157 29.5542 16.1695 29.2932C16.4576 29.1275 16.746 28.9616 17.0343 28.794C18.603 27.8879 20.1719 26.982 21.7407 26.0762C23.9802 24.7831 26.2197 23.4901 28.4587 22.196L28.5207 22.1602L28.5208 22.0886C28.5219 21.4254 28.5213 20.7626 28.5207 20.1C28.5198 19.0183 28.5189 17.9371 28.5249 16.8556L28.5957 16.8147L28.5254 16.7738L28.5256 16.7301L28.4899 16.7113L28.4899 16.6297L28.4163 16.6721C28.3405 16.6309 28.2675 16.5881 28.1926 16.5443C28.1392 16.5131 28.0849 16.4814 28.0281 16.4492C26.6654 15.6606 25.3025 14.8733 23.9397 14.086C22.4276 13.2126 20.9155 12.3392 19.404 11.4639C19.406 10.7418 19.4053 10.0205 19.4046 9.29954C19.4037 8.30828 19.4027 7.31755 19.4087 6.32589L19.479 6.2855L19.4092 6.24414L19.4095 6.1981L19.374 6.17829L19.374 6.096L19.3016 6.13776C18.937 5.93331 18.5763 5.72414 18.2148 5.51446C17.9834 5.3803 17.7517 5.24593 17.5184 5.11244C15.8369 4.14214 14.1558 3.17132 12.4747 2.2005C11.7844 1.80187 11.0941 1.40323 10.4038 1.00463L10.4945 0.954593L10.2181 0.897409C10.2152 0.895728 10.2123 0.894048 10.2094 0.892368L10.1805 0.875714H10.1472H10.1005ZM0.907551 11.7327C0.907551 11.7332 0.907551 11.7338 0.907551 11.7343L0.927803 11.6107C0.924809 11.651 0.923091 11.6918 0.922177 11.7327L0.907551 11.7327ZM9.31799 1.65616C9.59506 1.49522 9.87106 1.33488 10.1507 1.17871C11.7921 2.12945 13.435 3.07759 15.0778 4.02571C15.8764 4.48658 16.675 4.94745 17.4734 5.4086C17.6848 5.53142 17.8961 5.65295 18.1073 5.77433C18.4006 5.943 18.6935 6.11138 18.9851 6.28247C17.9021 6.9047 16.8205 7.52973 15.7392 8.15464C15.395 8.35353 15.0509 8.5524 14.7067 8.75116C12.5831 7.52755 10.461 6.30131 8.33872 5.075C7.51556 4.59935 6.69237 4.12368 5.86907 3.64816C6.41307 3.33371 6.95716 3.01956 7.5013 2.70538C7.92213 2.4624 8.343 2.2194 8.76387 1.97623C8.94994 1.86996 9.1342 1.76293 9.31799 1.65616ZM10.2874 10.2081C10.2872 8.98092 10.2871 7.7537 10.2873 6.5265C10.9287 6.89626 11.57 7.26684 12.2114 7.63745C13.0146 8.10153 13.8178 8.56565 14.6213 9.02829L14.6382 9.03804L14.6574 9.04213L14.6931 9.04977L14.74 9.0598L14.7815 9.0357C15.9504 8.35665 17.1215 7.68156 18.2929 7.00634C18.5704 6.84635 18.848 6.68636 19.1255 6.52631C19.1257 9.92955 19.1251 13.3327 19.122 16.7357C18.3056 17.2057 17.4896 17.6768 16.6738 18.148C16.1071 18.4752 15.5405 18.8024 14.9738 19.1291C14.9295 19.1514 14.8853 19.179 14.8474 19.2026C14.8355 19.21 14.8243 19.217 14.8139 19.2234C14.7702 19.2499 14.7335 19.2696 14.6979 19.2816C14.0285 18.8936 13.359 18.5073 12.6896 18.1211C11.8881 17.6586 11.0867 17.1962 10.286 16.7312C10.288 14.5569 10.2877 12.3825 10.2874 10.2081ZM9.75455 11.9363L10.0065 11.7909C10.0064 12.3186 10.0065 12.8464 10.0067 13.374C10.007 14.4942 10.0073 15.6142 10.0053 16.7343C9.2444 17.1725 8.4831 17.6124 7.72191 18.0522C7.0577 18.436 6.39358 18.8197 5.72986 19.2023C5.72962 18.2785 5.72966 17.3547 5.7297 16.4308C5.72973 15.7077 5.72977 14.9845 5.72966 14.2614C7.07067 13.4854 8.41253 12.7109 9.75455 11.9363ZM6.7342 19.9464C6.44529 19.7804 6.15709 19.6148 5.87027 19.4456C6.64537 19.0007 7.41972 18.553 8.19388 18.1055C8.84489 17.7291 9.49576 17.3528 10.1468 16.9783C13.0919 18.6792 16.0369 20.3797 18.9828 22.0796C17.9038 22.7037 16.8241 23.3266 15.7444 23.9495C15.3977 24.1495 15.0509 24.3496 14.7041 24.5497L11.0763 22.4543L7.38684 20.3234C7.38673 20.3233 7.38662 20.3232 7.38651 20.3232C7.16886 20.1962 6.95133 20.0712 6.7342 19.9464ZM10.2867 22.3254C10.759 22.5957 11.2297 22.8681 11.7008 23.1406C12.0238 23.3274 12.3468 23.5144 12.6706 23.7007C12.9187 23.845 13.1668 23.9878 13.4147 24.1305C13.799 24.3517 14.1827 24.5726 14.5646 24.7979C14.5627 25.8102 14.563 26.8229 14.5633 27.8354C14.5635 28.4684 14.5637 29.1013 14.5633 29.7341C13.2827 28.9968 12.0035 28.2572 10.7243 27.5177C10.5786 27.4335 10.433 27.3493 10.2873 27.265C10.2871 26.6253 10.2872 25.9855 10.2873 25.3457C10.2875 24.3389 10.2877 23.3321 10.2867 22.3254ZM26.0263 15.6142C26.718 16.0137 27.4095 16.4132 28.1001 16.8142C26.6519 17.6517 25.2031 18.4881 23.7543 19.3245L23.746 19.3293C22.2531 20.1912 20.7602 21.053 19.268 21.9161C18.504 21.4789 17.7447 21.0401 16.9852 20.601C16.3208 20.2169 15.6561 19.8327 14.9877 19.4494C15.4325 19.1881 15.8793 18.9312 16.3267 18.6739C16.6408 18.4933 16.9552 18.3125 17.2694 18.13C18.2832 17.5459 19.2955 16.9604 20.3076 16.375C21.4806 15.6966 22.6535 15.0182 23.8284 14.3423C24.5549 14.7642 25.2823 15.1844 26.0096 15.6045L26.0263 15.6142ZM20.9323 12.6707C21.8018 13.1734 22.6716 13.6763 23.5428 14.1766C22.4445 14.8159 21.3437 15.4511 20.2428 16.0864C19.9633 16.2477 19.6838 16.409 19.4043 16.5703C19.405 15.6488 19.4049 14.7271 19.4048 13.8054C19.4047 13.133 19.4046 12.4606 19.4048 11.7882C19.914 12.082 20.4231 12.3763 20.9323 12.6707ZM15.7603 29.2073C15.4549 29.384 15.1497 29.5606 14.8434 29.7357C14.8444 28.8613 14.8442 27.9866 14.8441 27.112C14.8439 26.3393 14.8437 25.5668 14.8444 24.7946C15.4298 24.4578 16.0142 24.12 16.5985 23.7823C17.4395 23.2961 18.2803 22.8102 19.1233 22.3275C19.1234 22.8733 19.1233 23.4192 19.1231 23.9651C19.1228 25.0642 19.1225 26.1635 19.1243 27.2626C18.5779 27.5825 18.0296 27.8982 17.4809 28.2142C17.1327 28.4147 16.7844 28.6153 16.4362 28.8172C16.2103 28.947 15.9852 29.0772 15.7603 29.2073ZM21.2179 26.0556C20.6139 26.4043 20.0098 26.7531 19.4058 27.1022C19.404 26.1289 19.4044 25.1557 19.4047 24.1825C19.4049 23.5094 19.4052 22.8363 19.4047 22.1631C20.8291 21.3388 22.2548 20.5159 23.6806 19.6933C23.681 20.5434 23.6809 21.3932 23.6808 22.2432C23.6807 23.0395 23.6806 23.8358 23.6809 24.6325C22.8602 25.1075 22.0391 25.5815 21.2179 26.0556ZM26.0387 23.2723C25.3478 23.6723 24.6571 24.072 23.9643 24.4675C23.9645 22.8218 23.9647 21.176 23.964 19.5305C25.3893 18.7058 26.815 17.8819 28.2415 17.0597C28.2419 17.9881 28.2419 18.9164 28.2419 19.8448C28.2419 20.4447 28.2418 21.0446 28.2419 21.6446C28.2408 21.7058 28.2413 21.7622 28.2419 21.8166C28.2425 21.8801 28.2431 21.9408 28.2409 22.0032C27.5243 22.4123 26.8101 22.8257 26.0963 23.239L26.0387 23.2723Z" fill="#7A7A7A" stroke="black" stroke-width="0.248571"/>
<path opacity="0.81" d="M14.7081 8.79838L14.5578 8.76626L14.5578 8.91993C14.5579 10.0862 14.5577 11.2525 14.5576 12.4187C14.5573 14.7514 14.557 17.0841 14.5586 19.4167L14.5587 19.5916L14.7239 19.534L14.7583 19.5219L14.8414 19.4929L14.8416 19.4049C14.846 17.5326 14.8454 15.66 14.8447 13.7875C14.8443 12.6564 14.8439 11.5253 14.8446 10.3944L14.8446 10.3939C14.844 10.2091 14.8443 10.0234 14.8446 9.83731C14.8452 9.53382 14.8457 9.22931 14.8421 8.92611L14.841 8.82679L14.7438 8.80603L14.7081 8.79838Z" fill="#7A7A7A" stroke="black" stroke-width="0.248571"/>
<path opacity="0.48" d="M0.901324 11.4948L0.875714 11.5282V11.5704V22.0914V22.4534L1.09808 22.1677C1.14718 22.1046 1.15617 22.0353 1.15752 21.985C1.15812 21.9629 1.15725 21.9407 1.15656 21.9233C1.15648 21.9214 1.15641 21.9195 1.15634 21.9176C1.15557 21.8976 1.15527 21.8837 1.156 21.8718L1.15624 21.8718L1.15624 21.8641C1.15534 20.022 1.15543 18.18 1.15551 16.3381C1.15557 14.803 1.15564 13.268 1.15515 11.7328L1.1552 11.7328L1.15509 11.7291C1.15485 11.7211 1.1554 11.7111 1.15684 11.696C1.15715 11.6928 1.15754 11.689 1.15798 11.6847C1.15922 11.6726 1.16081 11.6571 1.16171 11.6433C1.16431 11.6032 1.1643 11.5446 1.13448 11.4847L1.04568 11.3063L0.924537 11.4645L0.901324 11.4948ZM0.906575 11.7345C0.907071 13.2689 0.907003 14.8034 0.906935 16.3379C0.906854 18.1789 0.906773 20.0199 0.907665 21.8607C0.90641 21.8851 0.907244 21.9087 0.907949 21.9271L0.908143 21.9322C0.90887 21.951 0.909405 21.9649 0.909043 21.9783C0.908285 22.0064 0.903616 22.0128 0.901917 22.015L1 22.0914H1.12429V21.8698V21.8641V11.7328V11.7301V11.5704H1.0628L0.906575 11.7345Z" fill="#7A7A7A" stroke="black" stroke-width="0.248571"/>
</svg>
