<svg width="22" height="22" viewBox="0 0 22 22" fill="none" xmlns="http://www.w3.org/2000/svg">
<path fill-rule="evenodd" clip-rule="evenodd" d="M9.42857 2C9.42857 0.895433 8.53314 0 7.42857 0H2C0.895433 0 0 0.895431 0 2V7.42857C0 8.53314 0.895431 9.42857 2 9.42857H7.42857C8.53314 9.42857 9.42857 8.53314 9.42857 7.42857V2ZM9.42857 14.5714C9.42857 13.4669 8.53314 12.5714 7.42857 12.5714H2C0.895433 12.5714 0 13.4669 0 14.5714V20C0 21.1046 0.895431 22 2 22H7.42857C8.53314 22 9.42857 21.1046 9.42857 20V14.5714ZM12.5714 2C12.5714 0.895433 13.4669 0 14.5714 0H20C21.1046 0 22 0.895431 22 2V7.42857C22 8.53314 21.1046 9.42857 20 9.42857H14.5714C13.4669 9.42857 12.5714 8.53314 12.5714 7.42857V2ZM22 14.5714C22 13.4669 21.1046 12.5714 20 12.5714H14.5714C13.4669 12.5714 12.5714 13.4669 12.5714 14.5714V20C12.5714 21.1046 13.4669 22 14.5714 22H20C21.1046 22 22 21.1046 22 20V14.5714Z" fill="black"/>
</svg>