<svg width="23" height="23" viewBox="0 0 23 23" fill="none" xmlns="http://www.w3.org/2000/svg">
<path d="M15.8183 0.714167C16.2757 0.256886 16.896 0 17.5428 0C18.1896 0 18.8099 0.256886 19.2673 0.714167L22.2858 3.73269C22.5124 3.9592 22.6922 4.22814 22.8148 4.52415C22.9375 4.82015 23.0006 5.13741 23.0006 5.45782C23.0006 5.77822 22.9375 6.09549 22.8148 6.39149C22.6922 6.6875 22.5124 6.95644 22.2858 7.18295L7.78108 21.6877L0 23L1.31351 15.2189L15.8183 0.714167ZM15.539 4.4425L18.5575 7.46102L20.5613 5.45721L17.5428 2.43991L15.539 4.4425ZM16.8318 9.18676L13.8145 6.16824L3.5893 16.3934L2.97584 20.0242L6.6066 19.4119L16.8318 9.18676Z" fill="#182F7B"/>
</svg>
