<svg width="29" height="21" viewBox="0 0 29 21" fill="none" xmlns="http://www.w3.org/2000/svg">
<path d="M6.79167 18.7292C5.71958 18.7292 4.85417 17.8637 4.85417 16.7917C4.85417 15.7196 5.71958 14.8542 6.79167 14.8542C7.86375 14.8542 8.72917 15.7196 8.72917 16.7917C8.72917 17.8637 7.86375 18.7292 6.79167 18.7292ZM4.85417 7.10417H8.08333V10.3333H2.3225L4.85417 7.10417ZM22.2917 18.7292C21.2196 18.7292 20.3542 17.8637 20.3542 16.7917C20.3542 15.7196 21.2196 14.8542 22.2917 14.8542C23.3637 14.8542 24.2292 15.7196 24.2292 16.7917C24.2292 17.8637 23.3637 18.7292 22.2917 18.7292ZM4.20833 5.16667L0.333334 10.3333V16.7917H2.91667C2.91667 18.9358 4.6475 20.6667 6.79167 20.6667C8.93583 20.6667 10.6667 18.9358 10.6667 16.7917H18.4167C18.4167 18.9358 20.1475 20.6667 22.2917 20.6667C24.4358 20.6667 26.1667 18.9358 26.1667 16.7917H28.75V2.58333C28.75 1.14958 27.6004 0 26.1667 0H8.08333V5.16667H4.20833ZM26.1667 2.58333V14.2083H25.185C24.4746 13.4204 23.4413 12.9167 22.2917 12.9167C21.1421 12.9167 20.1088 13.4204 19.3983 14.2083H10.6667V2.58333H26.1667ZM17.125 3.875L12.6042 8.39583L17.125 12.9167V9.6875H23.5833V7.10417H17.125V3.875Z" fill="#C3C3C3"/>
</svg>