<svg width="27" height="26" viewBox="0 0 27 26" fill="none" xmlns="http://www.w3.org/2000/svg">
<path d="M13.4326 25L24.124 19.467C24.5395 19.2513 24.7472 19.1448 24.8984 18.9857C25.0324 18.8461 25.1338 18.6786 25.1956 18.4953C25.2666 18.2862 25.2666 18.0535 25.2666 17.5854V7.29244M13.4326 25L2.74127 19.467C2.32577 19.2513 2.11801 19.1448 1.9668 18.9857C1.83287 18.8461 1.7314 18.6786 1.66964 18.4953C1.59863 18.2862 1.59863 18.0522 1.59863 17.5827V7.29244M13.4326 25V13.0832M25.2666 7.29244L13.4326 13.0832M25.2666 7.29244L14.3925 1.66473C14.0414 1.48327 13.8665 1.39123 13.6811 1.35573C13.517 1.32413 13.3483 1.32413 13.1841 1.35573C13 1.39123 12.8238 1.48327 12.4714 1.66473L1.59863 7.29244M1.59863 7.29244L13.4326 13.0832" stroke="white" stroke-width="1.97233" stroke-linecap="round" stroke-linejoin="round"/>
</svg>