<svg width="38" height="38" viewBox="0 0 28 28" fill="none" xmlns="http://www.w3.org/2000/svg">
<path d="M19.7969 14.0195L15 17.6589C14.8771 17.752 14.7535 17.8014 14.6424 17.8014C14.5291 17.8014 14.4303 17.75 14.3642 17.6569C14.301 17.5678 14.2689 17.4465 14.2689 17.2959V15.9025C14.2689 15.5359 13.9706 15.2376 13.6041 15.2376H9.64711C9.18805 15.2376 8.81453 14.864 8.81453 14.4051V12.5956C8.81453 12.1366 9.18805 11.763 9.64711 11.763H13.6041C13.9706 11.763 14.2689 11.4647 14.2689 11.0981V9.70462C14.2689 9.33206 14.4619 9.19922 14.6424 9.19922C14.7534 9.19922 14.8771 9.24858 14.9999 9.34171L19.7968 12.9811C19.977 13.1177 20.0762 13.3021 20.0762 13.5005C20.0762 13.6986 19.9771 13.883 19.7969 14.0195Z" fill="#aeaeae"/>
<path d="M14.4454 0C21.8893 0 27.9453 6.05602 27.9453 13.5C27.9453 20.944 21.8893 27 14.4454 27C7.00154 27 0.945524 20.944 0.945524 13.5C0.945524 6.05602 7.00154 0 14.4454 0ZM14.4454 3.52187C8.94343 3.52187 4.46723 7.99791 4.46723 13.5C4.46723 19.0021 8.94343 23.4781 14.4454 23.4781C19.9474 23.4781 24.4237 19.0021 24.4237 13.5C24.4237 7.99791 19.9474 3.52187 14.4454 3.52187Z" fill="#aeaeae"/>
</svg>