<svg width="27" height="30" viewBox="0 0 27 30" fill="none" xmlns="http://www.w3.org/2000/svg">
<path d="M12.3207 15.0905H15.2207C18.1986 15.0905 21.0545 16.2735 23.1602 18.3792C25.2659 20.4849 26.4489 23.3408 26.4489 26.3188C26.4489 26.9893 26.1825 27.6323 25.7084 28.1065C25.2343 28.5806 24.5912 28.847 23.9207 28.847H3.6207C2.95018 28.847 2.30712 28.5806 1.83299 28.1065C1.35886 27.6323 1.0925 26.9893 1.0925 26.3188C1.0925 23.3408 2.27547 20.4849 4.38116 18.3792C6.48686 16.2735 9.3428 15.0905 12.3207 15.0905Z" fill="#CCCCCC" stroke="white" stroke-width="0.74359"/>
<path d="M22.0985 8.91875C22.0985 13.5183 18.3699 17.247 13.7703 17.247C9.17077 17.247 5.44211 13.5183 5.44211 8.91875C5.44211 4.31921 9.17077 0.590545 13.7703 0.590545C18.3699 0.590545 22.0985 4.31921 22.0985 8.91875Z" fill="#CCCCCC" stroke="white" stroke-width="0.74359"/>
</svg>
