<svg width="18" height="18" viewBox="0 0 14 14" fill="none" xmlns="http://www.w3.org/2000/svg">
<path d="M12.4216 2.40232L11.1629 6.80798H3.84739M11.7922 9.3255H4.23968L2.98092 1.14355H1.09277M9.27472 2.71701H7.70127M7.70127 2.71701H6.12782M7.70127 2.71701V4.29046M7.70127 2.71701V1.14355M4.86906 11.843C4.86906 12.1906 4.58727 12.4724 4.23968 12.4724C3.89208 12.4724 3.6103 12.1906 3.6103 11.843C3.6103 11.4954 3.89208 11.2136 4.23968 11.2136C4.58727 11.2136 4.86906 11.4954 4.86906 11.843ZM11.7922 11.843C11.7922 12.1906 11.5105 12.4724 11.1629 12.4724C10.8153 12.4724 10.5335 12.1906 10.5335 11.843C10.5335 11.4954 10.8153 11.2136 11.1629 11.2136C11.5105 11.2136 11.7922 11.4954 11.7922 11.843Z" stroke="white" stroke-width="1.25876" stroke-linecap="round" stroke-linejoin="round"/>
</svg>