<svg width="22" height="24" viewBox="0 0 22 24" fill="none" xmlns="http://www.w3.org/2000/svg">
<path d="M12.1733 0.433594C12.5752 0.433594 12.9609 0.599326 13.2381 0.891191L17.9314 5.91889C18.1896 6.19169 18.3333 6.55396 18.3333 6.92942V19.5001C18.3333 19.8891 18.1788 20.2622 17.9037 20.5372C17.6287 20.8123 17.2556 20.9668 16.8666 20.9668H2.20006C1.81107 20.9668 1.43802 20.8123 1.16297 20.5372C0.887921 20.2622 0.733398 19.8891 0.733398 19.5001V1.90025C0.733398 1.51127 0.887921 1.13822 1.16297 0.863168C1.43802 0.588116 1.81107 0.433594 2.20006 0.433594L12.1733 0.433594ZM16.8666 7.76688H11.7333C11.5388 7.76688 11.3523 7.68962 11.2148 7.55209C11.0773 7.41457 11 7.22804 11 7.03355V1.90025H2.20006V19.5001H16.8666V7.76688ZM5.8667 16.5668C5.67221 16.5668 5.48568 16.4896 5.34816 16.352C5.21063 16.2145 5.13337 16.028 5.13337 15.8335C5.13337 15.639 5.21063 15.4525 5.34816 15.315C5.48568 15.1774 5.67221 15.1002 5.8667 15.1002H13.2C13.3945 15.1002 13.581 15.1774 13.7185 15.315C13.8561 15.4525 13.9333 15.639 13.9333 15.8335C13.9333 16.028 13.8561 16.2145 13.7185 16.352C13.581 16.4896 13.3945 16.5668 13.2 16.5668H5.8667ZM5.8667 12.1669C5.67221 12.1669 5.48568 12.0896 5.34816 11.9521C5.21063 11.8145 5.13337 11.628 5.13337 11.4335C5.13337 11.239 5.21063 11.0525 5.34816 10.915C5.48568 10.7775 5.67221 10.7002 5.8667 10.7002H13.2C13.3945 10.7002 13.581 10.7775 13.7185 10.915C13.8561 11.0525 13.9333 11.239 13.9333 11.4335C13.9333 11.628 13.8561 11.8145 13.7185 11.9521C13.581 12.0896 13.3945 12.1669 13.2 12.1669H5.8667ZM7.33336 23.9001C7.13887 23.9001 6.95234 23.8229 6.81482 23.6853C6.67729 23.5478 6.60003 23.3613 6.60003 23.1668C6.60003 22.9723 6.67729 22.7858 6.81482 22.6482C6.95234 22.5107 7.13887 22.4335 7.33336 22.4335H19.7999V9.96687C19.7999 9.77238 19.8772 9.58585 20.0147 9.44833C20.1523 9.3108 20.3388 9.23354 20.5333 9.23354C20.7278 9.23354 20.9143 9.3108 21.0518 9.44833C21.1893 9.58585 21.2666 9.77238 21.2666 9.96687V22.4335C21.2666 22.8224 21.1121 23.1955 20.837 23.4705C20.562 23.7456 20.1889 23.9001 19.7999 23.9001H7.33336Z" fill="white"/>
</svg>