<svg width="24" height="24" viewBox="0 0 24 24" fill="none" xmlns="http://www.w3.org/2000/svg">
<path d="M10.3068 0.0234289C12.3989 -0.12057 14.5315 0.402176 16.3131 1.50992C18.3489 2.76053 19.9187 4.75177 20.6473 7.02837C21.1839 8.68098 21.2792 10.472 20.9364 12.1745C20.4752 14.4931 19.1631 16.6257 17.3117 18.0942C16.2118 18.9731 14.9267 19.6196 13.5644 19.9759C11.9762 20.3918 10.2869 20.4154 8.68752 20.0453C6.32166 19.506 4.17818 18.0743 2.75994 16.107C2.06995 15.1572 1.54758 14.0862 1.22396 12.9574C0.74246 11.2786 0.704211 9.47523 1.11146 7.77724C1.42683 6.46138 2.01032 5.21114 2.81582 4.1244C3.63631 3.01253 4.6863 2.07054 5.88067 1.37529C7.22503 0.589674 8.75314 0.123178 10.3068 0.0234289ZM9.26276 4.0074C8.5604 4.02877 7.8419 4.02277 7.16653 4.24439C6.60779 4.41539 6.09854 4.74126 5.71604 5.18376C5.17155 5.78826 4.93305 6.60687 4.87905 7.40487C4.83893 8.03036 4.83218 8.65736 4.8318 9.28398C4.83143 10.1633 4.82655 11.0427 4.83968 11.9217C4.86068 12.6556 4.86405 13.4104 5.12955 14.1061C5.35942 14.7593 5.82217 15.3226 6.40529 15.6931C6.94116 16.0275 7.56965 16.1858 8.19477 16.2334C8.67102 16.2664 9.14877 16.2784 9.62614 16.2743C10.6638 16.2743 11.701 16.2743 12.7386 16.2743C13.543 16.2589 14.377 16.2458 15.1251 15.9113C15.7405 15.6492 16.2591 15.1741 16.5928 14.5966C16.9187 14.0187 17.0526 13.3531 17.0788 12.6957C17.1212 11.9453 17.1006 11.1935 17.1054 10.4427C17.1002 9.6181 17.1167 8.79311 17.095 7.96886C17.0792 7.37487 17.0368 6.77037 16.8287 6.20863C16.6506 5.68963 16.3292 5.22539 15.9137 4.86839C15.3403 4.36252 14.578 4.1229 13.8269 4.05802C13.1402 4.00327 12.451 4.0029 11.7629 4.00027C10.9296 4.00102 10.096 3.99577 9.26276 4.0074Z" fill="white"/>
<path d="M9.67666 5.10178C10.4597 5.09728 11.243 5.0984 12.026 5.10028C12.5941 5.10328 13.1626 5.10965 13.7292 5.15278C14.3045 5.20302 14.9037 5.37927 15.3121 5.80864C15.7591 6.23652 15.9279 6.86764 15.9706 7.46688C16.0347 8.49512 16.0137 9.52636 16.0175 10.5561C16.0167 11.3155 16.0197 12.0756 15.9695 12.8335C15.9252 13.4293 15.7542 14.056 15.3091 14.4801C14.8985 14.9098 14.2966 15.0846 13.7202 15.1337C12.9069 15.1937 12.0905 15.1839 11.2756 15.1873C10.5133 15.1847 9.75091 15.1929 8.98854 15.1716C8.41554 15.1513 7.8223 15.1461 7.28643 14.9158C6.74643 14.6961 6.31781 14.2255 6.14006 13.6712C6.03994 13.3825 5.99531 13.078 5.97356 12.7742C5.92294 11.9241 5.93119 11.0725 5.92969 10.2212C5.93344 9.28637 5.91694 8.35 5.98144 7.41701C6.02794 6.83351 6.20156 6.22377 6.63581 5.80827C7.06743 5.3549 7.70717 5.18615 8.31317 5.1449C8.76691 5.1164 9.22179 5.10478 9.67666 5.10178ZM14.0637 6.15627C13.7934 6.22377 13.5736 6.45664 13.5249 6.73151C13.4701 7.00188 13.5852 7.29663 13.8087 7.45863C14.0397 7.63638 14.3799 7.6525 14.6274 7.49876C14.8299 7.37876 14.9675 7.15638 14.9814 6.92089C15.0027 6.66701 14.8782 6.40901 14.6686 6.26502C14.4954 6.14277 14.2685 6.10377 14.0637 6.15627ZM10.5088 7.02401C9.35678 7.18338 8.33979 8.03875 7.98205 9.14462C7.72967 9.89761 7.77505 10.7459 8.11104 11.4658C8.41704 12.1303 8.96229 12.6808 9.62416 12.9925C10.2482 13.2917 10.9723 13.3708 11.6476 13.2235C12.2503 13.093 12.8116 12.7791 13.2395 12.3351C13.7067 11.8543 14.0157 11.2214 14.0994 10.5554C14.1856 9.91186 14.0667 9.24174 13.7611 8.66837C13.4514 8.08113 12.9508 7.59738 12.3534 7.30788C11.7864 7.02813 11.1335 6.93176 10.5088 7.02401Z" fill="white"/>
<path d="M10.6935 8.10814C11.2054 8.03652 11.7424 8.16627 12.1624 8.46814C12.6664 8.82251 12.9953 9.41351 13.0238 10.0296C13.0571 10.5782 12.8561 11.1351 12.4811 11.5364C12.1088 11.9432 11.5665 12.1881 11.0145 12.1952C10.4985 12.2087 9.98178 12.0152 9.60003 11.6684C9.23029 11.3372 8.98691 10.8689 8.93329 10.3754C8.87329 9.85975 9.01691 9.32351 9.33116 8.91026C9.65478 8.47601 10.1562 8.17939 10.6935 8.10814Z" fill="white"/>
</svg>