<svg width="31" height="26" viewBox="0 0 31 26" fill="none" xmlns="http://www.w3.org/2000/svg">
<path d="M1 24.3076H29.2676" stroke="white" stroke-width="1.5" stroke-linecap="round" stroke-linejoin="round"/>
<path d="M5.24023 24.3072V7.62936C5.24023 7.55438 5.27002 7.48249 5.32303 7.42947C5.37604 7.37646 5.44794 7.34668 5.52291 7.34668H9.1977C9.27267 7.34668 9.34457 7.37646 9.39758 7.42947C9.45059 7.48249 9.48037 7.55438 9.48037 7.62936V24.3072" stroke="white" stroke-width="1.5" stroke-linecap="round" stroke-linejoin="round"/>
<path d="M13.7207 24.3074V2.07497C13.7207 1.86296 13.8479 1.69336 14.0034 1.69336H17.6782C17.8336 1.69336 17.9608 1.86296 17.9608 2.07497V24.3074" stroke="white" stroke-width="1.5" stroke-linecap="round" stroke-linejoin="round"/>
<path d="M22.2012 24.3073V11.7989C22.2012 11.6859 22.3284 11.5869 22.4838 11.5869H26.1586C26.3141 11.5869 26.4413 11.6859 26.4413 11.7989V24.3073" stroke="white" stroke-width="1.5" stroke-linecap="round" stroke-linejoin="round"/>
</svg>
