<svg width="45" height="44" viewBox="0 0 45 44" fill="none" xmlns="http://www.w3.org/2000/svg">
<path d="M14.1618 3.18466C16.1973 0.994452 19.2488 -0.105545 22.2101 0.00797758C25.3496 0.154774 28.4656 1.51509 30.5658 3.8795C32.114 5.56277 32.9831 7.79408 33.1534 10.0626C33.2806 10.6087 32.7932 11.2311 32.2119 11.1371C31.8498 11.1587 31.6384 10.8357 31.4153 10.6087C31.3977 8.18163 30.2977 5.79765 28.4656 4.20637C27.7728 3.57808 26.9605 3.10637 26.1384 2.67381C25.1089 2.619 24.9132 3.76598 24.8153 4.54694C24.6607 6.71757 24.8036 8.898 24.7507 11.0725C24.7076 11.2565 24.6411 11.4327 24.5491 11.603C24.0069 12.0316 23.2377 11.8104 22.9891 11.1724C23.0263 9.23073 22.9226 7.2891 22.9911 5.34943C23.0811 4.16526 23.2318 2.93609 23.8738 1.90655C22.6955 1.73627 21.5016 1.59338 20.3155 1.79498C21.1473 3.22381 21.1101 4.93448 21.163 6.53359C21.1473 8.09355 21.163 9.65351 21.116 11.2115C21.0671 12.1471 19.5384 12.106 19.4582 11.2193C19.3916 8.84319 19.6109 6.45138 19.3447 4.0811C19.2722 3.34516 18.9571 2.31171 18.0137 2.45459C15.3166 3.70334 13.5609 6.40636 12.9972 9.26401C12.8054 9.8512 12.9796 10.6302 12.4041 11.0256C11.8385 11.3896 10.9792 10.9297 11.0555 10.2427C11.3883 7.6649 12.3513 5.09498 14.1618 3.18466Z" fill="#CFA460"/>
<path d="M9.50586 12.071C10.0461 11.8459 10.5785 11.6032 11.103 11.3488C11.7 12.4155 12.8411 13.0027 13.9489 13.4039C16.3486 14.2456 18.9165 14.4824 21.4434 14.5059C24.1503 14.5137 26.871 14.2103 29.4722 13.449C30.8188 12.9988 32.2496 12.4507 33.1382 11.2803C33.6275 11.5621 34.1051 11.8733 34.6297 12.0886C34.109 12.9655 33.2713 13.6075 32.3807 14.0772C33.0716 15.6901 33.3261 17.5319 32.8289 19.2367C32.5393 20.3523 31.9893 21.5443 30.8756 22.0395C30.3471 24.6466 28.84 27.0815 26.6126 28.5651C24.4145 30.0135 21.5021 30.2288 19.0888 29.1993C16.0452 27.9466 14.1603 24.9069 13.2991 21.8477C11.9994 21.3329 11.4338 19.9217 11.1989 18.6397C10.8329 17.1776 11.3692 15.6998 11.8703 14.3376C10.8916 13.8189 10.0285 13.0614 9.50586 12.071ZM25.7259 15.9465C21.6861 16.4025 17.5053 16.332 13.5986 15.1087C12.4555 16.5415 12.434 18.6651 13.4948 20.1448C13.7238 20.5911 14.3658 20.2153 14.5831 20.6772C14.953 21.5561 15.1174 22.519 15.597 23.3587C16.8594 25.8171 19.3432 27.8566 22.2087 27.8644C24.072 27.976 25.9021 27.1128 27.1489 25.7544C28.3565 24.5155 28.9829 22.8557 29.4096 21.2096C29.4741 20.5539 30.3549 20.8867 30.5663 20.3386C31.175 19.3854 31.4941 18.215 31.3903 17.0856C31.1672 16.334 30.8854 15.5941 30.5976 14.8641C29.024 15.4239 27.3759 15.7233 25.7259 15.9465Z" fill="#CFA460"/>
<path d="M5.79338 32.3531C8.40245 31.3588 11.0252 30.3488 13.419 28.8965C14.979 33.8523 16.5154 38.816 18.0715 43.7739C12.0782 43.7582 6.08698 43.7719 0.09375 43.768V43.631C0.410831 41.3135 0.0585188 38.9374 0.567415 36.6415C0.763144 35.7666 1.20549 34.9445 1.87684 34.3475C2.97488 33.3337 4.42328 32.8678 5.79338 32.3531Z" fill="#CFA460"/>
<path d="M30.8068 28.8965C33.686 30.6346 36.8744 31.762 40.0061 32.9481C41.5504 33.5568 43.1064 34.6196 43.5566 36.3127C44.1849 38.7006 43.7797 41.2059 44.132 43.631V43.768C38.1388 43.7719 32.1456 43.7602 26.1523 43.7739C27.7143 38.818 29.2468 33.8523 30.8068 28.8965Z" fill="#CFA460"/>
<path d="M19.1506 31.7701C19.1193 31.179 19.6399 30.6408 20.2369 30.6858C21.5424 30.6819 22.8499 30.6701 24.1554 30.6897C24.8933 30.7112 25.2515 31.5353 25.1497 32.1831C25.0851 32.8525 25.3474 33.6589 24.8287 34.2011C24.4627 34.6102 23.8873 34.5358 23.394 34.5417C23.8129 37.6107 24.2083 40.6856 24.6134 43.7566C22.9497 43.8231 21.2821 43.7918 19.6184 43.7644C20.0236 40.6875 20.4855 37.6166 20.8535 34.5358C20.2663 34.5867 19.4971 34.5788 19.2426 33.9271C19.0488 33.2303 19.1702 32.4845 19.1506 31.7701Z" fill="#CFA460"/>
</svg>