<svg width="24" height="24" viewBox="0 0 24 24" fill="none" xmlns="http://www.w3.org/2000/svg">
<path d="M15.0195 0.725586H6.45321C3.39381 0.725586 0.946289 3.17311 0.946289 6.2325V14.7988C0.946289 17.8582 3.39381 20.3057 6.45321 20.3057H15.0195C18.0789 20.3057 20.5264 17.8582 20.5264 14.7988V6.2325C20.5264 3.17311 18.0789 0.725586 15.0195 0.725586ZM8.28885 16.0226C8.28885 16.3897 8.04409 16.6345 7.67697 16.6345H5.22945C4.86232 16.6345 4.61757 16.3897 4.61757 16.0226V8.68002C4.61757 8.31289 4.86232 8.06814 5.22945 8.06814H7.67697C8.04409 8.06814 8.28885 8.31289 8.28885 8.68002V16.0226ZM6.45321 7.45626C5.41301 7.45626 4.61757 6.66082 4.61757 5.62062C4.61757 4.58043 5.41301 3.78498 6.45321 3.78498C7.4934 3.78498 8.28885 4.58043 8.28885 5.62062C8.28885 6.66082 7.4934 7.45626 6.45321 7.45626ZM16.8552 16.0226C16.8552 16.3897 16.6104 16.6345 16.2433 16.6345H14.4076C14.0405 16.6345 13.7958 16.3897 13.7958 16.0226V13.881V13.2691V12.0454C13.7958 11.5559 13.3674 11.1275 12.8779 11.1275C12.3884 11.1275 11.9601 11.5559 11.9601 12.0454V13.2691V13.881V16.0226C11.9601 16.3897 11.7154 16.6345 11.3482 16.6345H9.51261C9.14548 16.6345 8.90073 16.3897 8.90073 16.0226V8.68002C8.90073 8.31289 9.14548 8.06814 9.51261 8.06814H11.9601C12.1437 8.06814 12.2661 8.12933 12.3884 8.25171C12.7556 8.12933 13.1227 8.06814 13.4898 8.06814C15.3255 8.06814 16.8552 9.59784 16.8552 11.4335V16.0226Z" fill="white"/>
</svg>