<svg width="24" height="24" viewBox="0 0 24 24" fill="none" xmlns="http://www.w3.org/2000/svg">
<path fill-rule="evenodd" clip-rule="evenodd" d="M14.9748 14.0372C14.7476 14.6804 13.8444 15.2124 13.1242 15.368C12.6311 15.4727 11.9882 15.5555 9.82172 14.6578C7.38849 13.6497 4.00969 10.0587 4.00969 7.66909C4.00969 6.45258 4.71109 5.03602 5.9376 5.03602C6.52777 5.03602 6.65787 5.04753 6.85207 5.51338C7.07927 6.06223 7.63361 7.41447 7.6996 7.55309C7.97206 8.12174 7.42243 8.45462 7.02364 8.94972C6.89637 9.09871 6.75214 9.25985 6.91335 9.53709C7.07362 9.80869 7.62795 10.7121 8.44248 11.4373C9.49459 12.3747 10.3478 12.674 10.6532 12.8013C10.8804 12.8956 11.1519 12.8736 11.3179 12.6963C11.5281 12.469 11.7892 12.092 12.0551 11.7204C12.2427 11.4545 12.4812 11.4213 12.7311 11.5156C12.8998 11.574 15.0445 12.5701 15.1351 12.7295C15.202 12.8455 15.202 13.3941 14.9748 14.0372ZM9.48894 0.724609H9.48422C4.28685 0.724609 0.0595703 4.95316 0.0595703 10.1521C0.0595703 12.2136 0.724214 14.1261 1.85457 15.6774L0.679903 19.1805L4.30289 18.0227C5.79337 19.0092 7.57233 19.5796 9.48894 19.5796C14.6863 19.5796 18.9145 15.351 18.9145 10.1521C18.9145 4.95316 14.6863 0.724609 9.48894 0.724609Z" fill="white"/>
</svg>