<svg width="100" height="96" viewBox="0 0 100 96" fill="none" xmlns="http://www.w3.org/2000/svg">
<ellipse cx="49.5219" cy="49.7622" rx="47.561" ry="45.5737" fill="#0B2244"/>
<path d="M100 47.9949C100 74.3631 77.6142 95.7388 50 95.7388C22.3858 95.7388 0 74.3631 0 47.9949C0 21.6266 22.3858 0.250977 50 0.250977C77.6142 0.250977 100 21.6266 100 47.9949Z" fill="#23BDBD"/>
<ellipse cx="50.0002" cy="47.0818" rx="28.427" ry="27.1443" fill="#FDFDFD"/>
<path d="M43.8432 34.7595C43.8432 33.4502 42.9594 32.7955 41.1919 32.7955C40.0789 32.7955 39.5225 32.4273 39.5225 31.6908C39.5225 30.9871 40.0789 30.6352 41.1919 30.6352C41.8301 30.6352 42.5421 30.7088 43.3277 30.8561C44.1133 30.9871 44.7761 31.0525 45.3162 31.0525C45.7744 31.0525 46.5682 30.9625 47.6975 30.7825C48.8268 30.5861 50.177 30.4879 51.7482 30.4879C55.6107 30.4879 58.573 31.3798 60.6351 33.1638C62.7137 34.9314 63.7529 37.0426 63.7529 39.4976C63.7529 41.4288 63.2701 42.91 62.3045 43.9411C61.3553 44.9721 60.0296 45.8887 58.3275 46.6906C56.6417 47.4926 54.4323 47.8935 51.6991 47.8935C50.1115 47.8935 49.3178 47.4189 49.3178 46.4697C49.3178 46.2242 49.4242 46.0278 49.6369 45.8805C49.866 45.7168 50.1688 45.635 50.5453 45.635C50.6271 45.635 50.8971 45.6513 51.3554 45.6841C51.8136 45.7168 52.231 45.7332 52.6074 45.7332C54.375 45.7332 55.8316 45.1849 56.9772 44.0884C58.1393 42.9918 58.7203 41.4615 58.7203 39.4976C58.7203 37.6482 58.0083 36.0197 56.5845 34.6122C55.1606 33.2047 53.2457 32.5009 50.8398 32.5009C49.9724 32.5009 49.3505 32.6237 48.9741 32.8692C48.614 33.0983 48.3849 33.442 48.2867 33.9003C48.2049 34.3422 48.1639 35.0623 48.1639 36.0606V62.1569C48.1639 63.4334 48.9904 64.0717 50.6435 64.0717C51.4454 64.0717 51.9773 64.1781 52.2392 64.3909C52.5174 64.6036 52.6565 64.9146 52.6565 65.3238C52.6565 65.9948 51.9855 66.3303 50.6435 66.3303C50.2179 66.3303 49.416 66.1748 48.2376 65.8639C47.0756 65.5365 46.3309 65.3729 46.0036 65.3729C45.5126 65.3729 44.7843 65.5365 43.8187 65.8639C42.8694 66.1748 42.2066 66.3303 41.8301 66.3303C40.4226 66.3303 39.7189 65.913 39.7189 65.0783C39.7189 64.8491 39.7925 64.6609 39.9398 64.5136C40.1035 64.35 40.6354 64.2354 41.5355 64.1699C42.4521 64.0881 43.0658 63.7853 43.3768 63.2616C43.6877 62.7215 43.8432 62.0914 43.8432 61.3713V34.7595Z" fill="#23BDBD"/>
</svg>