<svg width="96" height="96" viewBox="0 0 96 96" fill="none" xmlns="http://www.w3.org/2000/svg">
<ellipse cx="48.1525" cy="46.8062" rx="48.1525" ry="46.5474" fill="#4331B2"/>
<path d="M26.9899 44.0665C26.9899 42.4154 27.3471 40.9469 28.0616 39.6609C28.776 38.359 29.7683 37.3509 31.0384 36.6365C32.3243 35.9061 33.777 35.541 35.3964 35.541C37.3809 35.541 39.0797 36.0649 40.4927 37.1127C41.9057 38.1606 42.8503 39.5894 43.3266 41.3993H38.8495C38.5161 40.7008 38.0398 40.1689 37.4206 39.8038C36.8173 39.4386 36.1267 39.256 35.3488 39.256C34.0945 39.256 33.0785 39.6926 32.3005 40.5658C31.5226 41.439 31.1336 42.6059 31.1336 44.0665C31.1336 45.5272 31.5226 46.6941 32.3005 47.5673C33.0785 48.4405 34.0945 48.8771 35.3488 48.8771C36.1267 48.8771 36.8173 48.6945 37.4206 48.3293C38.0398 47.9642 38.5161 47.4323 38.8495 46.7338H43.3266C42.8503 48.5437 41.9057 49.9725 40.4927 51.0204C39.0797 52.0523 37.3809 52.5683 35.3964 52.5683C33.777 52.5683 32.3243 52.2111 31.0384 51.4966C29.7683 50.7663 28.776 49.7582 28.0616 48.4722C27.3471 47.1862 26.9899 45.7177 26.9899 44.0665ZM49.8927 34.8266V52.4492H45.8204V34.8266H49.8927ZM65.9655 39.1608V52.4492H61.8933V50.6393C61.4805 51.2267 60.9169 51.703 60.2025 52.0682C59.5039 52.4175 58.726 52.5921 57.8686 52.5921C56.8526 52.5921 55.9556 52.3698 55.1776 51.9253C54.3997 51.4649 53.7964 50.806 53.3677 49.9487C52.9391 49.0914 52.7247 48.0832 52.7247 46.9243V39.1608H56.7732V46.3765C56.7732 47.2656 57.0034 47.9562 57.4638 48.4484C57.9242 48.9406 58.5434 49.1866 59.3213 49.1866C60.1151 49.1866 60.7422 48.9406 61.2027 48.4484C61.6631 47.9562 61.8933 47.2656 61.8933 46.3765V39.1608H65.9655Z" fill="white"/>
</svg>