<svg width="103" height="96" viewBox="0 0 103 96" fill="none" xmlns="http://www.w3.org/2000/svg">
<ellipse cx="37.9154" cy="39.5752" rx="37.9154" ry="39.289" fill="#F9E2B7"/>
<path d="M102.826 39.5752C102.826 61.2739 101.588 78.8642 80.6483 78.8642C59.7082 78.8642 42.7329 61.2739 42.7329 39.5752C42.7329 17.8764 59.7082 0.286133 80.6483 0.286133C101.588 0.286133 102.826 17.8764 102.826 39.5752Z" fill="#ED6B21"/>
<path d="M31.7505 25.6437H39.6592L33.4736 45.9678H23.0023L16.8167 25.6437H24.7254L28.0391 41.2402H28.4809L31.7505 25.6437ZM46.6505 36.4993C47.698 36.4993 48.5039 36.8149 49.068 37.4462C49.6455 38.0774 49.9342 39.1921 49.9342 40.7903C49.9342 41.9588 49.8133 42.9594 49.5716 43.792C49.3433 44.6113 49.0814 45.1351 48.7859 45.3634C48.4367 45.6454 47.9196 45.8536 47.2347 45.9879C46.5497 46.1222 45.7708 46.1894 44.8978 46.1894C44.2263 46.1894 43.4742 46.1357 42.6415 46.0282C41.8088 45.9342 41.0634 45.7797 40.4053 45.5649V33.8804L43.8905 33.7394V35.633C43.8905 35.7405 43.8838 35.989 43.8704 36.3784C43.8704 36.7679 43.8569 37.097 43.8301 37.3656C43.8032 37.6208 43.7629 37.8155 43.7092 37.9498L43.8301 38.0908C44.139 37.6208 44.5285 37.238 44.9985 36.9425C45.4686 36.647 46.0192 36.4993 46.6505 36.4993ZM46.0864 43.7719C46.167 43.6376 46.2341 43.322 46.2878 42.825C46.355 42.3281 46.3886 41.8513 46.3886 41.3947C46.3886 40.8575 46.3617 40.4344 46.308 40.1255C46.2677 39.8166 46.1535 39.5749 45.9655 39.4003C45.7909 39.2123 45.5156 39.1182 45.1395 39.1182C44.8038 39.1182 44.374 39.1653 43.8502 39.2593V43.8122C44.3471 43.8928 44.8642 43.9331 45.4014 43.9331C45.7909 43.9331 46.0192 43.8793 46.0864 43.7719ZM51.326 33.8804L54.7709 33.7394V45.9678H51.326V33.8804ZM60.9514 46.2297C59.3397 46.2297 58.131 45.8536 57.3252 45.1015C56.5328 44.336 56.1366 43.1339 56.1366 41.4954C56.1366 40.5956 56.2171 39.8099 56.3783 39.1384C56.5529 38.4534 56.7611 37.9767 57.0028 37.708C57.3117 37.3589 57.8758 37.0701 58.6951 36.8418C59.5277 36.6135 60.3067 36.4993 61.032 36.4993C62.7645 36.4993 64.0001 36.8686 64.7388 37.6073C65.4774 38.346 65.8468 39.5279 65.8468 41.153C65.8468 42.8989 65.4506 44.1815 64.6582 45.0008C63.8658 45.82 62.6302 46.2297 60.9514 46.2297ZM61.0118 43.8726C61.5356 43.8726 61.8781 43.6913 62.0392 43.3287C62.2004 42.9526 62.281 42.2945 62.281 41.3544C62.281 40.6963 62.2474 40.1927 62.1803 39.8435C62.1131 39.4809 61.9855 39.219 61.7975 39.0578C61.6229 38.8832 61.3476 38.7959 60.9715 38.7959C60.4343 38.7959 60.1254 38.8429 60.0448 38.9369C59.9374 39.0309 59.8501 39.3264 59.7829 39.8233C59.7158 40.3203 59.6822 40.8373 59.6822 41.3746C59.6822 42.2878 59.7695 42.9325 59.9441 43.3085C60.1321 43.6846 60.488 43.8726 61.0118 43.8726ZM74.9581 45.6857C73.8703 46.0484 72.6548 46.2297 71.3118 46.2297C69.8075 46.2297 68.6794 45.8536 67.9273 45.1015C67.1886 44.336 66.8193 43.1474 66.8193 41.5357C66.8193 40.7433 66.9267 39.9644 67.1416 39.1988C67.3565 38.4199 67.5848 37.8961 67.8266 37.6275C68.1086 37.3186 68.6592 37.0567 69.4785 36.8418C70.3112 36.6269 71.1707 36.5195 72.0571 36.5195C72.9838 36.5195 73.9173 36.6 74.8574 36.7612C74.8305 37.097 74.7835 37.4932 74.7164 37.9498C74.6627 38.393 74.6022 38.7892 74.5351 39.1384C73.7024 39.0847 72.9167 39.0578 72.178 39.0578C71.4528 39.0578 70.9894 39.0981 70.788 39.1787C70.6805 39.219 70.5798 39.4943 70.4858 40.0047C70.4052 40.515 70.3649 40.9918 70.3649 41.435C70.3649 42.0259 70.4455 42.4826 70.6067 42.8049C70.7813 43.1138 71.0499 43.3287 71.4125 43.4496C71.7751 43.5704 72.2653 43.6309 72.8831 43.6309C73.1517 43.6309 73.7427 43.604 74.6559 43.5503L74.9581 45.6857ZM85.9644 45.9678H82.2173L80.3035 42.2005C80.1155 41.8111 79.867 41.5626 79.5581 41.4551V45.9678H76.1132V33.8804L79.5581 33.7394V40.609C79.8804 40.4747 80.1558 40.1994 80.3841 39.7831L82.0965 36.7008L85.8637 36.6806L83.9096 39.8233C83.6007 40.3203 83.2649 40.7165 82.9023 41.0119C83.2112 41.3477 83.5604 41.8581 83.9499 42.543L85.9644 45.9678Z" fill="black"/>
</svg>