<svg width="96" height="96" viewBox="0 0 96 96" fill="none" xmlns="http://www.w3.org/2000/svg">
<g clip-path="url(#clip0_199_4412)">
<path d="M4.09658 0.292969H74.8895C77.0019 0.498973 78.801 2.30809 79 4.43009V75.4907C78.8534 77.5925 77.0281 79.4435 74.9327 79.5968H4.08578C1.99043 79.3815 0.205215 77.5894 0 75.4845V4.39137C0.216016 2.28796 1.99969 0.498973 4.09658 0.292969ZM48.7439 11.4776C41.2513 12.0321 33.7432 12.4488 26.2289 12.4085C22.2033 12.2939 18.1191 12.2598 14.1876 11.2747C15.9358 16.1398 17.6716 21.0142 19.176 25.9614C19.6219 27.3833 20.7838 28.5512 22.1956 29.0081C23.0442 29.3101 23.9592 29.2358 24.8433 29.29C31.0893 29.4294 37.346 29.4774 43.5842 29.0453C39.9721 31.0697 36.2845 32.9531 32.643 34.9202C27.4525 37.5673 22.2419 40.1772 17.0189 42.7608C14.6181 44.0092 12.0552 44.9695 9.84877 46.5665C8.12219 47.7994 6.38635 49.322 5.75836 51.4285C5.35102 52.7141 5.79385 54.0337 6.06695 55.2945C7.13006 59.7012 8.54187 64.0118 9.96758 68.3115C11.4889 68.9713 13.1785 68.9899 14.8048 69.0906C21.8731 69.3121 28.9137 68.4803 35.9604 68.0761C42.7942 67.6656 49.6419 67.3636 56.4881 67.5231C59.9505 67.6548 63.4484 67.7787 66.8306 68.6073C65.0732 63.9095 63.3543 59.1962 61.8129 54.4225C61.0553 52.1983 58.8072 50.6168 56.4696 50.6292C49.5555 50.4372 42.6291 50.4186 35.7244 50.877C38.6143 49.2584 41.5475 47.7142 44.4822 46.1792C46.752 44.9153 49.0911 43.7815 51.4071 42.6075C55.7644 40.4173 60.1218 38.2256 64.4992 36.0773C66.9618 34.9946 69.3534 33.6393 71.2898 31.7435C72.4702 30.5461 73.487 28.9849 73.4037 27.233C73.2972 26.2417 73.0333 25.2752 72.8112 24.3056C71.7542 20.0941 70.4273 15.9555 69.0386 11.8447C68.9167 11.4203 68.4276 11.3413 68.0681 11.2251C66.3415 10.8162 64.5547 10.81 62.7911 10.7527C58.0989 10.7388 53.4176 11.0997 48.7439 11.4776Z" fill="#D4262C"/>
<path d="M48.7436 11.4772C53.4172 11.0993 58.0986 10.7384 62.7908 10.7523C64.5544 10.8097 66.3411 10.8158 68.0677 11.2248C68.4272 11.3409 68.9164 11.4199 69.0383 11.8443C70.4269 15.9551 71.7539 20.0938 72.8108 24.3052C73.033 25.2749 73.2969 26.2414 73.4033 27.2327C73.4866 28.9845 72.4698 30.5458 71.2895 31.7431C69.353 33.6389 66.9614 34.9942 64.4988 36.0769C60.1214 38.2252 55.7641 40.4169 51.4068 42.6071C49.0908 43.7812 46.7516 44.915 44.4819 46.1789C41.5472 47.7138 38.614 49.2581 35.724 50.8767C42.6288 50.4182 49.5552 50.4368 56.4692 50.6289C58.8068 50.6165 61.0549 52.1979 61.8125 54.4221C63.354 59.1958 65.0728 63.9091 66.8303 68.607C63.4481 67.7783 59.9502 67.6544 56.4878 67.5227C49.6416 67.3632 42.7939 67.6652 35.9601 68.0757C28.9134 68.48 21.8728 69.3117 14.8045 69.0902C13.1782 68.9896 11.4886 68.971 9.96724 68.3111C8.54154 64.0114 7.12973 59.7008 6.06662 55.2942C5.79351 54.0333 5.35068 52.7137 5.75803 51.4281C6.38601 49.3216 8.12185 47.799 9.84844 46.5661C12.0549 44.9692 14.6178 44.0088 17.0186 42.7604C22.2416 40.1769 27.4522 37.567 32.6427 34.9199C36.2841 32.9528 39.9718 31.0693 43.5839 29.0449C37.3457 29.477 31.0889 29.429 24.843 29.2896C23.9589 29.2354 23.0439 29.3098 22.1953 29.0077C20.7835 28.5508 19.6216 27.3829 19.1757 25.961C17.6713 21.0138 15.9354 16.1394 14.1873 11.2743C18.1187 12.2594 22.203 12.2935 26.2286 12.4081C33.7428 12.4484 41.2509 12.0317 48.7436 11.4772Z" fill="#F6F6F7"/>
<path d="M74.9326 79.5964C77.028 79.443 78.8533 77.5921 78.9999 75.4902V76.4722C79.0539 78.1032 77.656 79.5669 76.0358 79.5964H74.9326Z" fill="#F6F6F7"/>
</g>
<defs>
<clipPath id="clip0_199_4412">
<rect width="79" height="79.3038" fill="white" transform="translate(0 0.292969)"/>
</clipPath>
</defs>
</svg>