<svg width="97" height="94" viewBox="0 0 97 94" fill="none" xmlns="http://www.w3.org/2000/svg">
<ellipse cx="48.1525" cy="46.8062" rx="48.1525" ry="46.5474" fill="black"/>
<path d="M27.3628 41.1136C27.3628 42.082 27.1406 42.9711 26.696 43.7808C26.2515 44.5746 25.5688 45.2176 24.648 45.7097C23.7272 46.2019 22.5841 46.448 21.2187 46.448H18.6944V52.4492H14.6221V35.7315H21.2187C22.5523 35.7315 23.6795 35.9617 24.6004 36.4221C25.5212 36.8825 26.2118 37.5176 26.6722 38.3273C27.1326 39.137 27.3628 40.0657 27.3628 41.1136ZM20.9091 43.2092C21.6871 43.2092 22.2666 43.0267 22.6476 42.6615C23.0286 42.2963 23.2191 41.7804 23.2191 41.1136C23.2191 40.4468 23.0286 39.9308 22.6476 39.5656C22.2666 39.2005 21.6871 39.0179 20.9091 39.0179H18.6944V43.2092H20.9091ZM38.0084 52.4492L34.5315 46.1384H33.5551V52.4492H29.4829V35.7315H36.3176C37.6353 35.7315 38.7546 35.9617 39.6754 36.4221C40.6121 36.8825 41.3107 37.5176 41.7711 38.3273C42.2315 39.1211 42.4617 40.0102 42.4617 40.9945C42.4617 42.1058 42.1442 43.0981 41.5092 43.9713C40.89 44.8445 39.9692 45.4637 38.7467 45.8288L42.6046 52.4492H38.0084ZM33.5551 43.2569H36.0795C36.8257 43.2569 37.3813 43.0743 37.7465 42.7091C38.1275 42.344 38.318 41.828 38.318 41.1612C38.318 40.5261 38.1275 40.026 37.7465 39.6609C37.3813 39.2957 36.8257 39.1131 36.0795 39.1131H33.5551V43.2569ZM49.0903 38.9941V42.3757H54.5438V45.5192H49.0903V49.1866H55.2583V52.4492H45.0181V35.7315H55.2583V38.9941H49.0903ZM80.9067 35.7315L76.5487 52.4492H71.6191L68.9519 41.447L66.1894 52.4492H61.2599L57.0209 35.7315H61.3789L63.7842 47.9007L66.761 35.7315H71.2381L74.0958 47.9007L76.5249 35.7315H80.9067Z" fill="white"/>
</svg>