<svg width="137" height="60" viewBox="0 0 137 60" fill="none" xmlns="http://www.w3.org/2000/svg">
<rect x="18.646" y="46.3125" width="99.1085" height="6.27269" rx="3.13635" fill="#E4D599" fill-opacity="0.62"/>
<rect x="13.6419" y="40.848" width="17.5635" height="17.5635" rx="8.78177" stroke="#696969" stroke-opacity="0.2" stroke-width="2.50908"/>
<circle cx="22.4237" cy="49.6298" r="6.27269" fill="#E4D599" fill-opacity="0.62" stroke="white" stroke-width="2.50908"/>
<rect width="47.6725" height="36.0908" rx="18.0454" fill="#E4D599"/>
<path d="M14.0374 21.5537C14.0374 21.4132 14.0491 21.2639 14.0725 21.1058C14.1018 20.9419 14.1427 20.7692 14.1954 20.5877C14.254 20.4004 14.3242 20.2042 14.4062 19.9993L15.0385 20.2452C14.9799 20.4091 14.9272 20.5643 14.8804 20.7107C14.8394 20.857 14.8072 20.9946 14.7838 21.1234C14.7662 21.2522 14.7575 21.3751 14.7575 21.4922C14.7575 21.7732 14.8306 22.0162 14.977 22.2211C15.1292 22.426 15.3371 22.5841 15.6005 22.6953C15.864 22.8066 16.1713 22.8622 16.5226 22.8622C16.95 22.8622 17.3012 22.8007 17.5764 22.6778C17.8574 22.5548 18.074 22.3675 18.2263 22.1157C18.3843 21.864 18.4897 21.5449 18.5424 21.1585C18.5951 20.7663 18.6127 20.3067 18.5951 19.7798L18.4282 15.2747H19.1571L19.3064 19.9642C19.3181 20.3565 19.3006 20.7341 19.2537 21.0971C19.2127 21.4542 19.1308 21.782 19.0078 22.0806C18.8849 22.385 18.7151 22.6485 18.4985 22.871C18.2819 23.0993 18.0096 23.2749 17.6818 23.3979C17.3539 23.5208 16.9588 23.5823 16.4963 23.5823C16.186 23.5823 15.8845 23.5413 15.5917 23.4593C15.299 23.3774 15.0356 23.2544 14.8014 23.0905C14.5672 22.9266 14.3798 22.7158 14.2393 22.4582C14.1047 22.2065 14.0374 21.905 14.0374 21.5537ZM22.4355 21.5888C21.9671 21.5888 21.6071 21.5361 21.3553 21.4308C21.1094 21.3254 20.9396 21.1615 20.846 20.939C20.7523 20.7165 20.6996 20.4296 20.6879 20.0784L20.5123 15.2747H21.2324L21.408 19.7974C21.4197 20.0842 21.4461 20.3067 21.487 20.4648C21.5339 20.617 21.6334 20.7224 21.7856 20.7809C21.9437 20.8395 22.1896 20.8687 22.5233 20.8687C22.6462 20.8687 22.7341 20.9039 22.7867 20.9741C22.8453 21.0385 22.8746 21.1175 22.8746 21.2112C22.8746 21.3049 22.8336 21.3927 22.7516 21.4747C22.6697 21.5508 22.5643 21.5888 22.4355 21.5888ZM22.4356 21.5888L22.5234 20.8687C22.8688 20.8687 23.1382 20.857 23.3314 20.8336C23.5245 20.8043 23.6621 20.737 23.7441 20.6316C23.8261 20.5204 23.867 20.3477 23.867 20.1135C23.867 19.9671 23.8436 19.7944 23.7968 19.5954C23.7499 19.3905 23.6885 19.1738 23.6124 18.9455C23.5363 18.7172 23.4543 18.4918 23.3665 18.2693L24.0778 18.0059C24.1539 18.1932 24.2242 18.4069 24.2886 18.6469C24.3588 18.887 24.4174 19.1241 24.4642 19.3583C24.511 19.5924 24.5345 19.7974 24.5345 19.973C24.5345 20.2657 24.4935 20.5145 24.4115 20.7194C24.3354 20.9243 24.2125 21.0912 24.0427 21.22C23.8729 21.3488 23.6533 21.4425 23.384 21.501C23.1206 21.5596 22.8044 21.5888 22.4356 21.5888ZM24.0602 23.2486C23.9373 23.2486 23.8319 23.2047 23.7441 23.1169C23.6621 23.0349 23.6211 22.9354 23.6211 22.8183C23.6211 22.7012 23.6621 22.5987 23.7441 22.5109C23.8319 22.4231 23.9373 22.3792 24.0602 22.3792C24.1773 22.3792 24.2769 22.4231 24.3588 22.5109C24.4466 22.5987 24.4905 22.7012 24.4905 22.8183C24.4905 22.9354 24.4466 23.0349 24.3588 23.1169C24.2769 23.2047 24.1773 23.2486 24.0602 23.2486ZM22.8571 23.2486C22.7342 23.2486 22.6288 23.2047 22.541 23.1169C22.459 23.0349 22.418 22.9354 22.418 22.8183C22.418 22.7012 22.459 22.5987 22.541 22.5109C22.6288 22.4231 22.7342 22.3792 22.8571 22.3792C22.9742 22.3792 23.0738 22.4231 23.1557 22.5109C23.2435 22.5987 23.2874 22.7012 23.2874 22.8183C23.2874 22.9354 23.2435 23.0349 23.1557 23.1169C23.0738 23.2047 22.9742 23.2486 22.8571 23.2486ZM25.095 23.5647L24.8403 22.8973C25.4316 22.71 25.8853 22.4846 26.2015 22.2211C26.5235 21.9635 26.743 21.6942 26.8601 21.4132C26.9831 21.1322 27.0445 20.8629 27.0445 20.6053C27.0445 20.4413 27.027 20.2833 26.9918 20.1311C26.9567 19.9788 26.8952 19.8061 26.8074 19.6129C26.7196 19.4197 26.5967 19.1797 26.4386 18.8928L27.0797 18.5679C27.3021 18.9484 27.4602 19.3085 27.5539 19.6481C27.6534 19.9876 27.7032 20.2862 27.7032 20.5438C27.7032 20.9126 27.6417 21.2463 27.5187 21.5449C27.4017 21.8435 27.2436 22.107 27.0445 22.3353C26.8513 22.5695 26.6376 22.7685 26.4035 22.9324C26.1751 23.0964 25.9439 23.231 25.7097 23.3364C25.4814 23.4418 25.2765 23.5179 25.095 23.5647ZM33.6607 15.1582V21.5449H32.8873V15.969H32.8499L31.2907 17.0043V16.2185L32.8873 15.1582H33.6607Z" fill="white"/>
<path d="M23.3675 39.6522C23.6171 39.9219 24.0557 39.9219 24.3052 39.6522L27.6 36.0908H20.0728L23.3675 39.6522Z" fill="#E4D599"/>
<rect x="88.415" width="47.6725" height="36.0908" rx="18.0454" fill="#E4D599"/>
<path d="M96.2145 21.5537C96.2145 21.4132 96.2262 21.2639 96.2497 21.1058C96.2789 20.9419 96.3199 20.7692 96.3726 20.5877C96.4311 20.4004 96.5014 20.2042 96.5834 19.9993L97.2156 20.2452C97.1571 20.4091 97.1044 20.5643 97.0576 20.7107C97.0166 20.857 96.9844 20.9946 96.961 21.1234C96.9434 21.2522 96.9346 21.3751 96.9346 21.4922C96.9346 21.7732 97.0078 22.0162 97.1542 22.2211C97.3064 22.426 97.5142 22.5841 97.7777 22.6953C98.0411 22.8066 98.3485 22.8622 98.6998 22.8622C99.1271 22.8622 99.4784 22.8007 99.7536 22.6778C100.035 22.5548 100.251 22.3675 100.403 22.1157C100.562 21.864 100.667 21.5449 100.72 21.1585C100.772 20.7663 100.79 20.3067 100.772 19.7798L100.605 15.2747H101.334L101.484 19.9642C101.495 20.3565 101.478 20.7341 101.431 21.0971C101.39 21.4542 101.308 21.782 101.185 22.0806C101.062 22.385 100.892 22.6485 100.676 22.871C100.459 23.0993 100.187 23.2749 99.859 23.3979C99.5311 23.5208 99.1359 23.5823 98.6734 23.5823C98.3631 23.5823 98.0616 23.5413 97.7689 23.4593C97.4762 23.3774 97.2127 23.2544 96.9785 23.0905C96.7444 22.9266 96.557 22.7158 96.4165 22.4582C96.2819 22.2065 96.2145 21.905 96.2145 21.5537ZM104.613 21.5888C104.144 21.5888 103.784 21.5361 103.532 21.4308C103.287 21.3254 103.117 21.1615 103.023 20.939C102.929 20.7165 102.877 20.4296 102.865 20.0784L102.689 15.2747H103.41L103.585 19.7974C103.597 20.0842 103.623 20.3067 103.664 20.4648C103.711 20.617 103.811 20.7224 103.963 20.7809C104.121 20.8395 104.367 20.8687 104.7 20.8687C104.823 20.8687 104.911 20.9039 104.964 20.9741C105.022 21.0385 105.052 21.1175 105.052 21.2112C105.052 21.3049 105.011 21.3927 104.929 21.4747C104.847 21.5508 104.741 21.5888 104.613 21.5888ZM104.613 21.5888L104.701 20.8687C105.046 20.8687 105.315 20.857 105.509 20.8336C105.702 20.8043 105.839 20.737 105.921 20.6316C106.003 20.5204 106.044 20.3477 106.044 20.1135C106.044 19.9671 106.021 19.7944 105.974 19.5954C105.927 19.3905 105.866 19.1738 105.79 18.9455C105.713 18.7172 105.631 18.4918 105.544 18.2693L106.255 18.0059C106.331 18.1932 106.401 18.4069 106.466 18.6469C106.536 18.887 106.595 19.1241 106.641 19.3583C106.688 19.5924 106.712 19.7974 106.712 19.973C106.712 20.2657 106.671 20.5145 106.589 20.7194C106.513 20.9243 106.39 21.0912 106.22 21.22C106.05 21.3488 105.831 21.4425 105.561 21.501C105.298 21.5596 104.982 21.5888 104.613 21.5888ZM106.237 23.2486C106.114 23.2486 106.009 23.2047 105.921 23.1169C105.839 23.0349 105.798 22.9354 105.798 22.8183C105.798 22.7012 105.839 22.5987 105.921 22.5109C106.009 22.4231 106.114 22.3792 106.237 22.3792C106.354 22.3792 106.454 22.4231 106.536 22.5109C106.624 22.5987 106.668 22.7012 106.668 22.8183C106.668 22.9354 106.624 23.0349 106.536 23.1169C106.454 23.2047 106.354 23.2486 106.237 23.2486ZM105.034 23.2486C104.911 23.2486 104.806 23.2047 104.718 23.1169C104.636 23.0349 104.595 22.9354 104.595 22.8183C104.595 22.7012 104.636 22.5987 104.718 22.5109C104.806 22.4231 104.911 22.3792 105.034 22.3792C105.151 22.3792 105.251 22.4231 105.333 22.5109C105.421 22.5987 105.465 22.7012 105.465 22.8183C105.465 22.9354 105.421 23.0349 105.333 23.1169C105.251 23.2047 105.151 23.2486 105.034 23.2486ZM107.272 23.5647L107.017 22.8973C107.609 22.71 108.063 22.4846 108.379 22.2211C108.701 21.9635 108.92 21.6942 109.037 21.4132C109.16 21.1322 109.222 20.8629 109.222 20.6053C109.222 20.4413 109.204 20.2833 109.169 20.1311C109.134 19.9788 109.072 19.8061 108.985 19.6129C108.897 19.4197 108.774 19.1797 108.616 18.8928L109.257 18.5679C109.479 18.9484 109.637 19.3085 109.731 19.6481C109.831 19.9876 109.88 20.2862 109.88 20.5438C109.88 20.9126 109.819 21.2463 109.696 21.5449C109.579 21.8435 109.421 22.107 109.222 22.3353C109.028 22.5695 108.815 22.7685 108.581 22.9324C108.352 23.0964 108.121 23.231 107.887 23.3364C107.659 23.4418 107.454 23.5179 107.272 23.5647ZM115.588 21.6322C115.223 21.6322 114.893 21.5595 114.6 21.4139C114.307 21.2684 114.072 21.0688 113.895 20.8152C113.718 20.5615 113.622 20.2726 113.605 19.9482H114.353C114.383 20.2372 114.514 20.4763 114.746 20.6655C114.981 20.8526 115.262 20.9462 115.588 20.9462C115.85 20.9462 116.083 20.8848 116.287 20.7622C116.493 20.6395 116.654 20.4711 116.77 20.257C116.889 20.0408 116.948 19.7965 116.948 19.5241C116.948 19.2455 116.887 18.9971 116.764 18.7788C116.644 18.5584 116.477 18.3848 116.265 18.258C116.053 18.1312 115.811 18.0667 115.539 18.0646C115.343 18.0626 115.142 18.0927 114.937 18.1551C114.731 18.2154 114.561 18.2933 114.428 18.389L113.705 18.3017L114.092 15.1582H117.41V15.8443H114.74L114.516 17.7278H114.553C114.684 17.6239 114.848 17.5376 115.046 17.469C115.243 17.4004 115.449 17.3661 115.663 17.3661C116.054 17.3661 116.402 17.4597 116.708 17.6468C117.016 17.8318 117.257 18.0854 117.431 18.4077C117.608 18.7299 117.697 19.0979 117.697 19.5116C117.697 19.9191 117.605 20.283 117.422 20.6031C117.241 20.9212 116.992 21.1728 116.674 21.3578C116.356 21.5408 115.994 21.6322 115.588 21.6322ZM121.019 21.6322C120.549 21.6322 120.148 21.5044 119.818 21.2487C119.487 20.9909 119.235 20.6177 119.06 20.1291C118.885 19.6385 118.798 19.0459 118.798 18.3516C118.798 17.6613 118.885 17.0719 119.06 16.5833C119.237 16.0927 119.49 15.7185 119.821 15.4607C120.154 15.2008 120.553 15.0709 121.019 15.0709C121.484 15.0709 121.882 15.2008 122.213 15.4607C122.546 15.7185 122.799 16.0927 122.974 16.5833C123.151 17.0719 123.239 17.6613 123.239 18.3516C123.239 19.0459 123.152 19.6385 122.977 20.1291C122.802 20.6177 122.55 20.9909 122.219 21.2487C121.889 21.5044 121.488 21.6322 121.019 21.6322ZM121.019 20.9462C121.484 20.9462 121.846 20.7216 122.104 20.2726C122.362 19.8235 122.491 19.1832 122.491 18.3516C122.491 17.7985 122.431 17.3276 122.313 16.9389C122.196 16.5501 122.028 16.2538 121.808 16.0501C121.589 15.8463 121.326 15.7445 121.019 15.7445C120.557 15.7445 120.196 15.9721 119.936 16.4274C119.677 16.8806 119.547 17.522 119.547 18.3516C119.547 18.9046 119.605 19.3744 119.721 19.7611C119.838 20.1478 120.005 20.442 120.223 20.6437C120.444 20.8453 120.709 20.9462 121.019 20.9462ZM126.507 21.6322C126.037 21.6322 125.637 21.5044 125.307 21.2487C124.976 20.9909 124.723 20.6177 124.549 20.1291C124.374 19.6385 124.287 19.0459 124.287 18.3516C124.287 17.6613 124.374 17.0719 124.549 16.5833C124.725 16.0927 124.979 15.7185 125.31 15.4607C125.642 15.2008 126.041 15.0709 126.507 15.0709C126.973 15.0709 127.371 15.2008 127.702 15.4607C128.034 15.7185 128.288 16.0927 128.462 16.5833C128.639 17.0719 128.728 17.6613 128.728 18.3516C128.728 19.0459 128.64 19.6385 128.466 20.1291C128.291 20.6177 128.038 20.9909 127.708 21.2487C127.377 21.5044 126.977 21.6322 126.507 21.6322ZM126.507 20.9462C126.973 20.9462 127.335 20.7216 127.592 20.2726C127.85 19.8235 127.979 19.1832 127.979 18.3516C127.979 17.7985 127.92 17.3276 127.801 16.9389C127.685 16.5501 127.517 16.2538 127.296 16.0501C127.078 15.8463 126.815 15.7445 126.507 15.7445C126.046 15.7445 125.685 15.9721 125.425 16.4274C125.165 16.8806 125.035 17.522 125.035 18.3516C125.035 18.9046 125.093 19.3744 125.21 19.7611C125.326 20.1478 125.494 20.442 125.712 20.6437C125.932 20.8453 126.197 20.9462 126.507 20.9462Z" fill="white"/>
<path d="M111.783 39.6522C112.032 39.9219 112.471 39.9219 112.72 39.6522L116.015 36.0908H108.488L111.783 39.6522Z" fill="#E4D599"/>
<rect x="102.349" y="40.6673" width="17.5635" height="17.5635" rx="8.78177" stroke="#696969" stroke-opacity="0.2" stroke-width="2.50908"/>
<circle cx="111.131" cy="49.4491" r="6.27269" fill="#E4D599" fill-opacity="0.62" stroke="white" stroke-width="2.50908"/>
</svg>