<svg width="413" height="670" viewBox="0 0 413 670" fill="none" xmlns="http://www.w3.org/2000/svg">
<rect width="411" height="668" fill="#D9C368" fill-opacity="0.11"/>
<rect width="411" height="668" fill="#D9C368" fill-opacity="0.11"/>
<g opacity="0.9">
<g opacity="0.6">
<path d="M0.00195312 638.731V653.403L40.9867 669.335V653.972L1.77989 638.731H0.00195312Z" fill="#EFEEF1"/>
<path d="M80.1932 638.731L40.9863 653.972V669.335L81.9711 653.403V638.731H80.1932Z" fill="#FBFFFE"/>
</g>
<g opacity="0.6">
<path d="M81.9336 638.731V653.403L122.918 669.335V653.972L83.7115 638.731H81.9336Z" fill="#EFEEF1"/>
<path d="M162.125 638.731L122.918 653.972V669.335L163.903 653.403V638.731H162.125Z" fill="#FBFFFE"/>
</g>
<g opacity="0.6">
<path d="M165.095 638.731V653.403L206.08 669.335V653.972L166.873 638.731H165.095Z" fill="#EFEEF1"/>
<path d="M245.286 638.731L206.079 653.972V669.335L247.064 653.403V638.731H245.286Z" fill="#FBFFFE"/>
</g>
<g opacity="0.6">
<path d="M247.025 638.731V653.403L288.01 669.335V653.972L248.803 638.731H247.025Z" fill="#EFEEF1"/>
<path d="M327.217 638.731L288.01 653.972V669.335L328.995 653.403V638.731H327.217Z" fill="#FBFFFE"/>
</g>
<g opacity="0.6">
<path d="M328.959 638.731V653.403L369.944 669.335V653.972L330.737 638.731H328.959Z" fill="#EFEEF1"/>
<path d="M409.15 638.731L369.943 653.972V669.335L410.928 653.403V638.731H409.15Z" fill="#FBFFFE"/>
</g>
<g opacity="0.6">
<path d="M0.00195312 627.169V641.84L40.9867 657.772V642.409L1.77989 627.169H0.00195312Z" fill="#EFEEF1"/>
<path d="M80.1932 627.17L40.9863 642.41V657.773L81.9711 641.841V627.17H80.1932Z" fill="#FBFFFE"/>
</g>
<g opacity="0.6">
<path d="M81.9043 627.169V641.84L122.889 657.772V642.409L83.6822 627.169H81.9043Z" fill="#EFEEF1"/>
<path d="M162.096 627.169L122.889 642.409V657.772L163.873 641.84V627.169H162.096Z" fill="#FBFFFE"/>
</g>
<g opacity="0.6">
<path d="M165.095 627.169V641.84L206.08 657.772V642.409L166.873 627.169H165.095Z" fill="#EFEEF1"/>
<path d="M245.286 627.168L206.079 642.408V657.771L247.064 641.839V627.168H245.286Z" fill="#FBFFFE"/>
</g>
<g opacity="0.6">
<path d="M247.027 627.169V641.84L288.012 657.772V642.409L248.805 627.169H247.027Z" fill="#EFEEF1"/>
<path d="M327.219 627.169L288.012 642.409V657.772L328.996 641.84V627.169H327.219Z" fill="#FBFFFE"/>
</g>
<g opacity="0.6">
<path d="M328.959 627.169V641.84L369.944 657.772V642.409L330.737 627.169H328.959Z" fill="#EFEEF1"/>
<path d="M409.15 627.17L369.943 642.41V657.773L410.928 641.841V627.17H409.15Z" fill="#FBFFFE"/>
</g>
<g opacity="0.5">
<path d="M1.93457 604.642V619.314L42.9193 635.246V619.883L3.7125 604.642H1.93457Z" fill="#EFEEF1"/>
<path d="M82.1258 604.642L42.9189 619.883V635.246L83.9037 619.314V604.642H82.1258Z" fill="#FBFFFE"/>
</g>
<g opacity="0.5">
<path d="M83.8672 604.642V619.314L124.852 635.246V619.883L85.6451 604.642H83.8672Z" fill="#EFEEF1"/>
<path d="M164.058 604.642L124.852 619.883V635.246L165.836 619.314V604.642H164.058Z" fill="#FBFFFE"/>
</g>
<g opacity="0.5">
<path d="M167.027 604.642V619.314L208.012 635.246V619.883L168.805 604.642H167.027Z" fill="#EFEEF1"/>
<path d="M247.219 604.642L208.012 619.883V635.246L248.996 619.314V604.642H247.219Z" fill="#FBFFFE"/>
</g>
<g opacity="0.5">
<path d="M248.96 604.642V619.314L289.945 635.246V619.883L250.738 604.642H248.96Z" fill="#EFEEF1"/>
<path d="M329.151 604.642L289.944 619.883V635.246L330.929 619.314V604.642H329.151Z" fill="#FBFFFE"/>
</g>
<g opacity="0.5">
<path d="M330.892 604.642V619.314L371.876 635.246V619.883L332.67 604.642H330.892Z" fill="#EFEEF1"/>
<path d="M411.083 604.642L371.876 619.883V635.246L412.861 619.314V604.642H411.083Z" fill="#FBFFFE"/>
</g>
<g opacity="0.5">
<path d="M1.93457 593.079V607.751L42.9193 623.683V608.32L3.7125 593.079H1.93457Z" fill="#EFEEF1"/>
<path d="M82.1258 593.081L42.9189 608.321V623.685L83.9037 607.753V593.081H82.1258Z" fill="#FBFFFE"/>
</g>
<g opacity="0.5">
<path d="M83.8379 593.08V607.752L124.823 623.684V608.32L85.6158 593.08H83.8379Z" fill="#EFEEF1"/>
<path d="M164.029 593.08L124.822 608.32V623.684L165.807 607.752V593.08H164.029Z" fill="#FBFFFE"/>
</g>
<g opacity="0.5">
<path d="M167.027 593.08V607.752L208.012 623.684V608.32L168.805 593.08H167.027Z" fill="#EFEEF1"/>
<path d="M247.22 593.08L208.013 608.32V623.684L248.997 607.752V593.08H247.22Z" fill="#FBFFFE"/>
</g>
<g opacity="0.5">
<path d="M248.961 593.079V607.751L289.946 623.683V608.32L250.739 593.079H248.961Z" fill="#EFEEF1"/>
<path d="M329.151 593.08L289.944 608.32V623.684L330.929 607.752V593.08H329.151Z" fill="#FBFFFE"/>
</g>
<g opacity="0.5">
<path d="M330.892 593.079V607.751L371.876 623.683V608.32L332.67 593.079H330.892Z" fill="#EFEEF1"/>
<path d="M411.083 593.08L371.876 608.32V623.684L412.861 607.752V593.08H411.083Z" fill="#FBFFFE"/>
</g>
<g opacity="0.4">
<path d="M1.93457 566.764V581.436L42.9193 597.368V582.005L3.7125 566.764H1.93457Z" fill="#EFEEF1"/>
<path d="M82.1258 566.764L42.9189 582.005V597.368L83.9037 581.436V566.764H82.1258Z" fill="#FBFFFE"/>
</g>
<g opacity="0.4">
<path d="M83.8672 566.764V581.436L124.852 597.368V582.005L85.6451 566.764H83.8672Z" fill="#EFEEF1"/>
<path d="M164.058 566.764L124.852 582.005V597.368L165.836 581.436V566.764H164.058Z" fill="#FBFFFE"/>
</g>
<g opacity="0.4">
<path d="M167.027 566.764V581.436L208.012 597.368V582.005L168.805 566.764H167.027Z" fill="#EFEEF1"/>
<path d="M247.219 566.764L208.012 582.005V597.368L248.996 581.436V566.764H247.219Z" fill="#FBFFFE"/>
</g>
<g opacity="0.4">
<path d="M248.96 566.764V581.436L289.945 597.368V582.005L250.738 566.764H248.96Z" fill="#EFEEF1"/>
<path d="M329.151 566.764L289.944 582.005V597.368L330.929 581.436V566.764H329.151Z" fill="#FBFFFE"/>
</g>
<g opacity="0.4">
<path d="M330.892 566.764V581.436L371.876 597.368V582.005L332.67 566.764H330.892Z" fill="#EFEEF1"/>
<path d="M411.083 566.764L371.876 582.005V597.368L412.861 581.436V566.764H411.083Z" fill="#FBFFFE"/>
</g>
<g opacity="0.4">
<path d="M1.93457 555.202V569.874L42.9193 585.806V570.443L3.7125 555.202H1.93457Z" fill="#EFEEF1"/>
<path d="M82.1258 555.202L42.9189 570.443V585.806L83.9037 569.874V555.202H82.1258Z" fill="#FBFFFE"/>
</g>
<g opacity="0.4">
<path d="M83.8379 555.203V569.875L124.823 585.807V570.444L85.6158 555.203H83.8379Z" fill="#EFEEF1"/>
<path d="M164.029 555.201L124.822 570.442V585.805L165.807 569.873V555.201H164.029Z" fill="#FBFFFE"/>
</g>
<g opacity="0.4">
<path d="M167.027 555.203V569.875L208.012 585.807V570.444L168.805 555.203H167.027Z" fill="#EFEEF1"/>
<path d="M247.219 555.201L208.012 570.442V585.805L248.996 569.873V555.201H247.219Z" fill="#FBFFFE"/>
</g>
<g opacity="0.4">
<path d="M248.961 555.203V569.875L289.946 585.807V570.444L250.739 555.203H248.961Z" fill="#EFEEF1"/>
<path d="M329.152 555.201L289.945 570.442V585.805L330.93 569.873V555.201H329.152Z" fill="#FBFFFE"/>
</g>
<g opacity="0.4">
<path d="M330.892 555.202V569.874L371.876 585.806V570.443L332.67 555.202H330.892Z" fill="#EFEEF1"/>
<path d="M411.083 555.202L371.876 570.443V585.806L412.861 569.874V555.202H411.083Z" fill="#FBFFFE"/>
</g>
</g>
<g opacity="0.2">
<g opacity="0.1">
<path d="M0 600.633V615.305L40.6088 631.237V615.874L1.76162 600.633H0Z" fill="#D9C368"/>
<path d="M79.4565 600.633L40.6094 615.874V631.237L81.2181 615.305V600.633H79.4565Z" fill="#D9C368"/>
</g>
<g opacity="0.1">
<path d="M81.1816 600.632V615.304L121.79 631.236V615.873L82.9433 600.632H81.1816Z" fill="#D9C368"/>
<path d="M160.638 600.633L121.791 615.874V631.237L162.4 615.305V600.633H160.638Z" fill="#D9C368"/>
</g>
<g opacity="0.1">
<path d="M163.58 600.632V615.304L204.189 631.236V615.873L165.342 600.632H163.58Z" fill="#D9C368"/>
<path d="M243.036 600.633L204.188 615.874V631.237L244.797 615.305V600.633H243.036Z" fill="#D9C368"/>
</g>
<g opacity="0.1">
<path d="M244.761 600.632V615.304L285.37 631.236V615.873L246.522 600.632H244.761Z" fill="#D9C368"/>
<path d="M324.216 600.633L285.369 615.874V631.237L325.978 615.305V600.633H324.216Z" fill="#D9C368"/>
</g>
<g opacity="0.1">
<path d="M325.941 600.633V615.305L366.55 631.237V615.874L327.703 600.633H325.941Z" fill="#D9C368"/>
<path d="M405.397 600.633L366.55 615.874V631.237L407.159 615.305V600.633H405.397Z" fill="#D9C368"/>
</g>
<g opacity="0.1">
<path d="M0 589.071V603.743L40.6088 619.675V604.312L1.76162 589.071H0Z" fill="#D9C368"/>
<path d="M79.4565 589.07L40.6094 604.311V619.674L81.2181 603.742V589.07H79.4565Z" fill="#D9C368"/>
</g>
<g opacity="0.1">
<path d="M81.1514 589.071V603.743L121.76 619.675V604.312L82.913 589.071H81.1514Z" fill="#D9C368"/>
<path d="M160.607 589.069L121.76 604.31V619.673L162.369 603.741V589.069H160.607Z" fill="#D9C368"/>
</g>
<g opacity="0.1">
<path d="M163.58 589.071V603.743L204.189 619.675V604.312L165.342 589.071H163.58Z" fill="#D9C368"/>
<path d="M243.036 589.069L204.188 604.31V619.673L244.797 603.741V589.069H243.036Z" fill="#D9C368"/>
</g>
<g opacity="0.1">
<path d="M244.761 589.071V603.743L285.37 619.675V604.312L246.522 589.071H244.761Z" fill="#D9C368"/>
<path d="M324.216 589.069L285.369 604.31V619.673L325.978 603.741V589.069H324.216Z" fill="#D9C368"/>
</g>
<g opacity="0.1">
<path d="M325.94 589.071V603.743L366.549 619.675V604.312L327.702 589.071H325.94Z" fill="#D9C368"/>
<path d="M405.397 589.07L366.55 604.311V619.674L407.159 603.742V589.07H405.397Z" fill="#D9C368"/>
</g>
<g opacity="0.1">
<path d="M1.91602 566.544V581.215L42.5248 597.147V581.784L3.67764 566.544H1.91602Z" fill="#D9C368"/>
<path d="M81.3725 566.543L42.5254 581.783V597.146L83.1342 581.214V566.543H81.3725Z" fill="#D9C368"/>
</g>
<g opacity="0.1">
<path d="M83.0977 566.544V581.215L123.706 597.147V581.784L84.8593 566.544H83.0977Z" fill="#D9C368"/>
<path d="M162.553 566.543L123.706 581.783V597.146L164.315 581.214V566.543H162.553Z" fill="#D9C368"/>
</g>
<g opacity="0.1">
<path d="M165.495 566.544V581.215L206.104 597.147V581.784L167.257 566.544H165.495Z" fill="#D9C368"/>
<path d="M244.951 566.543L206.104 581.783V597.146L246.712 581.214V566.543H244.951Z" fill="#D9C368"/>
</g>
<g opacity="0.1">
<path d="M246.677 566.544V581.215L287.286 597.147V581.784L248.438 566.544H246.677Z" fill="#D9C368"/>
<path d="M326.132 566.543L287.285 581.783V597.146L327.894 581.214V566.543H326.132Z" fill="#D9C368"/>
</g>
<g opacity="0.1">
<path d="M327.857 566.544V581.215L368.466 597.147V581.784L329.619 566.544H327.857Z" fill="#D9C368"/>
<path d="M407.314 566.543L368.467 581.783V597.146L409.076 581.214V566.543H407.314Z" fill="#D9C368"/>
</g>
<g opacity="0.1">
<path d="M1.91699 554.981V569.653L42.5258 585.585V570.222L3.67861 554.981H1.91699Z" fill="#D9C368"/>
<path d="M81.3735 554.98L42.5264 570.221V585.584L83.1351 569.652V554.98H81.3735Z" fill="#D9C368"/>
</g>
<g opacity="0.1">
<path d="M83.0674 554.98V569.652L123.676 585.584V570.221L84.829 554.98H83.0674Z" fill="#D9C368"/>
<path d="M162.523 554.978L123.676 570.219V585.582L164.285 569.65V554.978H162.523Z" fill="#D9C368"/>
</g>
<g opacity="0.1">
<path d="M165.495 554.978V569.65L206.104 585.582V570.219L167.257 554.978H165.495Z" fill="#D9C368"/>
<path d="M244.951 554.978L206.104 570.219V585.582L246.712 569.65V554.978H244.951Z" fill="#D9C368"/>
</g>
<g opacity="0.1">
<path d="M246.677 554.978V569.65L287.286 585.582V570.219L248.438 554.978H246.677Z" fill="#D9C368"/>
<path d="M326.132 554.978L287.285 570.219V585.582L327.894 569.65V554.978H326.132Z" fill="#D9C368"/>
</g>
<g opacity="0.1">
<path d="M327.857 554.981V569.653L368.466 585.585V570.222L329.619 554.981H327.857Z" fill="#D9C368"/>
<path d="M407.314 554.98L368.467 570.221V585.584L409.076 569.652V554.98H407.314Z" fill="#D9C368"/>
</g>
<g opacity="0.1">
<path d="M1.91699 528.666V543.337L42.5258 559.27V543.906L3.67861 528.666H1.91699Z" fill="#D9C368"/>
<path d="M81.3735 528.667L42.5264 543.907V559.271L83.1351 543.338V528.667H81.3735Z" fill="#D9C368"/>
</g>
<g opacity="0.1">
<path d="M83.0977 528.666V543.337L123.706 559.27V543.906L84.8593 528.666H83.0977Z" fill="#D9C368"/>
<path d="M162.553 528.667L123.706 543.907V559.271L164.315 543.338V528.667H162.553Z" fill="#D9C368"/>
</g>
<g opacity="0.1">
<path d="M165.495 528.666V543.337L206.104 559.27V543.906L167.257 528.666H165.495Z" fill="#D9C368"/>
<path d="M244.951 528.667L206.104 543.907V559.271L246.712 543.338V528.667H244.951Z" fill="#D9C368"/>
</g>
<g opacity="0.1">
<path d="M246.678 528.666V543.337L287.286 559.27V543.906L248.439 528.666H246.678Z" fill="#D9C368"/>
<path d="M326.133 528.667L287.286 543.907V559.271L327.895 543.338V528.667H326.133Z" fill="#D9C368"/>
</g>
<g opacity="0.1">
<path d="M327.857 528.666V543.337L368.466 559.27V543.906L329.619 528.666H327.857Z" fill="#D9C368"/>
<path d="M407.314 528.667L368.467 543.907V559.271L409.076 543.338V528.667H407.314Z" fill="#D9C368"/>
</g>
<g opacity="0.1">
<path d="M1.91699 517.104V531.776L42.5258 547.708V532.345L3.67861 517.104H1.91699Z" fill="#D9C368"/>
<path d="M81.3735 517.103L42.5264 532.344V547.707L83.1351 531.775V517.103H81.3735Z" fill="#D9C368"/>
</g>
<g opacity="0.1">
<path d="M83.0674 517.104V531.776L123.676 547.708V532.345L84.829 517.104H83.0674Z" fill="#D9C368"/>
<path d="M162.523 517.102L123.676 532.343V547.706L164.285 531.774V517.102H162.523Z" fill="#D9C368"/>
</g>
<g opacity="0.1">
<path d="M165.495 517.104V531.776L206.104 547.708V532.345L167.257 517.104H165.495Z" fill="#D9C368"/>
<path d="M244.951 517.102L206.104 532.343V547.706L246.712 531.774V517.102H244.951Z" fill="#D9C368"/>
</g>
<g opacity="0.1">
<path d="M246.678 517.104V531.776L287.286 547.708V532.345L248.439 517.104H246.678Z" fill="#D9C368"/>
<path d="M326.133 517.102L287.286 532.343V547.706L327.895 531.774V517.102H326.133Z" fill="#D9C368"/>
</g>
<g opacity="0.1">
<path d="M327.857 517.104V531.776L368.466 547.708V532.345L329.619 517.104H327.857Z" fill="#D9C368"/>
<path d="M407.314 517.103L368.467 532.344V547.707L409.076 531.775V517.103H407.314Z" fill="#D9C368"/>
</g>
</g>
<path opacity="0.95" d="M185.834 185.035C186.502 184.682 187.081 184.084 187.859 184C188.947 184.082 189.747 184.912 190.656 185.421C202.245 192.114 213.84 198.802 225.432 205.489C225.704 205.6 225.777 205.91 225.753 206.175C225.722 213.153 225.784 220.13 225.722 227.107C232.061 230.864 238.481 234.487 244.852 238.192C250.758 241.603 256.661 245.022 262.573 248.429C262.802 248.544 263.024 248.756 262.975 249.042C262.967 256.195 262.985 263.348 262.967 270.501C263.002 270.833 262.673 271.013 262.434 271.158C243.907 281.843 225.387 292.543 206.86 303.23C206.435 303.546 206.011 303.089 205.635 302.913C187.483 292.427 169.326 281.949 151.17 271.468C150.727 271.174 149.955 270.976 150.09 270.292C150.088 256.138 150.094 241.983 150.086 227.828C150.106 227.55 150.02 227.177 150.335 227.032C156.438 223.453 162.614 219.991 168.699 216.38C168.701 209.372 168.703 202.366 168.697 195.36C168.623 194.821 169.219 194.642 169.579 194.415C175.001 191.294 180.416 188.16 185.834 185.035ZM170.512 195.283C182.505 202.186 194.496 209.094 206.464 216.043C208.63 214.908 210.71 213.61 212.843 212.412C216.475 210.307 220.125 208.233 223.744 206.108L223.789 205.967C223.254 205.53 222.601 205.269 222.021 204.897C210.63 198.349 199.278 191.727 187.865 185.221C182.1 188.607 176.27 191.886 170.512 195.283ZM169.891 196.301C169.911 202.983 169.846 209.664 169.928 216.343C170.757 216.801 171.524 217.358 172.349 217.823C177.334 220.696 182.313 223.582 187.302 226.448C187.32 219.754 187.3 213.059 187.312 206.363C181.512 202.997 175.699 199.653 169.891 196.301ZM188.502 209.454C188.496 222.5 188.529 235.546 188.525 248.593C191.534 250.432 194.606 252.167 197.66 253.935C200.422 255.497 203.126 257.16 205.923 258.653C205.88 244.786 205.968 230.915 205.88 217.048C200.077 213.753 194.308 210.393 188.531 207.049C188.478 207.849 188.508 208.651 188.502 209.454ZM213.717 213.298C211.547 214.567 209.326 215.76 207.23 217.152C207.205 217.052 207.156 216.854 207.132 216.754C207.097 230.727 207.132 244.706 207.113 258.681C210.073 257.05 212.974 255.311 215.914 253.637C218.786 251.957 221.707 250.357 224.524 248.587C224.557 245.071 224.532 241.556 224.54 238.043C224.518 227.71 224.612 217.374 224.522 207.045C220.937 209.158 217.316 211.207 213.717 213.298ZM152.333 227.238C152.186 227.334 152.045 227.438 151.911 227.55C157.722 230.849 163.491 234.228 169.287 237.555C172.459 235.724 175.629 233.893 178.802 232.064C181.414 230.517 184.097 229.079 186.667 227.469C180.863 224.143 175.088 220.771 169.283 217.45C163.638 220.722 157.986 223.98 152.333 227.238ZM151.278 228.555C151.278 242.407 151.262 256.26 151.286 270.111C153.266 271.364 155.334 272.469 157.351 273.663C161.127 275.841 164.902 278.025 168.68 280.199C168.685 266.355 168.687 252.508 168.68 238.662C167.972 238.272 167.317 237.794 166.613 237.4C161.499 234.456 156.396 231.492 151.278 228.555ZM183.576 230.696C179.049 233.33 174.486 235.904 169.983 238.576C169.842 241.317 169.903 244.063 169.891 246.807C169.897 250.771 169.879 254.737 169.901 258.704C172.639 257.152 175.354 255.558 178.085 253.99C181.133 252.202 184.236 250.506 187.243 248.65C187.23 247.493 187.339 246.339 187.316 245.184C187.294 239.652 187.351 234.12 187.287 228.589C186.022 229.243 184.817 230.002 183.576 230.696ZM225.767 228.583C225.724 235.024 225.739 241.468 225.759 247.911C227.525 247.019 229.195 245.945 230.922 244.984C234.786 242.734 238.679 240.531 242.525 238.253C236.96 234.997 231.375 231.766 225.767 228.583ZM208.265 259.432C208.089 259.532 207.934 259.659 207.799 259.812C213.617 263.115 219.37 266.536 225.204 269.803C237.174 262.848 249.173 255.94 261.158 249.007C255.377 245.631 249.569 242.303 243.776 238.947C231.944 245.786 220.104 252.608 208.265 259.432ZM170.499 259.755C175.525 262.672 180.565 265.567 185.597 268.478C192.595 272.493 199.554 276.582 206.576 280.552C212.343 277.176 218.143 273.853 223.938 270.527C211.961 263.554 199.936 256.662 187.951 249.703C182.117 253.023 176.323 256.417 170.499 259.755ZM244.427 260.102C244.282 266.804 244.388 273.51 244.36 280.211C250.139 276.868 255.939 273.557 261.697 270.18C261.718 269.062 261.793 267.945 261.783 266.826C261.779 261.233 261.789 255.642 261.779 250.048C255.994 253.398 250.172 256.687 244.427 260.102ZM169.895 260.81C169.911 267.49 169.842 274.169 169.932 280.846C175.664 284.306 181.506 287.585 187.302 290.939C187.339 284.255 187.292 277.57 187.324 270.887C181.537 267.494 175.709 264.16 169.895 260.81ZM235.347 265.314C232.173 267.173 228.948 268.945 225.812 270.868C225.818 271.901 225.739 272.934 225.757 273.969C225.777 279.617 225.724 285.268 225.784 290.918C228.533 289.367 231.254 287.762 233.994 286.193C237.021 284.398 240.132 282.743 243.102 280.854C243.223 274.179 243.139 267.5 243.158 260.823C240.536 262.29 237.952 263.821 235.347 265.314ZM188.52 271.56C188.547 278.242 188.471 284.923 188.559 291.602C191.231 293.248 193.967 294.793 196.684 296.365C199.76 298.118 202.796 299.945 205.899 301.648C205.941 294.997 205.89 288.344 205.923 281.693C203.355 280.067 200.695 278.595 198.068 277.064C194.883 275.233 191.709 273.383 188.52 271.56ZM213.737 277.784C211.557 279.093 209.279 280.244 207.174 281.675C207.056 288.346 207.15 295.024 207.113 301.699C212.9 298.369 218.696 295.048 224.459 291.678C224.497 290.739 224.536 289.802 224.557 288.865C224.557 283.092 224.551 277.321 224.559 271.548C220.945 273.616 217.347 275.708 213.737 277.784Z" fill="#FBFAF9"/>
<path d="M170.512 195.281C176.27 191.884 182.101 188.605 187.865 185.219C199.279 191.725 210.631 198.347 222.021 204.895C222.601 205.267 223.254 205.528 223.789 205.965L223.744 206.106C220.125 208.231 216.475 210.305 212.843 212.41C210.71 213.608 208.63 214.906 206.464 216.041C194.496 209.092 182.505 202.185 170.512 195.281Z" fill="#D8C05F"/>
<path d="M183.576 230.693C184.817 229.999 186.022 229.239 187.287 228.586C187.351 234.116 187.293 239.648 187.316 245.18C187.338 246.336 187.23 247.489 187.242 248.646C184.235 250.502 181.133 252.198 178.085 253.987C175.353 255.554 172.638 257.149 169.901 258.7C169.878 254.734 169.897 250.767 169.891 246.803C169.903 244.059 169.842 241.314 169.983 238.572C174.486 235.9 179.048 233.326 183.576 230.693Z" fill="#D8C05F"/>
<path d="M225.767 228.58C231.375 231.763 236.96 234.994 242.525 238.25C238.679 240.528 234.786 242.731 230.922 244.98C229.195 245.942 227.525 247.016 225.759 247.908C225.739 241.465 225.724 235.021 225.767 228.58Z" fill="#D8C05F"/>
<path d="M235.347 265.31C237.952 263.818 240.536 262.287 243.157 260.819C243.139 267.497 243.223 274.176 243.102 280.851C240.132 282.739 237.021 284.395 233.994 286.189C231.254 287.759 228.533 289.364 225.783 290.915C225.724 285.265 225.777 279.614 225.757 273.966C225.738 272.931 225.818 271.898 225.812 270.865C228.947 268.942 232.173 267.17 235.347 265.31Z" fill="#D8C05F"/>
<path d="M188.52 271.56C191.708 273.383 194.883 275.232 198.067 277.063C200.694 278.594 203.354 280.066 205.922 281.693C205.89 288.344 205.941 294.996 205.898 301.647C202.795 299.945 199.76 298.118 196.683 296.364C193.966 294.792 191.231 293.247 188.559 291.602C188.471 284.922 188.546 278.241 188.52 271.56Z" fill="#D8C05F"/>
<path d="M169.89 196.303C175.698 199.655 181.512 202.998 187.311 206.365C187.299 213.06 187.32 219.756 187.301 226.45C182.312 223.583 177.333 220.697 172.348 217.825C171.523 217.359 170.756 216.802 169.927 216.345C169.845 209.665 169.911 202.984 169.89 196.303Z" fill="#151F2D"/>
<path d="M213.718 213.299C217.317 211.208 220.938 209.159 224.523 207.046C224.613 217.375 224.519 227.711 224.541 238.044C224.533 241.557 224.558 245.072 224.525 248.588C221.708 250.357 218.787 251.958 215.915 253.638C212.975 255.312 210.074 257.051 207.114 258.682C207.133 244.707 207.098 230.728 207.133 216.755C207.157 216.855 207.206 217.053 207.231 217.153C209.327 215.76 211.548 214.568 213.718 213.299Z" fill="#151F2D"/>
<path d="M151.278 228.556C156.395 231.493 161.499 234.457 166.613 237.401C167.317 237.795 167.972 238.273 168.68 238.662C168.687 252.509 168.684 266.356 168.68 280.2C164.902 278.026 161.127 275.842 157.351 273.664C155.334 272.469 153.266 271.365 151.286 270.112C151.261 256.261 151.278 242.408 151.278 228.556Z" fill="#151F2D"/>
<path d="M170.499 259.755C176.323 256.417 182.116 253.022 187.951 249.703C199.935 256.662 211.961 263.554 223.938 270.527C218.142 273.852 212.343 277.176 206.576 280.552C199.554 276.582 192.595 272.493 185.597 268.478C180.565 265.567 175.525 262.672 170.499 259.755Z" fill="#151F2D"/>
<path d="M244.427 260.104C250.171 256.689 255.993 253.401 261.779 250.051C261.789 255.644 261.779 261.235 261.783 266.829C261.793 267.947 261.717 269.064 261.697 270.183C255.938 273.559 250.139 276.87 244.36 280.214C244.388 273.512 244.282 266.806 244.427 260.104Z" fill="#151F2D"/>
<path d="M274.929 325.399C277.07 323.221 279.218 321.047 281.369 318.877C283.482 321.055 285.611 323.219 287.718 325.407C285.609 327.594 283.488 329.77 281.359 331.936C279.22 329.751 277.05 327.6 274.929 325.399Z" fill="#151F2D"/>
<path d="M222.772 323.02C224.195 322.648 225.598 322.21 227.025 321.856C227.588 324.128 228.235 326.382 228.797 328.656C229.313 331.23 227.821 333.964 225.477 335.076C223.175 336.217 220.243 335.687 218.347 333.998C217.669 335.452 216.444 336.634 214.976 337.271C212.927 338.175 210.381 337.885 208.626 336.481C207.362 335.487 206.578 333.96 206.391 332.376C206.144 330.359 205.87 328.344 205.647 326.325C207.064 326.154 208.471 325.923 209.887 325.751C210.198 327.813 210.504 329.875 210.835 331.933C210.955 332.755 211.712 333.413 212.549 333.384C213.65 333.433 214.546 332.39 214.531 331.33C214.556 329.295 214.523 327.262 214.546 325.229C215.85 324.957 217.146 324.661 218.449 324.388C219.251 326.321 220.006 328.274 220.843 330.191C221.417 331.371 223.083 331.579 224.069 330.812C224.501 330.451 224.665 329.828 224.504 329.295C223.936 327.201 223.328 325.117 222.772 323.02Z" fill="#151F2D"/>
<path d="M185.625 324.303C190.098 324.309 194.568 324.285 199.041 324.316C199.021 333.996 199.029 343.674 199.037 353.354C202.769 349.949 207.46 347.577 212.459 346.777C215.323 346.277 218.24 346.473 221.133 346.432C224.627 346.37 228.139 347.293 231.125 349.118C236.067 352.078 239.47 357.449 239.985 363.193C240.183 365.631 239.989 368.082 240.099 370.522C240.213 372.165 241.752 373.492 243.379 373.48C245.898 373.502 248.417 373.474 250.939 373.492C251.631 373.49 252.357 373.512 253.002 373.216C254.227 372.708 255.087 371.434 255.07 370.105C255.08 364.136 255.07 358.17 255.074 352.203C258.441 352.199 261.805 352.201 265.169 352.201C265.175 358.17 265.165 364.138 265.175 370.107C265.157 371.381 265.947 372.606 267.094 373.151C267.9 373.565 268.833 373.482 269.713 373.488C271.068 373.468 272.428 373.516 273.785 373.472C275.508 373.408 276.984 371.828 276.948 370.107C276.952 364.679 276.96 359.251 276.943 353.823C280.31 353.797 283.678 353.819 287.046 353.811C287.048 358.835 287.05 363.857 287.046 368.879C287.052 369.799 286.96 370.779 287.399 371.626C287.92 372.731 289.092 373.492 290.321 373.482C292.08 373.488 293.842 373.498 295.604 373.476C297.341 373.447 298.786 371.832 298.741 370.118C298.753 365.533 298.743 360.948 298.745 356.363C297.927 356.359 297.11 356.357 296.294 356.363C296.281 352.999 296.294 349.635 296.287 346.27C300.495 346.266 304.7 346.27 308.907 346.268V370.85C308.681 372.322 308.434 373.808 307.852 375.19C306.368 378.898 303.15 381.864 299.321 383.007C297.541 383.587 295.655 383.617 293.803 383.582C291.7 383.536 289.567 383.746 287.499 383.274C285.476 382.843 283.578 381.911 281.959 380.631C280.569 381.725 278.989 382.588 277.282 383.066C274.557 383.876 271.685 383.491 268.888 383.584C265.745 383.672 262.605 382.605 260.161 380.629C258.208 382.145 255.866 383.178 253.405 383.476C251.631 383.672 249.844 383.548 248.064 383.582C246.368 383.572 244.67 383.599 242.973 383.57C239.403 383.468 235.943 381.817 233.54 379.185C231.041 381.259 228.022 382.707 224.823 383.28C222.664 383.705 220.455 383.556 218.271 383.582C203.503 383.582 188.738 383.584 173.971 383.582C170.382 383.597 166.851 382.039 164.375 379.457C162.172 381.233 159.608 382.588 156.826 383.17C154.554 383.707 152.206 383.566 149.891 383.582C142.744 383.58 135.595 383.584 128.447 383.58C124.399 383.57 120.355 382.601 116.752 380.757C111.369 378.028 107 373.363 104.63 367.815C103.366 364.91 102.697 361.773 102.525 358.617V350.759C105.881 350.747 109.239 350.782 112.597 350.741C112.663 353.182 112.591 355.628 112.63 358.07C112.724 361.493 113.975 364.867 116.125 367.531C118.317 370.273 121.441 372.255 124.86 373.055C127.573 373.725 130.386 373.414 133.148 373.486C139.748 373.486 146.345 373.488 152.945 373.486C155.348 373.516 157.726 372.337 159.143 370.395C160.161 369.036 160.665 367.327 160.614 365.635C160.586 362.536 160.655 359.437 160.578 356.34C159.745 356.365 158.91 356.361 158.077 356.367C158.057 352.999 158.069 349.633 158.071 346.264C162.282 346.27 166.494 346.268 170.703 346.266C170.715 354.219 170.697 362.175 170.713 370.13C170.66 371.963 172.32 373.612 174.163 373.488C179.111 373.488 184.061 373.484 189.01 373.488C189.026 360.46 189.006 347.434 189.02 334.406C187.889 334.39 186.756 334.404 185.625 334.394C185.625 331.03 185.627 327.668 185.625 324.303ZM212.788 356.598C210.64 356.892 208.556 357.639 206.706 358.77C201.699 361.762 198.559 367.674 199.09 373.508C205.892 373.457 212.698 373.5 219.502 373.486C220.853 373.465 222.231 373.584 223.554 373.239C226.216 372.608 228.508 370.614 229.486 368.058C230.519 365.457 230.131 362.362 228.512 360.084C227.002 357.9 224.419 356.508 221.763 356.455C220.19 356.432 218.616 356.451 217.042 356.445C215.623 356.455 214.196 356.387 212.788 356.598Z" fill="#151F2D"/>
<path d="M275.497 329.729C277.469 331.663 279.408 333.628 281.366 335.576C283.322 333.631 285.261 331.671 287.221 329.732C289.395 331.846 291.559 333.973 293.747 336.074C291.716 338.16 289.632 340.194 287.584 342.263C287.435 342.4 287.198 342.717 287.019 342.421C285.467 340.832 283.926 339.234 282.377 337.648C282.023 337.329 281.76 336.884 281.34 336.664C279.386 338.614 277.471 340.604 275.564 342.6C274.397 341.606 273.382 340.447 272.278 339.387C271.186 338.275 270.051 337.207 268.989 336.066C271.174 333.969 273.341 331.855 275.497 329.729Z" fill="#151F2D"/>
<path d="M139.326 390.954C141.478 393.128 143.627 395.306 145.775 397.486C143.98 399.285 142.184 401.081 140.386 402.876C140.037 403.231 139.632 403.549 139.398 404H139.34C137.215 401.779 134.966 399.671 132.798 397.488C134.974 395.31 137.148 393.128 139.326 390.954Z" fill="#151F2D"/>
<path d="M188.502 209.457C188.508 208.655 188.478 207.853 188.531 207.053C194.308 210.396 200.077 213.757 205.88 217.051C205.968 230.918 205.88 244.789 205.923 258.656C203.127 257.164 200.422 255.5 197.66 253.939C194.606 252.171 191.534 250.436 188.525 248.597C188.529 235.55 188.496 222.504 188.502 209.457Z" fill="#C18A33"/>
<path d="M152.336 227.24C157.988 223.982 163.641 220.724 169.285 217.452C175.091 220.773 180.866 224.146 186.669 227.471C184.099 229.082 181.417 230.519 178.804 232.066C175.632 233.895 172.461 235.726 169.289 237.558C163.494 234.23 157.725 230.852 151.913 227.553C152.048 227.441 152.189 227.336 152.336 227.24Z" fill="#C18A33"/>
<path d="M208.266 259.436C220.106 252.612 231.946 245.79 243.778 238.951C249.571 242.307 255.379 245.635 261.16 249.011C249.175 255.943 237.176 262.851 225.205 269.806C219.371 266.54 213.619 263.119 207.801 259.816C207.936 259.663 208.091 259.536 208.266 259.436Z" fill="#C18A33"/>
<path d="M169.898 260.816C175.712 264.166 181.54 267.5 187.327 270.893C187.295 277.576 187.341 284.261 187.305 290.945C181.509 287.591 175.667 284.312 169.935 280.852C169.845 274.175 169.914 267.496 169.898 260.816Z" fill="#C18A33"/>
<path d="M213.738 277.787C217.348 275.711 220.947 273.619 224.56 271.551C224.552 277.324 224.558 283.095 224.558 288.868C224.537 289.805 224.499 290.742 224.46 291.681C218.697 295.051 212.902 298.372 207.114 301.702C207.151 295.026 207.057 288.349 207.176 281.678C209.28 280.247 211.558 279.096 213.738 277.787Z" fill="#C18A33"/>
</svg>