<svg width="158" height="168" viewBox="0 0 158 168" fill="none" xmlns="http://www.w3.org/2000/svg">
<path d="M131.653 107.977C133.289 106.313 134.928 104.653 136.572 102.996C138.185 104.659 139.811 106.312 141.42 107.983C139.809 109.652 138.19 111.314 136.564 112.968C134.93 111.3 133.273 109.657 131.653 107.977Z" fill="white"/>
<path d="M91.8253 106.16C92.9118 105.876 93.9828 105.541 95.0724 105.271C95.5027 107.006 95.9968 108.727 96.4255 110.464C96.8199 112.43 95.6804 114.517 93.8908 115.367C92.1324 116.238 89.8939 115.833 88.4457 114.544C87.9282 115.653 86.9928 116.556 85.872 117.042C84.3069 117.733 82.363 117.512 81.0224 116.439C80.0575 115.68 79.4589 114.514 79.3155 113.304C79.1268 111.764 78.918 110.226 78.748 108.684C79.8299 108.553 80.9039 108.377 81.9858 108.246C82.2227 109.82 82.4566 111.395 82.7091 112.966C82.8011 113.594 83.3794 114.096 84.0185 114.074C84.8588 114.112 85.5431 113.315 85.5322 112.506C85.5509 110.952 85.526 109.399 85.5431 107.847C86.5392 107.639 87.5291 107.413 88.5236 107.204C89.1363 108.681 89.7131 110.173 90.3522 111.636C90.7902 112.537 92.0623 112.696 92.8152 112.11C93.1457 111.834 93.2704 111.359 93.1472 110.952C92.7139 109.353 92.2493 107.761 91.8253 106.16Z" fill="white"/>
<path d="M63.458 107.139C66.8735 107.144 70.2874 107.125 73.7028 107.149C73.6872 114.541 73.6935 121.931 73.6997 129.324C76.5493 126.723 80.1316 124.912 83.9492 124.301C86.1363 123.919 88.3639 124.069 90.5728 124.037C93.2416 123.991 95.9228 124.695 98.2034 126.089C101.977 128.349 104.576 132.451 104.969 136.837C105.12 138.699 104.972 140.571 105.056 142.434C105.143 143.688 106.319 144.702 107.561 144.692C109.485 144.709 111.409 144.688 113.334 144.702C113.862 144.7 114.417 144.717 114.91 144.491C115.845 144.103 116.501 143.13 116.489 142.116C116.497 137.557 116.489 133.001 116.492 128.444C119.062 128.441 121.632 128.443 124.201 128.443C124.205 133.001 124.197 137.559 124.205 142.117C124.191 143.09 124.794 144.025 125.671 144.441C126.286 144.758 126.999 144.694 127.671 144.699C128.706 144.683 129.744 144.72 130.78 144.686C132.096 144.638 133.223 143.431 133.195 142.117C133.198 137.972 133.204 133.827 133.192 129.682C135.763 129.662 138.335 129.679 140.907 129.673C140.908 133.509 140.91 137.344 140.907 141.179C140.911 141.882 140.841 142.63 141.176 143.277C141.574 144.12 142.469 144.702 143.407 144.694C144.751 144.699 146.096 144.706 147.442 144.689C148.768 144.667 149.872 143.434 149.837 142.125C149.847 138.624 149.839 135.122 149.841 131.621C149.215 131.618 148.592 131.617 147.968 131.621C147.959 129.052 147.968 126.483 147.964 123.914C151.177 123.911 154.388 123.914 157.601 123.913V142.685C157.428 143.808 157.239 144.943 156.795 145.999C155.661 148.83 153.205 151.095 150.28 151.968C148.921 152.41 147.48 152.434 146.067 152.407C144.461 152.371 142.832 152.532 141.253 152.172C139.708 151.843 138.258 151.13 137.022 150.153C135.961 150.989 134.754 151.648 133.451 152.013C131.37 152.632 129.176 152.337 127.041 152.409C124.64 152.476 122.243 151.66 120.377 150.151C118.885 151.31 117.097 152.098 115.217 152.326C113.862 152.476 112.498 152.381 111.139 152.407C109.843 152.399 108.546 152.42 107.251 152.398C104.525 152.32 101.882 151.059 100.048 149.049C98.1395 150.633 95.8339 151.738 93.3912 152.176C91.7419 152.501 90.0553 152.387 88.3873 152.407C77.1105 152.407 65.8353 152.409 54.5585 152.407C51.818 152.418 49.1212 151.229 47.2303 149.257C45.5483 150.613 43.5904 151.648 41.4656 152.092C39.7306 152.502 37.9379 152.395 36.1702 152.407C30.7126 152.406 25.2535 152.409 19.7944 152.406C16.7032 152.398 13.6151 151.657 10.8637 150.25C6.75298 148.165 3.41702 144.603 1.60718 140.366C0.64225 138.148 0.130944 135.752 0 133.342V127.342C2.56276 127.333 5.12709 127.359 7.69141 127.328C7.74129 129.193 7.68673 131.06 7.71635 132.924C7.78806 135.539 8.74364 138.115 10.3851 140.15C12.0593 142.243 14.4444 143.757 17.0555 144.368C19.1272 144.879 21.2753 144.642 23.3844 144.697C28.4242 144.697 33.4625 144.699 38.5023 144.697C40.337 144.72 42.1531 143.819 43.2349 142.337C44.0128 141.299 44.3979 139.994 44.3589 138.702C44.3371 136.335 44.3901 133.969 44.3308 131.604C43.6948 131.623 43.0572 131.62 42.4212 131.624C42.4056 129.052 42.415 126.482 42.4165 123.91C45.6325 123.914 48.8484 123.913 52.0628 123.911C52.0721 129.984 52.0581 136.059 52.0706 142.134C52.03 143.534 53.2974 144.794 54.705 144.699C58.4837 144.699 62.2639 144.695 66.0426 144.699C66.0551 134.75 66.0395 124.803 66.0504 114.854C65.1868 114.842 64.3216 114.853 63.458 114.845C63.458 112.276 63.4596 109.708 63.458 107.139ZM84.2002 131.801C82.5603 132.025 80.9687 132.596 79.5564 133.459C75.7325 135.744 73.3349 140.259 73.7402 144.714C78.9344 144.675 84.1316 144.708 89.3273 144.697C90.3592 144.681 91.4115 144.772 92.4216 144.508C94.4544 144.027 96.205 142.504 96.9517 140.552C97.7404 138.566 97.4443 136.203 96.2081 134.463C95.0545 132.795 93.0826 131.732 91.0545 131.691C89.8526 131.674 88.6507 131.688 87.4488 131.684C86.3654 131.691 85.2758 131.64 84.2002 131.801Z" fill="white"/>
<path d="M132.087 111.283C133.593 112.759 135.074 114.261 136.569 115.748C138.062 114.262 139.543 112.766 141.04 111.285C142.7 112.9 144.352 114.524 146.024 116.128C144.472 117.721 142.881 119.274 141.317 120.855C141.204 120.959 141.023 121.201 140.886 120.975C139.701 119.762 138.524 118.541 137.341 117.33C137.071 117.087 136.87 116.747 136.549 116.579C135.057 118.067 133.595 119.587 132.139 121.112C131.247 120.353 130.472 119.467 129.629 118.658C128.795 117.809 127.928 116.993 127.118 116.122C128.786 114.521 130.441 112.906 132.087 111.283Z" fill="white"/>
<path d="M28.1019 158.036C29.745 159.696 31.3864 161.36 33.0264 163.024C31.6561 164.398 30.2843 165.77 28.911 167.14C28.6444 167.411 28.3358 167.654 28.1565 167.999H28.1128C26.4901 166.303 24.7722 164.692 23.1167 163.026C24.7784 161.363 26.4386 159.696 28.1019 158.036Z" fill="white"/>
<path opacity="0.95" d="M63.6181 0.790341C64.1278 0.520659 64.5705 0.0639132 65.1644 0C65.9953 0.0623544 66.6064 0.69681 67.3001 1.08497C76.1497 6.19646 85.004 11.3033 93.8568 16.4101C94.0641 16.4943 94.1202 16.7312 94.1015 16.9339C94.0782 22.2621 94.1249 27.5902 94.0782 32.9184C98.9184 35.7867 103.821 38.5537 108.686 41.383C113.196 43.9879 117.704 46.599 122.219 49.2007C122.393 49.288 122.563 49.4501 122.526 49.6684C122.52 55.1306 122.534 60.5928 122.52 66.0551C122.546 66.3092 122.295 66.4464 122.113 66.557C107.964 74.7161 93.8225 82.8876 79.6743 91.0483C79.3501 91.2899 79.0258 90.9407 78.739 90.8066C64.8776 82.7988 51.0116 74.7972 37.1471 66.794C36.8088 66.5695 36.2196 66.4183 36.3224 65.8961C36.3209 55.087 36.3256 44.2778 36.3193 33.4687C36.3349 33.2567 36.2694 32.9714 36.5095 32.8607C41.1705 30.1281 45.886 27.4842 50.533 24.7266C50.5346 19.3751 50.5361 14.0251 50.5314 8.67505C50.4753 8.26351 50.9305 8.12633 51.2049 7.9533C55.3452 5.5698 59.4808 3.17695 63.6181 0.790341ZM51.9173 8.61581C61.0756 13.8879 70.2323 19.1631 79.3719 24.4694C81.0258 23.6027 82.6143 22.6112 84.2433 21.6962C87.0165 20.089 89.8038 18.5052 92.5676 16.8824L92.6019 16.7749C92.1935 16.4413 91.6947 16.2417 91.2519 15.958C82.5535 10.9572 73.8847 5.90028 65.1691 0.932198C60.7669 3.51834 56.3148 6.02187 51.9173 8.61581ZM51.4434 9.39368C51.459 14.4958 51.4091 19.598 51.4714 24.6986C52.1043 25.0477 52.6905 25.4733 53.3202 25.8287C57.127 28.022 60.929 30.2263 64.7389 32.4149C64.7529 27.3034 64.7373 22.1904 64.7467 17.0773C60.3179 14.5067 55.8783 11.9533 51.4434 9.39368ZM65.6555 19.4374C65.6508 29.4001 65.6757 39.3627 65.6726 49.3254C67.9704 50.7299 70.3165 52.055 72.6485 53.4049C74.7577 54.5975 76.8231 55.8679 78.9588 57.0075C78.926 46.4181 78.9931 35.8257 78.926 25.2364C74.4942 22.7204 70.0889 20.1545 65.6773 17.6011C65.6368 18.2121 65.6602 18.8248 65.6555 19.4374ZM84.9105 22.3727C83.2534 23.3424 81.5574 24.2527 79.9564 25.3159C79.9377 25.2395 79.9003 25.0883 79.8816 25.0119C79.8551 35.6823 79.8816 46.3573 79.8676 57.0293C82.1279 55.7838 84.3431 54.4556 86.5878 53.1773C88.7812 51.8944 91.0119 50.6723 93.1631 49.3207C93.188 46.6364 93.1693 43.952 93.1756 41.2692C93.1584 33.3783 93.2301 25.4858 93.1615 17.598C90.4242 19.2114 87.6588 20.7765 84.9105 22.3727ZM38.0356 33.0182C37.9234 33.0915 37.8158 33.171 37.7129 33.2567C42.151 35.7758 46.5563 38.3557 50.9819 40.8967C53.4044 39.4984 55.8253 38.1001 58.2478 36.7033C60.2431 35.5217 62.2915 34.4243 64.2541 33.1943C59.8222 30.655 55.4122 28.0797 50.9788 25.5435C46.6686 28.0423 42.3521 30.5302 38.0356 33.0182ZM37.2297 34.0237C37.2297 44.6021 37.2172 55.1805 37.2359 65.7573C38.748 66.7145 40.3271 67.5578 41.8673 68.4698C44.7512 70.1331 47.6335 71.801 50.519 73.4612C50.5221 62.889 50.5236 52.3153 50.519 41.7416C49.978 41.4438 49.4776 41.079 48.9398 40.7782C45.0349 38.5303 41.1378 36.2668 37.2297 34.0237ZM61.894 35.6589C58.4364 37.6698 54.9524 39.6355 51.5135 41.6761C51.406 43.7696 51.4527 45.8663 51.4434 47.9614C51.448 50.9887 51.434 54.0176 51.4512 57.0464C53.5416 55.8617 55.6149 54.6442 57.7006 53.447C60.028 52.0815 62.3975 50.7861 64.6937 49.3691C64.6843 48.4852 64.7669 47.6044 64.7498 46.7221C64.7326 42.4976 64.7763 38.2731 64.728 34.0502C63.7615 34.549 62.8417 35.1289 61.894 35.6589ZM94.1124 34.0455C94.0797 38.9637 94.0906 43.885 94.1062 48.8048C95.4546 48.1235 96.7298 47.3036 98.0486 46.5694C100.999 44.8515 103.972 43.1695 106.909 41.4298C102.66 38.9434 98.3946 36.4757 94.1124 34.0455ZM80.7468 57.603C80.6127 57.6793 80.4943 57.776 80.3914 57.8929C84.8341 60.4151 89.227 63.0278 93.6822 65.5219C102.823 60.2109 111.986 54.9357 121.138 49.6419C116.724 47.0635 112.289 44.5226 107.865 41.9598C98.8296 47.182 89.7882 52.3917 80.7468 57.603ZM51.9079 57.8493C55.7458 60.0769 59.5946 62.2873 63.4372 64.5103C68.781 67.5765 74.0951 70.6989 79.4576 73.7309C83.8614 71.1525 88.2901 68.6147 92.7157 66.0753C83.5699 60.7503 74.3867 55.4876 65.2346 50.1734C60.7794 52.7081 56.3553 55.3005 51.9079 57.8493ZM108.362 58.1143C108.251 63.232 108.332 68.3528 108.311 73.4706C112.724 70.9172 117.152 68.3887 121.55 65.8103C121.566 64.9561 121.623 64.1034 121.615 63.2491C121.612 58.9779 121.62 54.7081 121.612 50.4369C117.194 52.995 112.749 55.5063 108.362 58.1143ZM51.4465 58.6552C51.459 63.7558 51.406 68.8564 51.4745 73.9554C55.8518 76.5976 60.3133 79.1012 64.7389 81.6624C64.7669 76.5587 64.7311 71.4534 64.756 66.3497C60.3367 63.7589 55.8861 61.2133 51.4465 58.6552ZM101.428 62.094C99.0042 63.5141 96.5411 64.8672 94.1467 66.3357C94.1514 67.1245 94.0906 67.9132 94.1046 68.7036C94.1202 73.0169 94.0797 77.3319 94.1249 81.6468C96.2247 80.4621 98.3027 79.2368 100.395 78.038C102.706 76.6678 105.082 75.4036 107.35 73.9616C107.442 68.8642 107.378 63.7636 107.392 58.6645C105.391 59.7854 103.417 60.9545 101.428 62.094ZM65.6695 66.8641C65.6898 71.9663 65.6321 77.0684 65.6991 82.169C67.7397 83.4254 69.8285 84.6055 71.9034 85.8058C74.2526 87.1449 76.5706 88.5401 78.9401 89.8401C78.9728 84.7614 78.9338 79.6811 78.9588 74.6023C76.9977 73.3599 74.9665 72.236 72.9603 71.0668C70.5285 69.6685 68.1045 68.2562 65.6695 66.8641ZM84.9261 71.6171C83.2612 72.6163 81.5215 73.4955 79.9144 74.5883C79.824 79.6826 79.8957 84.7817 79.8676 89.8791C84.287 87.3366 88.7126 84.8004 93.1132 82.2267C93.1428 81.5096 93.1725 80.7941 93.188 80.0786C93.188 75.6701 93.1834 71.2632 93.1896 66.8548C90.4304 68.4339 87.6822 70.0317 84.9261 71.6171Z" fill="#FBFAF9"/>
<path d="M51.9175 8.61526C56.315 6.02131 60.7671 3.51779 65.1693 0.931641C73.8849 5.89972 82.5537 10.9567 91.2522 15.9575C91.6949 16.2412 92.1937 16.4407 92.6021 16.7743L92.5678 16.8819C89.804 18.5047 87.0167 20.0885 84.2435 21.6956C82.6145 22.6107 81.0261 23.6021 79.3721 24.4688C70.2325 19.1625 61.0758 13.8873 51.9175 8.61526Z" fill="#D8C05F"/>
<path d="M61.8938 35.6576C62.8416 35.1276 63.7613 34.5477 64.7278 34.0488C64.7762 38.2718 64.7325 42.4963 64.7497 46.7208C64.7668 47.6031 64.6842 48.4839 64.6935 49.3677C62.3973 50.7847 60.0279 52.0801 57.7005 53.4457C55.6148 54.6429 53.5415 55.8604 51.451 57.0451C51.4339 54.0162 51.4479 50.9874 51.4432 47.9601C51.4526 45.865 51.4058 43.7683 51.5134 41.6748C54.9522 39.6342 58.4363 37.6685 61.8938 35.6576Z" fill="#D8C05F"/>
<path d="M94.1126 34.0439C98.3948 36.4742 102.66 38.9419 106.909 41.4283C103.972 43.1679 101 44.85 98.0487 46.5678C96.7299 47.302 95.4548 48.122 94.1064 48.8032C94.0908 43.8835 94.0799 38.9621 94.1126 34.0439Z" fill="#D8C05F"/>
<path d="M101.428 62.0926C103.417 60.953 105.39 59.7839 107.392 58.6631C107.378 63.7621 107.442 68.8627 107.35 73.9602C105.082 75.4021 102.706 76.6663 100.394 78.0366C98.3022 79.2353 96.2242 80.4606 94.1244 81.6453C94.0792 77.3304 94.1197 73.0155 94.1042 68.7021C94.0901 67.9118 94.1509 67.123 94.1463 66.3342C96.5407 64.8658 99.0037 63.5127 101.428 62.0926Z" fill="#D8C05F"/>
<path d="M65.6695 66.8652C68.1044 68.2573 70.5284 69.6696 72.9602 71.0679C74.9665 72.2371 76.9977 73.361 78.9587 74.6034C78.9338 79.6822 78.9728 84.7625 78.94 89.8413C76.5706 88.5412 74.2525 87.146 71.9033 85.8069C69.8285 84.6066 67.7396 83.4265 65.6991 82.1701C65.632 77.0695 65.6897 71.9674 65.6695 66.8652Z" fill="#D8C05F"/>
<path d="M51.4428 9.39453C55.8777 11.9542 60.3173 14.5076 64.7461 17.0781C64.7367 22.1912 64.7523 27.3043 64.7383 32.4158C60.9284 30.2271 57.1264 28.0229 53.3196 25.8296C52.6898 25.4742 52.1037 25.0486 51.4708 24.6994C51.4085 19.5988 51.4583 14.4967 51.4428 9.39453Z" fill="#151F2D"/>
<path d="M84.9111 22.3734C87.6593 20.7771 90.4247 19.2121 93.1621 17.5986C93.2307 25.4865 93.159 33.379 93.1761 41.2699C93.1699 43.9527 93.1886 46.637 93.1637 49.3214C91.0124 50.6729 88.7817 51.8951 86.5884 53.178C84.3436 54.4563 82.1285 55.7844 79.8682 57.03C79.8822 46.358 79.8557 35.6829 79.8822 25.0126C79.9009 25.0889 79.9383 25.2402 79.957 25.3165C81.558 24.2534 83.254 23.343 84.9111 22.3734Z" fill="#151F2D"/>
<path d="M37.2292 34.0234C41.1372 36.2666 45.0344 38.5301 48.9393 40.778C49.4771 41.0788 49.9775 41.4436 50.5184 41.7414C50.5231 52.3151 50.5216 62.8888 50.5184 73.461C47.633 71.8008 44.7507 70.1329 41.8668 68.4695C40.3266 67.5576 38.7475 66.7143 37.2354 65.7571C37.2167 55.1803 37.2292 44.6019 37.2292 34.0234Z" fill="#151F2D"/>
<path d="M51.9082 57.8487C56.3556 55.2999 60.7797 52.7076 65.2349 50.1729C74.3869 55.487 83.5702 60.7497 92.716 66.0748C88.2904 68.6142 83.8617 71.152 79.4579 73.7303C74.0954 70.6983 68.7813 67.5759 63.4375 64.5097C59.5949 62.2867 55.7461 60.0763 51.9082 57.8487Z" fill="#151F2D"/>
<path d="M108.362 58.1159C112.748 55.5079 117.194 52.9966 121.612 50.4385C121.62 54.7097 121.612 58.9795 121.615 63.2507C121.623 64.105 121.565 64.9577 121.55 65.8119C117.152 68.3903 112.723 70.9188 108.31 73.4722C108.332 68.3544 108.251 63.2336 108.362 58.1159Z" fill="#151F2D"/>
<path d="M65.6554 19.4408C65.66 18.8282 65.6367 18.2156 65.6772 17.6045C70.0888 20.1579 74.4941 22.7238 78.9259 25.2398C78.993 35.8291 78.9259 46.4216 78.9587 57.0109C76.823 55.8714 74.7575 54.6009 72.6484 53.4084C70.3164 52.0584 67.9703 50.7334 65.6725 49.3288C65.6756 39.3662 65.6507 29.4035 65.6554 19.4408Z" fill="#C18A33"/>
<path d="M38.037 33.0206C42.3535 30.5327 46.67 28.0447 50.9802 25.5459C55.4136 28.0822 59.8237 30.6574 64.2555 33.1968C62.2929 34.4267 60.2445 35.5242 58.2492 36.7058C55.8267 38.1025 53.4058 39.5008 50.9834 40.8991C46.5578 38.3582 42.1524 35.7782 37.7144 33.2591C37.8172 33.1734 37.9248 33.0939 38.037 33.0206Z" fill="#C18A33"/>
<path d="M80.7475 57.607C89.7889 52.3957 98.8303 47.186 107.865 41.9639C112.289 44.5266 116.724 47.0676 121.139 49.6459C111.987 54.9398 102.824 60.215 93.6829 65.526C89.2277 63.0318 84.8348 60.4192 80.3921 57.897C80.495 57.78 80.6134 57.6834 80.7475 57.607Z" fill="#C18A33"/>
<path d="M51.4483 58.6602C55.8879 61.2182 60.3385 63.7639 64.7578 66.3547C64.7329 71.4584 64.7688 76.5636 64.7407 81.6673C60.3151 79.1061 55.8536 76.6026 51.4764 73.9604C51.4078 68.8613 51.4608 63.7607 51.4483 58.6602Z" fill="#C18A33"/>
<path d="M84.926 71.6197C87.682 70.0344 90.4303 68.4365 93.1895 66.8574C93.1832 71.2659 93.1879 75.6728 93.1879 80.0812C93.1723 80.7967 93.1427 81.5123 93.1131 82.2293C88.7124 84.803 84.2868 87.3393 79.8675 89.8818C79.8955 84.7843 79.8238 79.6853 79.9142 74.5909C81.5214 73.4982 83.2611 72.619 84.926 71.6197Z" fill="#C18A33"/>
</svg>