<svg width="92" height="30" viewBox="0 0 92 30" fill="none" xmlns="http://www.w3.org/2000/svg">
<path d="M72.1357 0H72.2398C72.5108 0.0617571 72.7161 0.261324 72.9546 0.3917C75.8326 2.05285 78.7088 3.718 81.5885 5.37687C81.652 5.41175 81.7212 5.45864 81.7086 5.54441C81.7098 7.31306 81.7081 9.08229 81.7092 10.8515C84.7307 12.5967 87.7511 14.3442 90.772 16.09C90.9282 16.1958 91.1855 16.2455 91.0791 16.5274L91.0797 16.2701V21.8185L91.0791 21.5315L91.0437 21.8288C90.1848 22.3618 89.2945 22.845 88.4236 23.3585C84.6118 25.5594 80.8011 27.7627 76.9894 29.9642C76.8527 30.0671 76.7166 29.9213 76.5971 29.8635C72.0082 27.2097 67.4176 24.5581 62.8275 21.9072C62.7618 21.87 62.6909 21.8185 62.7046 21.7328C62.6995 18.168 62.7063 14.6033 62.7012 11.0385C62.7063 10.9573 62.6817 10.8487 62.7772 10.8109C64.3074 9.91544 65.8536 9.04512 67.3787 8.14049C67.3787 6.37813 67.3793 4.61634 67.3787 2.85455C67.3644 2.76935 67.4284 2.70816 67.4988 2.675C69.0467 1.78752 70.5878 0.885184 72.1357 0ZM67.831 2.82767C70.8468 4.57574 73.8649 6.32152 76.887 8.0593C78.3412 7.21242 79.8016 6.37699 81.2569 5.53183C78.2405 3.78777 75.2224 2.04656 72.206 0.302495C70.7462 1.14193 69.2903 1.98766 67.831 2.82767ZM67.6766 3.09071C67.6823 4.77073 67.6635 6.45075 67.6869 8.1302C69.1256 9.00738 70.6004 9.82452 72.0551 10.6748C72.0539 8.98908 72.0557 7.30392 72.0539 5.61818C70.5941 4.77702 69.1365 3.93187 67.6766 3.09071ZM72.353 5.79258C72.3501 9.27614 72.3587 12.7591 72.3604 16.2421C73.8026 17.1096 75.2716 17.9347 76.7275 18.781C76.7223 15.2894 76.7412 11.7967 76.7177 8.30575C75.2562 7.47947 73.8094 6.62745 72.353 5.79258ZM79.7547 6.7481C78.8546 7.28333 77.9254 7.7711 77.0483 8.34292C77.0454 8.30975 77.0397 8.24342 77.0368 8.20969C77.0202 11.7344 77.034 15.2597 77.03 18.7844C78.4847 17.9341 79.96 17.1159 81.3998 16.241C81.4153 12.758 81.4084 9.27499 81.4107 5.79201C80.8583 6.11052 80.3065 6.4296 79.7547 6.7481ZM63.1603 10.9299C63.4966 11.1563 63.8608 11.3399 64.2085 11.5497C65.3133 12.1879 66.4186 12.8272 67.5239 13.4653C68.9844 12.6236 70.4437 11.7796 71.903 10.9361C70.4443 10.0927 68.9861 9.24926 67.5268 8.40811C66.0715 9.24869 64.6168 10.0916 63.1603 10.9299ZM63.0008 11.1998C63.0025 14.685 62.9968 18.1697 63.0037 21.655C64.4521 22.5133 65.9188 23.3425 67.3747 24.1893C67.3741 20.7075 67.3753 17.2256 67.3741 13.7432C65.9303 12.8723 64.4572 12.0501 63.0008 11.1998ZM67.6961 13.7272C67.6555 15.413 67.6852 17.1004 67.6778 18.7867C69.1308 17.9393 70.6015 17.1204 72.0402 16.2495C72.0717 14.5661 72.0499 12.8815 72.0545 11.1975C70.6026 12.0415 69.1382 12.8661 67.6961 13.7272ZM81.7092 11.198C81.7086 12.8266 81.7081 14.4557 81.7098 16.0849C83.1199 15.2723 84.5277 14.4546 85.9373 13.6409C84.5294 12.8243 83.1199 12.01 81.7092 11.198ZM77.1798 19.0463C78.6339 19.8921 80.0967 20.7223 81.5462 21.5749C82.7522 20.8996 83.9416 20.194 85.1413 19.5067C86.9608 18.4453 88.7924 17.4046 90.6079 16.337C89.1481 15.501 87.6962 14.6524 86.238 13.8136C83.2217 15.5633 80.1979 17.2994 77.1798 19.0463ZM68.7985 18.4882C68.4857 18.6855 68.1387 18.8353 67.8482 19.0629C70.8623 20.7961 73.8695 22.5413 76.8819 24.2785C78.34 23.4345 79.7999 22.5939 81.258 21.7499C78.2394 20.0099 75.2264 18.2589 72.2078 16.5183C71.071 17.1748 69.9348 17.8318 68.7985 18.4882ZM86.4044 19.131C86.3633 20.8173 86.3942 22.5053 86.385 24.1922C87.8369 23.3499 89.2956 22.5196 90.7412 21.6681C90.7898 19.9801 90.752 18.291 90.7635 16.6024C89.3116 17.4475 87.8494 18.2749 86.4044 19.131ZM67.6772 19.3088C67.6823 20.9888 67.664 22.6688 67.6869 24.3477C69.1256 25.2255 70.5998 26.0432 72.0551 26.8929C72.0568 25.2083 72.0557 23.5237 72.0557 21.8391C70.5969 20.9945 69.1371 20.1517 67.6772 19.3088ZM81.7275 21.834C81.6938 23.5186 81.7195 25.2049 81.7126 26.8901C83.1633 26.0466 84.6266 25.2238 86.0665 24.362C86.1071 22.6791 86.0768 20.9945 86.0854 19.3111C84.6318 20.1505 83.1748 20.9831 81.7275 21.834ZM77.0483 24.5444C77.0082 26.2273 77.0397 27.9119 77.0294 29.5954C78.4835 28.7519 79.9468 27.9245 81.3924 27.0667C81.4324 25.3816 81.401 23.6958 81.4113 22.0107C79.9583 22.8575 78.4898 23.6781 77.0483 24.5444ZM72.3576 22.0147C72.3616 23.693 72.3507 25.3713 72.3633 27.0496C73.7997 27.9268 75.2733 28.7433 76.7269 29.5925C76.7275 27.9113 76.7303 26.2307 76.7257 24.5501C75.2802 23.6884 73.8146 22.8581 72.3576 22.0147Z" fill="white"/>
<path d="M67.8311 2.82791C69.2904 1.9879 70.7462 1.14217 72.2061 0.302734C75.2225 2.0468 78.2405 3.788 81.2569 5.53207C79.8016 6.37723 78.3412 7.21266 76.887 8.05953C73.8649 6.32176 70.8469 4.57598 67.8311 2.82791Z" fill="#D8C05F"/>
<path d="M67.6962 13.727C69.1384 12.8658 70.6028 12.0413 72.0547 11.1973C72.0501 12.8813 72.0718 14.5659 72.0404 16.2493C70.6017 17.1202 69.1309 17.9391 67.6779 18.7865C67.6854 17.1002 67.6556 15.4128 67.6962 13.727Z" fill="#D8C05F"/>
<path d="M81.7096 11.1982C83.1202 12.0102 84.5298 12.8245 85.9376 13.6411C84.5281 14.4548 83.1202 15.2725 81.7101 16.0851C81.7084 14.4559 81.709 12.8268 81.7096 11.1982Z" fill="#D8C05F"/>
<path d="M81.7278 21.8344C83.1751 20.9835 84.6321 20.151 86.0857 19.3115C86.0771 20.995 86.1074 22.6796 86.0668 24.3625C84.627 25.2242 83.1637 26.047 81.713 26.8905C81.7198 25.2053 81.6941 23.519 81.7278 21.8344Z" fill="#D8C05F"/>
<path d="M72.358 22.0146C73.815 22.8581 75.2806 23.6884 76.7262 24.5501C76.7307 26.2307 76.7279 27.9113 76.7273 29.5925C75.2737 28.7433 73.8001 27.9267 72.3637 27.0496C72.3511 25.3713 72.362 23.693 72.358 22.0146Z" fill="#D8C05F"/>
<path d="M67.6766 3.09082C69.1365 3.93197 70.5941 4.77713 72.0539 5.61828C72.0557 7.30402 72.0539 8.98919 72.0551 10.6749C70.6004 9.82463 69.1256 9.00749 67.6869 8.13031C67.6635 6.45086 67.6823 4.77084 67.6766 3.09082Z" fill="#151F2D"/>
<path d="M46.7598 6.36137C47.3373 5.77697 47.9143 5.19085 48.4918 4.60645C49.0625 5.18913 49.6286 5.77697 50.2004 6.35909C49.636 6.95035 49.0614 7.5319 48.4924 8.11916C47.9143 7.53361 47.3356 6.94864 46.7598 6.36137Z" fill="#151F2D"/>
<path d="M32.7489 5.72337C33.1292 5.61587 33.5089 5.50894 33.8892 5.4043C34.0453 6.00185 34.2071 6.59884 34.3609 7.19754C34.5256 7.91346 34.103 8.68543 33.4403 8.97991C32.829 9.26011 32.061 9.12173 31.5664 8.6717C31.3817 9.04739 31.0729 9.36304 30.6904 9.5363C30.1477 9.79133 29.4667 9.72901 28.9869 9.36818C28.6267 9.10171 28.4002 8.67628 28.3493 8.23426C28.2813 7.69388 28.2138 7.15294 28.1475 6.61199C28.5254 6.55767 28.9046 6.50906 29.282 6.45074C29.3815 7.00769 29.4495 7.57037 29.5467 8.1279C29.5805 8.34633 29.7857 8.51502 30.007 8.50702C30.305 8.51903 30.5446 8.23254 30.5377 7.94491C30.5428 7.40225 30.5371 6.85845 30.54 6.31578C30.8888 6.23916 31.2376 6.16425 31.5864 6.08706C31.8014 6.59827 32.0021 7.1152 32.22 7.62526C32.3698 7.97979 32.8942 8.04041 33.1464 7.76708C33.2619 7.63556 33.239 7.44857 33.1864 7.29589C33.0383 6.7721 32.8942 6.24774 32.7489 5.72337Z" fill="#151F2D"/>
<path d="M79.7546 6.74808C80.3064 6.42958 80.8583 6.1105 81.4106 5.79199C81.4083 9.27498 81.4152 12.758 81.3998 16.2409C79.9599 17.1158 78.4846 17.9341 77.0299 18.7844C77.0339 15.2597 77.0202 11.7344 77.0367 8.20967C77.0396 8.2434 77.0453 8.30974 77.0482 8.3429C77.9254 7.77108 78.8546 7.28331 79.7546 6.74808Z" fill="#151F2D"/>
<path d="M22.7699 6.06637C23.9702 6.06466 25.171 6.0658 26.3713 6.0658C26.3724 8.67161 26.3713 11.278 26.3718 13.8838C27.6539 12.6875 29.3962 11.9968 31.1523 12.0162C31.9162 12.0322 32.6911 11.9579 33.4447 12.1243C34.3922 12.3227 35.2769 12.8082 35.9562 13.4978C36.675 14.2217 37.1633 15.1715 37.3297 16.1791C37.4332 16.7658 37.3892 17.3633 37.3983 17.9563C37.4069 18.2297 37.3583 18.5201 37.4812 18.7763C37.6248 19.088 37.9604 19.2927 38.3024 19.2892C38.988 19.2927 39.6742 19.287 40.3598 19.2915C40.5468 19.2927 40.7429 19.2887 40.9128 19.1995C41.2296 19.0502 41.4394 18.7071 41.4285 18.3566C41.4285 16.7601 41.4274 15.1635 41.4291 13.567C42.3326 13.567 43.2367 13.5664 44.1401 13.5676C44.1419 15.1658 44.1401 16.7641 44.1413 18.3629C44.1293 18.7454 44.3866 19.1131 44.748 19.2378C45.0282 19.3287 45.3284 19.2772 45.6177 19.2898C45.9591 19.2755 46.3068 19.3247 46.6436 19.2555C47.0336 19.1497 47.3212 18.7626 47.3063 18.3583C47.3069 16.9059 47.3046 15.4534 47.3075 14.0004C48.211 14.0004 49.1144 13.9999 50.0185 14.001C50.0196 15.4523 50.0179 16.9042 50.0191 18.3555C50.0082 18.6963 50.1969 19.0382 50.504 19.1932C50.7401 19.3224 51.0186 19.2858 51.2782 19.2904C51.6413 19.2841 52.0056 19.3013 52.3687 19.283C52.8027 19.2509 53.1549 18.8484 53.159 18.4184C53.1647 17.1741 53.1601 15.9298 53.1612 14.6861C52.9405 14.6861 52.7204 14.6849 52.5002 14.6855C52.5002 13.7803 52.5002 12.8757 52.5008 11.971C53.625 11.971 54.7498 11.9693 55.8745 11.9716C55.874 13.8523 55.874 15.7331 55.874 17.6132C55.87 18.1902 55.9111 18.7792 55.7459 19.3401C55.4217 20.569 54.4032 21.5834 53.1692 21.8916C52.6294 22.0432 52.0662 21.9991 51.5132 22.0048C51.1296 22.0003 50.7436 22.0249 50.3639 21.9631C49.7389 21.8705 49.1453 21.6034 48.6518 21.2111C48.2052 21.5662 47.6786 21.8236 47.1171 21.9339C46.643 22.0351 46.1558 21.998 45.6755 22.0048C45.2746 21.9997 44.8709 22.026 44.4741 21.9591C43.8605 21.8653 43.2801 21.5977 42.7969 21.2111C42.1673 21.6989 41.3862 21.9974 40.5862 22.0037C39.8034 22.006 39.0206 22.006 38.2383 22.0037C37.2577 21.9923 36.301 21.5457 35.6434 20.8223C34.8909 21.4502 33.9571 21.8613 32.9821 21.9717C32.6224 22.0168 32.2593 22.0031 31.8979 22.0048C27.7985 22.0043 23.6997 22.006 19.6003 22.0037C18.6448 22.0003 17.715 21.5743 17.0528 20.8915C16.2117 21.6137 15.1063 22.0117 13.9987 22.0048C11.768 22.0037 9.53732 22.0071 7.30663 22.0031C5.42362 21.9808 3.57319 21.1442 2.30317 19.7559C1.1904 18.5636 0.535089 16.9728 0.445312 15.3471V13.1799C1.34937 13.1804 2.25285 13.1787 3.15633 13.1804C3.1569 13.7809 3.15576 14.3807 3.1569 14.9811C3.14146 16.2534 3.73216 17.5137 4.71913 18.3166C5.47279 18.941 6.44661 19.291 7.425 19.2898C9.61566 19.2904 11.8057 19.2898 13.9964 19.2898C14.5688 19.2944 15.1378 19.0474 15.522 18.6219C15.8571 18.2582 16.0498 17.7676 16.0504 17.2724C16.0527 16.4101 16.051 15.5478 16.051 14.6861C15.8234 14.6861 15.5958 14.6849 15.3682 14.6855C15.3671 13.7803 15.3665 12.8757 15.3682 11.971C16.4976 11.967 17.6275 11.9773 18.7568 11.9653C18.7717 14.1137 18.7563 16.262 18.7649 18.4104C18.7643 18.881 19.1823 19.3081 19.6586 19.2892C20.9995 19.2904 22.3405 19.2904 23.6808 19.2892C23.682 15.7868 23.682 12.2838 23.6814 8.78083C23.3778 8.77968 23.0741 8.78083 22.7705 8.78025C22.7693 7.87563 22.7711 6.971 22.7699 6.06637ZM29.5392 14.857C28.4327 15.1538 27.464 15.9166 26.9105 16.9179C26.5034 17.635 26.3358 18.4698 26.3724 19.2898C28.3469 19.2904 30.3214 19.2892 32.2959 19.2904C33.2177 19.3413 34.1372 18.7889 34.5083 17.9409C34.8108 17.2816 34.7656 16.4799 34.3997 15.8549C34.0886 15.3111 33.5448 14.9074 32.9335 14.769C32.5372 14.674 32.1272 14.7181 31.7241 14.7084C30.995 14.7209 30.2494 14.6489 29.5392 14.857Z" fill="#151F2D"/>
<path d="M45.166 9.23646C45.7493 8.66349 46.3348 8.09338 46.9221 7.52499C47.4447 8.04878 47.9685 8.572 48.4917 9.09579C49.0184 8.57428 49.5382 8.04592 50.0654 7.52441C50.6498 8.09567 51.2365 8.66406 51.8198 9.23589C51.2342 9.81972 50.6498 10.4053 50.066 10.9902C49.5382 10.4544 49.0184 9.91064 48.4923 9.37312C47.9617 9.90835 47.4522 10.4653 46.9095 10.9874C46.3354 10.3967 45.747 9.82029 45.166 9.23646Z" fill="#151F2D"/>
<path d="M63.0006 11.2002C64.4571 12.0505 65.9301 12.8728 67.3739 13.7437C67.3751 17.2261 67.3739 20.7079 67.3745 24.1898C65.9186 23.3429 64.4519 22.5137 63.0035 21.6554C62.9966 18.1702 63.0023 14.6855 63.0006 11.2002Z" fill="#151F2D"/>
<path d="M68.798 18.4885C69.9342 17.832 71.0705 17.175 72.2072 16.5186C75.2259 18.2592 78.2389 20.0101 81.2575 21.7502C79.7994 22.5942 78.3395 23.4348 76.8813 24.2788C73.869 22.5416 70.8617 20.7964 67.8477 19.0632C68.1381 18.8356 68.4852 18.6858 68.798 18.4885Z" fill="#151F2D"/>
<path d="M86.4039 19.1311C87.8489 18.2751 89.311 17.4477 90.7629 16.6025C90.7515 18.2911 90.7892 19.9803 90.7406 21.6683C89.295 22.5198 87.8363 23.3501 86.3845 24.1924C86.3936 22.5055 86.3627 20.8175 86.4039 19.1311Z" fill="#151F2D"/>
<path d="M8.57812 25.7434C9.1631 25.1584 9.74751 24.5723 10.3331 23.9873C10.9043 24.5689 11.483 25.1441 12.048 25.7314L12.0457 25.7594C11.4801 26.3369 10.9037 26.9042 10.3331 27.4771C9.74751 26.8996 9.16253 26.3221 8.57812 25.7434Z" fill="#151F2D"/>
<path d="M72.3531 5.79297C73.8096 6.62783 75.2563 7.47985 76.7179 8.30614C76.7413 11.7971 76.7224 15.2898 76.7276 18.7814C75.2717 17.9351 73.8027 17.1099 72.3606 16.2425C72.3588 12.7595 72.3503 9.27652 72.3531 5.79297Z" fill="#C18A33"/>
<path d="M63.1602 10.9299C64.6166 10.0917 66.0713 9.24879 67.5266 8.4082C68.9859 9.24936 70.4441 10.0928 71.9028 10.9362C70.4435 11.7797 68.9842 12.6237 67.5238 13.4654C66.4184 12.8273 65.3131 12.188 64.2083 11.5498C63.8606 11.3399 63.4964 11.1564 63.1602 10.9299Z" fill="#C18A33"/>
<path d="M77.1802 19.0472C80.1983 17.3003 83.2221 15.5642 86.2384 13.8145C87.6966 14.6533 89.1485 15.5019 90.6083 16.3379C88.7928 17.4055 86.9612 18.4462 85.1417 19.5075C83.942 20.1949 82.7526 20.9005 81.5466 21.5758C80.0971 20.7232 78.6343 19.8929 77.1802 19.0472Z" fill="#C18A33"/>
<path d="M67.6769 19.3086C69.1368 20.1515 70.5966 20.9943 72.0554 21.8389C72.0554 23.5235 72.0565 25.2081 72.0548 26.8927C70.5995 26.043 69.1253 25.2253 67.6866 24.3475C67.6638 22.6686 67.6821 20.9886 67.6769 19.3086Z" fill="#C18A33"/>
<path d="M77.0483 24.5445C78.4899 23.6782 79.9584 22.8576 81.4114 22.0107C81.4011 23.6959 81.4325 25.3816 81.3925 27.0668C79.9469 27.9246 78.4836 28.752 77.0295 29.5954C77.0398 27.912 77.0083 26.2274 77.0483 24.5445Z" fill="#C18A33"/>
</svg>