<svg width="316" height="158" viewBox="0 0 316 158" fill="none" xmlns="http://www.w3.org/2000/svg">
<path d="M175.975 3.1874C177.872 2.42811 179.766 1.65213 181.643 0.842773C183.507 4.95352 184.494 9.6678 183.376 14.1234C182.322 18.4122 178.511 22.089 174.028 22.4423C171.375 22.8205 168.894 21.4521 166.713 20.1088C166.338 20.4703 165.965 20.8347 165.595 21.199C164.783 22.0112 163.821 22.6675 162.783 23.1515C162.263 23.3684 161.743 23.5742 161.214 23.755C160.224 23.9831 159.204 24.022 158.197 23.9414C158.022 23.9247 157.666 23.8885 157.49 23.8691C155.582 23.6021 153.788 22.4423 152.901 20.7123C151.547 17.689 151.853 14.1874 152.879 11.1113C153.374 9.53708 154.017 8.01294 154.653 6.48879C155.493 6.26907 156.339 6.05769 157.182 5.84075C157.493 5.75731 157.813 5.67387 158.13 5.59321C158.781 5.42356 159.446 5.30953 160.119 5.25668C160.108 5.75453 160.166 6.27185 159.952 6.73632C159.07 8.88348 158.467 11.2114 158.608 13.5449C158.617 14.5045 159.507 15.0385 160.299 15.3361C160.742 15.3444 161.192 15.3416 161.64 15.3083C163.776 14.3543 165 12.1265 165.659 9.98487C166.015 8.80561 166.201 7.58184 166.332 6.35807C167.759 5.84353 169.194 5.3429 170.635 4.85895C171.088 4.61976 171.452 5.11762 171.845 5.27337L171.934 5.47362C171.789 7.9295 171.605 10.3909 171.091 12.8023C172.632 13.4976 174.445 14.1985 176.089 13.4003C176.996 13.0137 177.41 11.993 177.39 11.0584C177.393 8.38285 177.143 5.62937 175.975 3.1874Z" fill="white"/>
<path d="M275.959 23.1543C279.305 27.0787 282.557 31.0865 285.866 35.0415C281.655 38.6544 277.339 42.1449 273.131 45.7606C269.721 41.8473 266.439 37.8256 263.071 33.8789C267.357 30.2939 271.715 26.7894 275.959 23.1543Z" fill="white"/>
<path d="M136.848 35.3422C140.97 35.3283 145.091 35.3422 149.213 35.3366C149.433 35.3366 149.873 35.3366 150.092 35.3366C151.013 35.3366 151.933 35.3394 152.857 35.3338C153.068 35.3338 153.491 35.3311 153.7 35.3311C153.636 45.2185 153.544 55.1088 153.455 64.9991C153.452 65.1186 153.446 65.3578 153.444 65.4774C153.449 66.2339 153.449 66.996 153.466 67.7553C153.385 68.2253 153.38 68.7065 153.421 69.1821C153.433 69.8691 153.43 70.5533 153.452 71.2403C153.366 73.6822 153.349 76.1298 153.388 78.5745C153.385 78.8193 153.382 79.0668 153.382 79.3171C153.277 81.5088 153.349 83.706 153.266 85.8977C153.377 85.7948 153.597 85.5889 153.705 85.486C154.331 84.9937 154.979 84.532 155.605 84.0425C155.861 83.8367 156.125 83.6337 156.389 83.4334C158.244 82.0094 160.16 80.666 162.071 79.3143C162.522 79.0001 162.981 78.6913 163.434 78.3771C164.485 77.6956 165.537 77.0114 166.588 76.3272C168.093 75.3872 169.609 74.4638 171.135 73.5599C172.028 73.1009 172.907 72.617 173.789 72.1386C175.268 71.4211 176.748 70.6924 178.283 70.1055C178.931 69.8774 179.579 69.6577 180.233 69.4436C180.834 69.2516 181.446 69.0959 182.063 68.9513C182.383 68.8734 182.714 68.7983 183.045 68.7371C184.822 68.4061 186.644 68.4034 188.435 68.6203C188.669 68.6592 189.136 68.7315 189.37 68.7677C189.667 68.8289 189.965 68.8956 190.271 68.9652C190.66 69.057 191.038 69.1487 191.436 69.2572C191.898 69.4046 192.351 69.5826 192.807 69.7606C193.188 69.9136 193.575 70.0666 193.956 70.239C195.488 71.0011 196.924 71.9495 198.231 73.0564C199.338 74.0521 200.3 75.2036 201.301 76.3078C201.944 77.1867 202.603 78.0572 203.212 78.9639C203.504 79.4284 203.779 79.9068 204.063 80.3824C206.18 83.7533 207.598 87.4997 208.75 91.2934C208.769 91.4018 208.814 91.616 208.836 91.7244C208.925 92.2001 209.081 92.659 209.211 93.1262C209.281 93.3793 209.417 93.8855 209.487 94.1386C209.773 95.2706 209.957 96.4276 210.182 97.5735C210.252 97.9601 210.329 98.3495 210.404 98.7389C210.774 100.714 210.861 102.727 211.144 104.716L211.336 104.888C211.65 105.083 211.981 105.261 212.318 105.431C213.305 105.917 214.346 106.332 215.453 106.449C216.871 107.008 218.423 106.988 219.925 107.069C222.828 107.119 225.732 107.086 228.639 107.091C228.892 107.091 229.403 107.094 229.657 107.094C230.046 107.094 230.435 107.099 230.83 107.108C231.256 103.94 231.756 100.783 232.204 97.6208C232.26 97.1786 232.321 96.7391 232.388 96.3025C232.496 95.5682 232.608 94.8339 232.713 94.1024C232.808 93.4266 232.927 92.7563 233.064 92.0888L233.086 91.9442C233.169 91.3991 233.208 90.8484 233.283 90.3032C233.45 88.9849 233.664 87.6693 233.854 86.3538C233.929 85.8226 234.007 85.2941 234.087 84.7657C234.29 83.3583 234.49 81.9482 234.702 80.5409C234.796 79.8762 234.897 79.2114 234.994 78.5467C235.033 78.2324 235.075 77.9209 235.122 77.6122C236.657 77.6484 238.192 77.5955 239.728 77.6094C239.892 77.6094 240.223 77.6094 240.387 77.6094C240.648 77.6094 241.174 77.6122 241.435 77.6122C242.342 77.6094 243.252 77.6066 244.164 77.6317C246.372 77.6678 248.58 77.5983 250.792 77.6122C251.111 77.6094 251.434 77.6094 251.762 77.6094C251.726 77.8542 251.648 78.3381 251.612 78.5829C251.565 78.8526 251.529 79.1252 251.498 79.4006C251.481 79.5313 251.451 79.7927 251.434 79.9234C250.975 82.4906 250.628 85.0772 250.23 87.6554C250.13 88.3035 250.024 88.9515 249.935 89.5996C249.838 90.2281 249.737 90.8511 249.654 91.4825C249.621 91.7105 249.557 92.1695 249.523 92.3975C249.479 92.6534 249.437 92.9093 249.398 93.1707C249.276 93.9105 249.148 94.6532 249.051 95.4013C248.984 95.8547 248.909 96.3052 248.85 96.7614C248.519 98.9586 248.18 101.153 247.855 103.353C252.413 105.692 257.525 106.682 262.607 106.969C263.018 103.286 263.499 99.6094 263.925 95.927C263.964 95.5098 264.008 95.0926 264.058 94.6754C264.111 94.2248 264.178 93.7743 264.245 93.3265C264.32 92.7202 264.384 92.1166 264.439 91.5103C264.968 87.5581 265.407 83.5947 265.897 79.6398C265.93 79.2921 265.969 78.9472 266.011 78.6023C266.047 78.263 266.083 77.9265 266.13 77.5927C267.624 77.6261 269.12 77.6094 270.617 77.6122C270.975 77.6094 271.34 77.6094 271.707 77.6122C272.23 77.6122 272.755 77.6122 273.287 77.615C273.684 77.6122 274.085 77.6122 274.494 77.6122C276.88 77.6094 279.266 77.615 281.653 77.6094C281.87 77.6094 282.304 77.6094 282.521 77.6094C282.468 78.2352 282.418 78.8638 282.387 79.4924C282.384 79.5869 282.376 79.7733 282.37 79.8678C281.895 83.3667 281.414 86.8739 281.177 90.3978L281.163 90.548C281.066 91.0987 280.977 91.6494 280.927 92.2084C280.86 92.7786 280.791 93.3487 280.732 93.9217C280.685 94.2916 280.646 94.6615 280.61 95.0342C280.234 98.1576 279.937 101.287 279.533 104.404C285.644 106.145 291.982 106.921 298.324 107.08C297.731 102.154 296.919 97.2592 296.046 92.3781C295.826 91.0375 295.581 89.7025 295.317 88.373C294.73 85.4415 294.241 82.4878 293.526 79.5841C293.259 78.1045 292.898 76.6415 292.564 75.1786C292.491 74.7808 292.355 74.3692 292.516 73.9798C292.839 73.6795 293.287 73.5877 293.704 73.4681C293.952 73.4069 294.205 73.3457 294.466 73.2873C294.903 73.176 295.345 73.0592 295.793 72.9452C298.98 72.1164 302.168 71.282 305.358 70.4587C305.714 70.3614 306.072 70.2668 306.437 70.1722C306.912 70.0443 307.399 69.9192 307.886 69.7968C308.297 69.6883 308.712 69.5854 309.129 69.4825C309.393 70.8286 309.674 72.172 310.019 73.5042C310.041 73.6099 310.083 73.8269 310.105 73.9325C310.208 74.5611 310.319 75.1897 310.459 75.8099C310.52 76.1131 310.587 76.4162 310.659 76.7222C310.706 76.9419 310.798 77.3814 310.842 77.5983C311.549 81.2112 312.194 84.8352 312.853 88.4564C313.042 89.6357 313.19 90.8233 313.429 91.9942C314.288 97.2064 314.928 102.452 315.665 107.681C311.593 113.983 307.538 120.299 303.444 126.588C296.944 126.493 290.528 125.078 284.448 122.828C280.81 121.426 277.333 119.646 273.915 117.78C271.813 120.717 269.674 123.634 267.477 126.499C259.45 126.563 251.709 123.117 245.702 117.919C245.251 120.797 244.787 123.673 244.392 126.563C236.412 126.566 228.43 126.557 220.451 126.566C217.65 126.566 214.757 126.084 212.343 124.596C209.501 122.83 207.15 120.405 204.948 117.913C204.892 118.122 204.781 118.542 204.725 118.75C204.149 119.245 203.813 119.932 203.412 120.558C202.15 122.561 200.87 124.552 199.61 126.555C185.857 126.571 172.106 126.56 158.353 126.563C158.036 126.56 157.721 126.56 157.413 126.563C156.812 126.56 156.214 126.56 155.619 126.563C155.416 126.563 155.01 126.563 154.809 126.563C145.639 126.566 136.481 126.571 127.313 126.577C126.807 126.568 126.307 126.56 125.806 126.557C125.38 126.552 124.958 126.552 124.538 126.555C124.329 126.555 123.912 126.555 123.703 126.555C123.464 126.555 122.98 126.555 122.738 126.555C122.371 126.555 122.007 126.555 121.645 126.557C115.732 126.582 109.822 126.532 103.912 126.568C101.567 126.632 99.1668 126.454 96.9891 125.514C96.7304 125.409 96.4773 125.303 96.227 125.194C94.7529 124.513 93.2983 123.732 92.0968 122.627C91.6156 122.202 91.1289 121.787 90.6589 121.356C90.0748 120.814 89.5491 120.21 89.0124 119.626C88.1669 118.709 87.3158 117.799 86.5231 116.839C84.8265 119.268 83.3191 121.821 81.7421 124.324C81.2581 125.064 80.7547 125.792 80.2958 126.552C77.6619 126.602 75.028 126.541 72.3969 126.56C71.9492 126.56 71.5041 126.563 71.0647 126.566C66.6758 126.557 62.2897 126.566 57.9009 126.56C57.5866 126.557 57.2723 126.557 56.9636 126.56C56.3628 126.56 55.7676 126.56 55.1724 126.563C54.5494 126.56 53.932 126.56 53.3145 126.563C47.8409 126.563 42.3674 126.563 36.8938 126.563C36.2736 126.563 35.6533 126.563 35.0359 126.563C32.911 126.516 30.7805 126.477 28.664 126.262C28.041 126.207 27.4207 126.154 26.8005 126.087C22.6953 125.55 18.6513 124.435 14.9606 122.538C14.6936 122.408 14.4265 122.277 14.1623 122.149C13.5254 121.824 12.9302 121.426 12.3239 121.056C11.1335 120.341 10.0683 119.446 8.99469 118.572C8.27433 117.913 7.59848 117.209 6.94488 116.492C6.57775 116.066 6.23565 115.624 5.89911 115.179C4.18027 113.09 3.02326 110.618 2.03868 108.117C0.481159 103.854 0.0333755 99.2868 0 94.7755C0.0611883 91.4992 0.57016 88.2506 1.28217 85.0577C1.62427 83.3222 2.19444 81.6478 2.64222 79.9401C2.70063 79.726 2.81466 79.2949 2.87307 79.0807C5.25663 78.5495 7.65133 78.0795 10.0321 77.5232L10.2935 77.4787C11.9317 77.1867 13.5532 76.7917 15.1858 76.4719C15.3138 76.5052 15.5669 76.5776 15.6948 76.6137C16.0091 76.9336 16.3206 77.2618 16.6377 77.5872C16.596 77.818 16.5097 78.2741 16.468 78.5022C15.6892 81.9371 14.8938 85.4137 14.9911 88.9599C15.0635 91.5604 14.713 94.236 15.5613 96.753C16.3929 99.7874 18.4399 102.491 21.2101 104.004C21.5939 104.218 21.9861 104.421 22.3838 104.616C23.7355 105.305 25.204 105.712 26.6726 106.07C27.0341 106.151 27.3985 106.218 27.7684 106.293C28.2162 106.371 28.664 106.446 29.1145 106.521C29.4372 106.574 29.7626 106.627 30.0908 106.674C32.2908 106.894 34.5019 107.01 36.713 107.066C37.1385 107.074 37.5669 107.086 37.998 107.091C41.5525 107.097 45.1097 107.091 48.6642 107.094C49.0425 107.091 49.4235 107.091 49.8073 107.094C50.6194 107.094 51.4344 107.094 52.2493 107.094C53.2255 107.091 54.199 107.091 55.178 107.094C55.7676 107.091 56.36 107.094 56.9552 107.094C57.3307 107.091 57.7117 107.091 58.0928 107.094C58.6852 107.091 59.2804 107.088 59.8784 107.088C60.5014 107.086 61.1272 107.091 61.753 107.091C66.5674 107.105 71.379 107.074 76.1934 107.108C76.1628 104.983 76.1906 102.855 76.1711 100.73C76.1767 99.7735 76.1851 98.8167 76.1795 97.8628C76.1767 97.2203 76.1767 96.5806 76.1795 95.9437C76.1767 94.859 76.1795 93.7743 76.1823 92.6923C76.1795 92.1055 76.1739 91.5186 76.1739 90.9346C76.1739 90.3394 76.1739 89.7442 76.1767 89.1518C76.1823 85.9116 76.1795 82.6686 76.1795 79.4284C76.1767 78.8193 76.1767 78.2102 76.1795 77.6039C76.1767 77.2117 76.1767 76.8223 76.1767 76.4357C79.1805 76.4246 82.1815 76.4357 85.1853 76.4274C86.4786 76.4301 87.7691 76.4274 89.0624 76.4301C89.2321 76.4301 89.5742 76.4301 89.7438 76.4301C90.4058 76.4274 91.0733 76.4218 91.738 76.4274C92.2359 76.4301 92.7337 76.4413 93.2344 76.458C93.2232 76.8473 93.2177 77.2367 93.2177 77.6289C93.2093 78.2825 93.2121 78.9389 93.2149 79.5953C93.2149 84.3819 93.2149 89.1657 93.2149 93.9523C93.2121 94.3222 93.2121 94.6921 93.2149 95.0648C93.2121 95.7045 93.2121 96.3442 93.2149 96.9866C93.2149 97.148 93.2149 97.4706 93.2149 97.6319C93.2121 99.8597 93.2204 102.088 93.2093 104.315C94.8976 105.483 96.7944 106.407 98.8442 106.691C99.2419 106.757 99.6397 106.819 100.046 106.874C101.453 107.038 102.874 107.055 104.29 107.08C104.69 107.086 105.097 107.088 105.503 107.091C108.804 107.086 112.105 107.088 115.407 107.088C115.615 107.088 116.033 107.088 116.241 107.088C117.763 107.088 119.284 107.088 120.808 107.088C121.495 107.086 122.185 107.086 122.877 107.088C123.075 107.088 123.475 107.088 123.676 107.088C123.893 107.088 124.329 107.088 124.546 107.088C124.88 107.088 125.219 107.088 125.558 107.088C125.684 107.088 125.94 107.086 126.067 107.086C129.672 107.08 133.279 107.091 136.887 107.108C136.878 103.72 136.862 100.335 136.881 96.9477C136.878 96.6167 136.878 96.2885 136.881 95.9631C136.878 95.3346 136.878 94.7088 136.881 94.083C136.878 93.4516 136.878 92.8203 136.881 92.1917C136.881 87.6777 136.881 83.1636 136.881 78.6524C136.878 77.9988 136.878 77.3508 136.881 76.6999C136.881 74.8698 136.881 73.0398 136.881 71.2097C136.878 70.62 136.878 70.0332 136.881 69.4491C136.878 68.7955 136.878 68.1447 136.881 67.4939C136.881 67.2936 136.881 66.8931 136.881 66.6929C136.878 66.081 136.878 65.4719 136.881 64.8628C136.881 64.6431 136.881 64.2008 136.881 63.9783C136.878 63.1022 136.878 62.2261 136.881 61.35C136.878 60.9467 136.878 60.5462 136.881 60.1485C136.881 58.6216 136.881 57.0974 136.881 55.5705C136.881 55.4147 136.881 55.106 136.881 54.9503C136.878 54.6248 136.878 54.2967 136.881 53.974C136.881 53.0451 136.881 52.1161 136.881 51.19C136.859 45.9083 136.923 40.6238 136.848 35.3422ZM180.25 88.2173C179.596 88.2812 178.948 88.3647 178.306 88.4787C176.484 88.8152 174.693 89.3298 172.966 89.9917C172.651 90.1085 172.34 90.2253 172.031 90.3422C170.154 91.0903 168.299 91.9052 166.513 92.8537C165.915 93.1012 165.336 93.3904 164.758 93.6797V93.727C163.815 94.1664 162.906 94.6754 161.963 95.1121L161.96 95.2205C161.343 95.5265 160.742 95.8686 160.158 96.2301C159.682 96.5166 159.193 96.7781 158.759 97.1202C157.927 97.5151 157.168 98.038 156.386 98.5164C156.125 98.6721 155.863 98.8251 155.608 98.9808V99.0671C154.965 99.3897 154.353 99.7596 153.747 100.141L153.75 100.166C153.627 100.235 153.383 100.371 153.263 100.441C153.221 102.655 153.129 104.905 153.307 107.105L153.75 107.116C154.375 107.088 155.004 107.088 155.638 107.094C155.819 107.094 156.18 107.094 156.361 107.094C157.009 107.091 157.657 107.094 158.308 107.088C159.232 107.097 160.155 107.094 161.078 107.094C161.379 107.091 161.685 107.091 161.991 107.094C162.908 107.094 163.826 107.094 164.75 107.094C165.336 107.091 165.926 107.091 166.519 107.094C170.832 107.102 175.146 107.08 179.46 107.094C179.657 107.094 180.055 107.094 180.253 107.094C181.176 107.094 182.099 107.094 183.028 107.094C183.187 107.094 183.504 107.094 183.662 107.097C185.028 107.091 186.396 107.094 187.765 107.094C187.907 107.094 188.19 107.094 188.335 107.094C190.744 107.074 193.155 107.133 195.564 107.063L195.705 107.18C195.641 106.799 195.577 106.421 195.519 106.048L195.469 106.043C194.835 102.227 193.778 98.4468 191.898 95.0481C191.787 94.8757 191.567 94.528 191.458 94.3556C191.189 93.9272 190.922 93.4989 190.66 93.0762L190.602 93.0817C189.186 91.0542 187.164 89.3604 184.794 88.5955C184.636 88.5593 184.322 88.487 184.166 88.4509L184.274 88.3952C183.509 88.3035 182.745 88.22 181.988 88.1227C181.404 88.1366 180.828 88.1755 180.25 88.2173Z" fill="white"/>
<path d="M263.307 43.8746C263.972 43.3322 264.639 42.7899 265.285 42.2197C267.262 44.5421 269.19 46.9118 271.139 49.2564C271.659 49.8905 272.204 50.5052 272.719 51.1449C272.844 51.6956 273.431 51.6845 273.601 51.1644C274.404 50.5191 275.225 49.8905 276.02 49.2314C278.677 47.0174 281.405 44.8898 284.036 42.6453C285.788 44.9537 287.702 47.1426 289.56 49.3704C290.108 50.0518 290.658 50.7388 291.228 51.4091C291.387 51.601 291.551 51.7957 291.718 51.9932C292.021 52.3575 292.324 52.7302 292.63 53.1001C293.164 53.7343 293.701 54.3656 294.216 55.0164C293.448 55.6812 292.652 56.307 291.882 56.9633C291.721 57.0941 291.565 57.2248 291.415 57.3583C291.206 57.5196 291.006 57.6865 290.811 57.8533C290.311 58.2705 289.807 58.6822 289.309 59.0966C287.874 60.2953 286.434 61.4885 284.996 62.6789C284.398 63.1628 283.819 63.669 283.235 64.1669C283.04 64.3226 282.851 64.4812 282.668 64.6425C282.089 65.068 281.6 65.7383 280.843 65.8106C280.326 65.1793 279.789 64.5674 279.255 63.9555C278.893 63.5411 278.54 63.1239 278.187 62.7123C277.486 61.8973 276.799 61.0713 276.095 60.2647C275.52 59.5917 274.938 58.9241 274.354 58.265C274.029 57.8867 273.72 57.5001 273.414 57.1107C273.303 56.9717 273.081 56.6908 272.969 56.5517C271.899 57.4222 270.881 58.3512 269.851 59.269C268.586 60.3231 267.326 61.3828 266.091 62.4675C265.109 63.2824 264.141 64.114 263.171 64.9429C262.859 65.2015 262.556 65.4685 262.256 65.7355C262.064 65.5075 261.875 65.2822 261.688 65.0597C260.434 63.5939 259.263 62.0614 257.934 60.6652C257.263 59.7947 256.551 58.9631 255.845 58.1259C255.389 57.5669 254.91 57.0273 254.446 56.4794C253.625 55.467 252.777 54.4852 251.932 53.4978C252.007 53.4033 252.16 53.2169 252.235 53.1224C252.677 52.7191 253.147 52.3381 253.614 51.957C253.717 51.8736 253.923 51.7067 254.026 51.626C254.599 51.1532 255.163 50.6693 255.739 50.1965C256.401 49.643 257.055 49.0812 257.717 48.5277C258.404 47.9547 259.105 47.3929 259.792 46.8144C260.67 46.0802 261.555 45.3459 262.423 44.5922C262.712 44.3502 263.012 44.1138 263.307 43.8746Z" fill="white"/>
<path d="M50.3857 132.7C51.2729 133.893 52.2519 135.011 53.1781 136.174C53.8261 136.972 54.4909 137.759 55.1417 138.558C55.7397 139.289 56.3321 140.026 56.9356 140.752C57.5419 141.495 58.1566 142.234 58.7685 142.977C59.5055 143.973 60.4567 144.852 61.0742 145.911C58.457 148.356 55.5839 150.512 52.8722 152.859C52.5273 153.145 52.1908 153.437 51.8487 153.73C50.4497 154.895 49.0534 156.063 47.6628 157.242C46.0691 155.29 44.417 153.385 42.8011 151.449C42.5564 151.154 42.3144 150.865 42.0724 150.578C40.2535 148.414 38.4261 146.256 36.6211 144.084C38.8795 142.182 41.2269 140.379 43.4353 138.421C43.438 138.332 43.4464 138.149 43.4519 138.057C44.1111 138.057 44.5645 137.523 45.054 137.159C46.8145 135.654 48.6557 134.241 50.3857 132.7Z" fill="white"/>
</svg>