
<svg width="85" height="86" viewBox="0 0 85 86" fill="none" xmlns="http://www.w3.org/2000/svg">
<path d="M24.9297 0H42.8385C42.8335 3.33922 42.8469 6.67843 42.8318 10.0177C42.1179 10.1655 41.3638 10.3872 40.9035 10.9935C40.0721 11.9459 40.151 13.5064 41.0631 14.3764C41.5216 14.8736 42.1986 15.0315 42.8318 15.1793C42.8436 16.817 42.8436 18.4564 42.8318 20.0958C42.1213 20.2402 41.3688 20.4636 40.9086 21.0666C40.0704 22.019 40.1493 23.5878 41.0681 24.4596C41.5284 24.9534 42.2019 25.1096 42.8318 25.2574C42.8419 26.8951 42.8419 28.5345 42.8318 30.1739C42.1582 30.32 41.4427 30.5081 40.9808 31.0608C40.1073 31.9712 40.109 33.5349 40.9825 34.447C41.4427 34.9996 42.1599 35.1844 42.8318 35.3356C42.8436 36.9733 42.8419 38.6126 42.8318 40.252C42.1213 40.3998 41.3671 40.6182 40.9069 41.2245C40.0738 42.1736 40.1493 43.7323 41.0564 44.6041C41.5166 45.1046 42.1952 45.2642 42.8301 45.412C42.8436 47.0514 42.8436 48.6908 42.8318 50.3301C42.1599 50.4763 41.4444 50.6627 40.9825 51.2136C40.1057 52.1274 40.109 53.6962 40.9858 54.6083C41.4477 55.1559 42.1616 55.3406 42.8318 55.4901C42.8436 57.1295 42.8436 58.7689 42.8301 60.4083C42.1196 60.5544 41.3671 60.7761 40.9069 61.3808C40.0721 62.3315 40.151 63.8953 41.0631 64.767C41.5216 65.2642 42.1986 65.4204 42.8318 65.5699C42.8452 67.2278 42.8352 68.8873 42.8385 70.5468C39.8168 70.5435 36.795 70.5519 33.7749 70.5435C32.9905 70.5468 32.1339 70.4696 31.4469 70.9248C30.6524 71.3934 30.2006 72.3189 30.2392 73.231C30.2409 77.4873 30.2409 81.7436 30.2409 86H22.6823C22.6823 64.0515 22.6823 42.1047 22.6823 20.1562C22.6789 14.6116 22.6873 9.06863 22.6789 3.52398C22.6823 2.74797 22.605 1.89973 23.0535 1.21777C23.4449 0.540859 24.1705 0.127656 24.9297 0ZM32.3002 10.1218C30.9262 10.3502 29.9368 11.8519 30.3181 13.2023C30.6222 14.5478 32.1574 15.4481 33.4776 15.008C34.7727 14.6519 35.5974 13.1486 35.1657 11.867C34.8281 10.6744 33.5179 9.86984 32.3002 10.1218ZM32.1507 20.2335C30.8019 20.5426 29.9032 22.0828 30.3534 23.4048C30.7246 24.7351 32.3086 25.5564 33.6036 25.0424C34.8751 24.6242 35.6209 23.0806 35.1271 21.8292C34.7273 20.6433 33.36 19.9009 32.1507 20.2335ZM32.1473 30.3133C30.8388 30.6156 29.9469 32.077 30.3232 33.3771C30.6373 34.7191 32.1742 35.606 33.4894 35.1592C34.8147 34.7914 35.631 33.2208 35.1338 31.9292C34.7458 30.7315 33.3668 29.974 32.1473 30.3133ZM32.149 40.3914C30.8019 40.6988 29.9049 42.2391 30.3517 43.5593C30.7229 44.8879 32.3052 45.711 33.6002 45.2004C34.8734 44.7821 35.6192 43.2419 35.1271 41.9888C34.7307 40.8013 33.36 40.0555 32.149 40.3914ZM32.144 50.4712C30.8002 50.782 29.9083 52.3155 30.3517 53.6324C30.7095 54.9207 32.2044 55.7454 33.4827 55.3171C34.7643 54.9644 35.5839 53.4829 35.1758 52.2114C34.8382 50.9466 33.4088 50.1135 32.144 50.4712ZM32.154 60.546C30.8052 60.8517 29.9066 62.3903 30.3517 63.7105C30.7112 65.0022 32.2128 65.8286 33.4927 65.3936C34.7777 65.0324 35.5923 63.5392 35.1691 62.266C34.8197 61.0163 33.4088 60.1983 32.154 60.546Z" fill="#CFA460"/>
<path d="M42.8385 0H60.9724C61.6795 0.203242 62.3615 0.618125 62.7008 1.29336C63.0837 1.91484 62.9897 2.66902 62.9981 3.36273C62.9914 8.96113 62.9964 14.5578 62.9947 20.1562C62.9947 42.1047 62.9947 64.0515 62.9947 86H55.4361C55.4378 81.6882 55.4328 77.3748 55.4395 73.063C55.5084 71.7092 54.2738 70.4729 52.92 70.5435C49.5606 70.5502 46.1995 70.5452 42.8385 70.5468C42.8351 68.8873 42.8452 67.2278 42.8318 65.5699C43.6078 65.4826 44.4107 65.192 44.8743 64.5268C45.6839 63.4854 45.5008 61.8276 44.456 61.0129C44.0059 60.6148 43.4045 60.4956 42.8301 60.4083C42.8435 58.7689 42.8435 57.1295 42.8318 55.4901C43.6095 55.4045 44.4123 55.1122 44.8776 54.4454C45.6822 53.4056 45.4991 51.7545 44.4611 50.9382C44.0109 50.5401 43.4079 50.4175 42.8318 50.3301C42.8435 48.6908 42.8435 47.0514 42.8301 45.412C43.5339 45.3263 44.2578 45.1013 44.7332 44.5453C45.6251 43.5845 45.5881 41.9384 44.6441 41.0247C44.1738 40.5241 43.4919 40.336 42.8318 40.252C42.8418 38.6126 42.8435 36.9733 42.8318 35.3356C43.5742 35.2482 44.3401 34.9896 44.8121 34.3731C45.6839 33.3418 45.5327 31.6268 44.4661 30.7853C44.0143 30.3839 43.4096 30.2612 42.8318 30.1739C42.8418 28.5345 42.8418 26.8951 42.8318 25.2574C43.5725 25.1718 44.3401 24.9114 44.8104 24.2967C45.657 23.2956 45.5445 21.6461 44.5518 20.7811C44.0882 20.3343 43.4482 20.1814 42.8318 20.0958C42.8435 18.4564 42.8435 16.817 42.8318 15.1793C43.6111 15.092 44.4174 14.798 44.881 14.1278C45.6822 13.0881 45.4974 11.442 44.4627 10.6257C44.0092 10.2276 43.4079 10.105 42.8318 10.0177C42.8469 6.67843 42.8334 3.33922 42.8385 0ZM52.4614 10.1218C51.0824 10.3469 50.0897 11.8552 50.476 13.2074C50.7834 14.5545 52.3203 15.4481 53.6372 15.0046C54.9205 14.6519 55.7401 13.1704 55.3303 11.8989C55.0061 10.6895 53.6876 9.86984 52.4614 10.1218ZM52.448 20.2016C51.1193 20.43 50.1434 21.8477 50.4491 23.1696C50.6927 24.5301 52.1893 25.4943 53.5263 25.1147C54.8314 24.8174 55.715 23.3661 55.3572 22.0728C55.0716 20.813 53.7144 19.9328 52.448 20.2016ZM52.458 30.278C51.1244 30.4997 50.1434 31.9191 50.4491 33.246C50.691 34.6066 52.1859 35.5707 53.523 35.1945C54.8298 34.8972 55.7183 33.4426 55.3572 32.1458C55.07 30.8928 53.7195 30.016 52.458 30.278ZM52.4547 40.3561C51.079 40.5863 50.0897 42.0896 50.476 43.4417C50.78 44.7788 52.3002 45.6724 53.6137 45.2474C54.9154 44.9031 55.7502 43.3997 55.3253 42.1165C54.9927 40.9138 53.6775 40.1025 52.4547 40.3561ZM52.4463 50.4359C51.0706 50.6711 50.0846 52.1828 50.4794 53.5333C50.7985 54.909 52.4093 55.7992 53.7363 55.2835C55.0145 54.8787 55.7721 53.3401 55.29 52.0854C54.9154 50.9348 53.6305 50.1874 52.4463 50.4359ZM52.4496 60.5141C51.079 60.7442 50.0947 62.2425 50.4743 63.5913C50.7784 64.9434 52.3237 65.842 53.6456 65.3936C54.9339 65.0341 55.7485 63.5392 55.3236 62.2643C54.9876 61.065 53.6708 60.2571 52.4496 60.5141Z" fill="#CFA460"/>
<path d="M0.313666 21.4836C0.758783 20.6304 1.71788 20.1147 2.67363 20.1567C9.34198 20.1567 16.012 20.1567 22.6821 20.1567C22.6821 42.1051 22.6821 64.0519 22.6821 86.0004H13.8671C13.862 82.08 13.8637 78.1579 13.8671 74.2375C13.862 73.3893 13.9628 72.452 13.4606 71.7113C12.8273 70.6817 11.4013 70.2449 10.3078 70.7757C9.36382 71.1872 8.77425 72.2068 8.82296 73.2281C8.82632 77.4844 8.82128 81.7424 8.82632 86.0004H2.33601C1.00234 85.8979 -0.0860992 84.6617 0.00628357 83.3213C0.00628357 63.501 0.00796326 43.6807 0.00460389 23.8604C0.0197211 23.0659 -0.097857 22.2059 0.313666 21.4836ZM10.6555 30.3356C9.36718 30.6749 8.51726 32.148 8.92374 33.4296C9.25632 34.7313 10.7479 35.5846 12.0362 35.1714C13.3212 34.8304 14.1644 33.3624 13.7663 32.0858C13.4387 30.779 11.9455 29.9241 10.6555 30.3356ZM10.6538 40.4137C9.36382 40.7547 8.5139 42.2345 8.92542 43.5161C9.26304 44.8128 10.7512 45.6627 12.0362 45.2495C13.3245 44.9085 14.1677 43.4338 13.7629 42.1539C13.432 40.8521 11.9421 40.0039 10.6538 40.4137ZM10.6589 50.4901C9.36886 50.8294 8.51726 52.3042 8.92374 53.5875C9.25632 54.8859 10.7428 55.7392 12.0295 55.3293C13.3262 54.9917 14.1728 53.5052 13.7612 52.2219C13.4253 50.9269 11.9405 50.0853 10.6589 50.4901ZM10.6605 60.5683C9.37054 60.9076 8.51726 62.379 8.92206 63.6606C9.25464 64.9657 10.7496 65.8206 12.0396 65.4041C13.3212 65.0631 14.1627 63.5984 13.768 62.3219C13.4421 61.0167 11.9505 60.1601 10.6605 60.5683Z" fill="#CFA460"/>
<path d="M32.2998 10.1224C33.5176 9.87048 34.8277 10.6751 35.1654 11.8676C35.597 13.1492 34.7723 14.6526 33.4773 15.0086C32.157 15.4487 30.6218 14.5484 30.3178 13.203C29.9365 11.8525 30.9258 10.3509 32.2998 10.1224Z" fill="#CEDCDC"/>
<path d="M40.9023 10.9935C41.3625 10.3871 42.1167 10.1654 42.8306 10.0176C42.8406 11.7376 42.8423 13.4576 42.8306 15.1793C42.1973 15.0314 41.5204 14.8736 41.0619 14.3764C40.1498 13.5063 40.0708 11.9459 40.9023 10.9935Z" fill="#CEDCDC"/>
<path d="M32.1499 20.234C33.3592 19.9014 34.7265 20.6438 35.1263 21.8297C35.6201 23.081 34.8743 24.6247 33.6028 25.0429C32.3078 25.5569 30.7238 24.7355 30.3526 23.4052C29.9024 22.0833 30.8011 20.543 32.1499 20.234Z" fill="#CEDCDC"/>
<path d="M40.9073 21.0666C41.3675 20.4636 42.12 20.2402 42.8305 20.0957C42.8406 21.8157 42.8423 23.5357 42.8305 25.2574C42.2007 25.1096 41.5271 24.9534 41.0669 24.4595C40.1481 23.5878 40.0691 22.0189 40.9073 21.0666Z" fill="#CEDCDC"/>
<path d="M10.6554 30.3355C11.9454 29.924 13.4387 30.779 13.7662 32.0858C14.1643 33.3623 13.3211 34.8304 12.0362 35.1714C10.7478 35.5846 9.25627 34.7313 8.92369 33.4295C8.51721 32.1479 9.36713 30.6748 10.6554 30.3355Z" fill="#CEDCDC"/>
<path d="M32.1462 30.3138C33.3657 29.9745 34.7447 30.732 35.1327 31.9296C35.6299 33.2213 34.8136 34.7918 33.4883 35.1597C32.1731 35.6065 30.6362 34.7196 30.3221 33.3775C29.9458 32.0774 30.8377 30.6161 32.1462 30.3138Z" fill="#CEDCDC"/>
<path d="M40.9804 31.0607C41.4423 30.5081 42.1579 30.32 42.8314 30.1738C42.8432 31.8938 42.8432 33.6138 42.8314 35.3355C42.1596 35.1843 41.4423 34.9996 40.9821 34.447C40.1087 33.5349 40.107 31.9711 40.9804 31.0607Z" fill="#CEDCDC"/>
<path d="M10.6533 40.4135C11.9416 40.0036 13.4315 40.8519 13.7624 42.1536C14.1672 43.4336 13.324 44.9083 12.0357 45.2493C10.7507 45.6625 9.2625 44.8126 8.92488 43.5159C8.51336 42.2343 9.36328 40.7545 10.6533 40.4135Z" fill="#CEDCDC"/>
<path d="M32.1485 40.3914C33.3596 40.0554 34.7302 40.8012 35.1266 41.9888C35.6188 43.2418 34.873 44.7821 33.5998 45.2003C32.3047 45.7109 30.7225 44.8879 30.3513 43.5593C29.9045 42.239 30.8014 40.6988 32.1485 40.3914Z" fill="#CEDCDC"/>
<path d="M40.9057 41.2245C41.366 40.6181 42.1201 40.3998 42.8307 40.252C42.8407 41.972 42.8424 43.6919 42.829 45.4119C42.1941 45.2641 41.5155 45.1046 41.0552 44.604C40.1482 43.7323 40.0726 42.1735 40.9057 41.2245Z" fill="#CEDCDC"/>
<path d="M10.6587 50.49C11.9403 50.0852 13.4251 50.9267 13.761 52.2218C14.1726 53.505 13.326 54.9916 12.0293 55.3292C10.7427 55.739 9.25613 54.8857 8.92355 53.5873C8.51707 52.3041 9.36867 50.8293 10.6587 50.49Z" fill="#CEDCDC"/>
<path d="M32.1424 50.4711C33.4072 50.1133 34.8367 50.9464 35.1743 52.2112C35.5824 53.4828 34.7627 54.9642 33.4811 55.317C32.2029 55.7453 30.708 54.9206 30.3502 53.6323C29.9068 52.3154 30.7987 50.7818 32.1424 50.4711Z" fill="#CEDCDC"/>
<path d="M40.9821 51.2136C41.444 50.6627 42.1596 50.4762 42.8314 50.3301C42.8432 52.0501 42.8432 53.7701 42.8314 55.4901C42.1612 55.3406 41.4474 55.1558 40.9855 54.6082C40.1087 53.6962 40.1053 52.1273 40.9821 51.2136Z" fill="#CEDCDC"/>
<path d="M10.6602 60.5674C11.9502 60.1592 13.4418 61.0158 13.7676 62.321C14.1623 63.5975 13.3208 65.0622 12.0392 65.4032C10.7492 65.8197 9.2543 64.9648 8.92172 63.6597C8.51692 62.3781 9.3702 60.9067 10.6602 60.5674Z" fill="#CEDCDC"/>
<path d="M32.1527 60.5462C33.4074 60.1985 34.8183 61.0165 35.1677 62.2662C35.591 63.5394 34.7763 65.0327 33.4914 65.3938C32.2115 65.8288 30.7098 65.0024 30.3504 63.7108C29.9053 62.3905 30.8039 60.8519 32.1527 60.5462Z" fill="#CEDCDC"/>
<path d="M40.9061 61.3807C41.3663 60.7761 42.1188 60.5543 42.8293 60.4082C42.8428 62.1282 42.8411 63.8482 42.831 65.5699C42.1978 65.4204 41.5209 65.2642 41.0623 64.767C40.1502 63.8952 40.0713 62.3314 40.9061 61.3807Z" fill="#CEDCDC"/>
<path d="M35.2793 75.5859C36.959 75.5859 38.6387 75.5859 40.3184 75.5859C40.3184 79.0579 40.3184 82.5281 40.3184 86H35.2793C35.2793 82.5281 35.2793 79.0579 35.2793 75.5859Z" fill="#CEDCDC"/>
<path d="M42.8311 10.0176C43.4072 10.1049 44.0085 10.2275 44.462 10.6256C45.4967 11.442 45.6815 13.088 44.8803 14.1278C44.4167 14.798 43.6104 15.0919 42.8311 15.1793C42.8428 13.4576 42.8411 11.7376 42.8311 10.0176Z" fill="#D5D5D5"/>
<path d="M52.4611 10.1218C53.6873 9.86982 55.0058 10.6895 55.33 11.8989C55.7399 13.1704 54.9202 14.6519 53.6369 15.0046C52.32 15.4481 50.7831 14.5545 50.4757 13.2074C50.0894 11.8552 51.0821 10.3469 52.4611 10.1218Z" fill="#D5D5D5"/>
<path d="M42.8311 20.0957C43.4475 20.1814 44.0875 20.3342 44.5511 20.781C45.5437 21.6461 45.6563 23.2955 44.8097 24.2966C44.3394 24.9114 43.5718 25.1717 42.8311 25.2574C42.8428 23.5357 42.8411 21.8157 42.8311 20.0957Z" fill="#D5D5D5"/>
<path d="M52.4468 20.2018C53.7133 19.933 55.0705 20.8132 55.356 22.073C55.7138 23.3663 54.8303 24.8176 53.5252 25.1149C52.1881 25.4945 50.6915 24.5303 50.448 23.1698C50.1423 21.8479 51.1182 20.4302 52.4468 20.2018Z" fill="#D5D5D5"/>
<path d="M42.8311 30.1738C43.4089 30.2612 44.0136 30.3838 44.4654 30.7852C45.532 31.6268 45.6832 33.3417 44.8114 34.373C44.3394 34.9895 43.5735 35.2482 42.8311 35.3355C42.8428 33.6138 42.8428 31.8938 42.8311 30.1738Z" fill="#D5D5D5"/>
<path d="M52.4567 30.2779C53.7181 30.0159 55.0686 30.8927 55.3558 32.1457C55.7169 33.4424 54.8284 34.897 53.5216 35.1943C52.1845 35.5706 50.6896 34.6064 50.4478 33.2459C50.1421 31.919 51.123 30.4996 52.4567 30.2779Z" fill="#D5D5D5"/>
<path d="M73.6488 30.3337C74.9355 29.9272 76.4237 30.7788 76.7529 32.0789C77.156 33.3605 76.3061 34.8369 75.0161 35.1728C73.7312 35.581 72.248 34.7294 71.9137 33.4344C71.5022 32.1494 72.3572 30.6713 73.6488 30.3337Z" fill="#D5D5D5"/>
<path d="M42.8318 40.252C43.4919 40.3359 44.1738 40.5241 44.6441 41.0246C45.5881 41.9384 45.6251 43.5845 44.7332 44.5452C44.2578 45.1012 43.5339 45.3263 42.8301 45.4119C42.8435 43.6919 42.8418 41.972 42.8318 40.252Z" fill="#D5D5D5"/>
<path d="M52.4536 40.3561C53.6764 40.1025 54.9916 40.9137 55.3242 42.1164C55.7492 43.3997 54.9144 44.903 53.6126 45.2473C52.2991 45.6723 50.779 44.7787 50.475 43.4417C50.0886 42.0895 51.078 40.5862 52.4536 40.3561Z" fill="#D5D5D5"/>
<path d="M73.6463 40.4111C74.9313 40.0046 76.4195 40.8528 76.7504 42.1512C77.1569 43.4328 76.3086 44.9143 75.0153 45.2503C73.732 45.6584 72.2471 44.8085 71.9129 43.5135C71.5014 42.2285 72.3547 40.7504 73.6463 40.4111Z" fill="#D5D5D5"/>
<path d="M42.8311 50.3301C43.4072 50.4174 44.0102 50.54 44.4604 50.9381C45.4984 51.7545 45.6815 53.4056 44.8769 54.4453C44.4116 55.1121 43.6087 55.4044 42.8311 55.4901C42.8428 53.7701 42.8428 52.0501 42.8311 50.3301Z" fill="#D5D5D5"/>
<path d="M52.4453 50.4354C53.6295 50.1869 54.9145 50.9343 55.289 52.0849C55.7711 53.3396 55.0136 54.8782 53.7353 55.283C52.4084 55.7987 50.7975 54.9085 50.4784 53.5328C50.0837 52.1823 51.0697 50.6706 52.4453 50.4354Z" fill="#D5D5D5"/>
<path d="M73.6378 50.4917C74.9278 50.0785 76.4228 50.9318 76.752 52.2369C77.1534 53.5185 76.3052 54.9932 75.0152 55.3292C73.7285 55.739 72.242 54.8841 71.9094 53.584C71.5046 52.3041 72.3529 50.8343 73.6378 50.4917Z" fill="#D5D5D5"/>
<path d="M42.8301 60.4082C43.4045 60.4955 44.0059 60.6148 44.456 61.0129C45.5008 61.8275 45.6839 63.4854 44.8743 64.5268C44.4107 65.1919 43.6078 65.4825 42.8318 65.5699C42.8418 63.8482 42.8435 62.1282 42.8301 60.4082Z" fill="#D5D5D5"/>
<path d="M52.449 60.5136C53.6701 60.2566 54.987 61.0645 55.323 62.2638C55.7479 63.5387 54.9333 65.0336 53.6449 65.3931C52.323 65.8416 50.7777 64.9429 50.4737 63.5908C50.0941 62.242 51.0784 60.7437 52.449 60.5136Z" fill="#D5D5D5"/>
<path d="M73.6339 60.5711C74.9189 60.1562 76.4138 61.0028 76.748 62.3045C77.1562 63.5828 76.3147 65.0609 75.028 65.4035C73.7364 65.8218 72.2398 64.9651 71.9089 63.66C71.5057 62.3818 72.3523 60.9154 73.6339 60.5711Z" fill="#D5D5D5"/>
<path d="M45.3574 75.5859C47.0371 75.5859 48.7168 75.5859 50.3965 75.5859C50.3965 79.0579 50.3965 82.5281 50.3965 86H45.3574C45.3574 82.5281 45.3574 79.0579 45.3574 75.5859Z" fill="#D5D5D5"/>
<path d="M62.4629 20.1564C69.0727 20.153 75.6824 20.1614 82.2906 20.1513C83.5527 20.0841 84.7422 21.2011 84.762 22.4878C84.7703 42.4828 84.762 62.4794 84.767 82.4744C84.7521 83.2202 84.881 84.0348 84.4779 84.7067C84.1458 85.382 83.4767 85.7935 82.7845 86.0001H76.0922C76.0872 81.69 76.1004 77.3799 76.0872 73.0715C76.1169 71.7547 74.9919 70.5705 73.7 70.5503C72.3486 70.4714 71.1063 71.6891 71.141 73.0682C71.1278 77.3782 71.141 81.69 71.1344 86.0001H62.4629C62.4629 64.0516 62.4629 42.1048 62.4629 20.1564ZM72.9417 30.3336C71.6713 30.6712 70.8304 32.1493 71.2352 33.4343C71.5639 34.7293 73.0227 35.5809 74.2865 35.1728C75.5552 34.8368 76.3912 33.3604 75.9947 32.0788C75.6709 30.7787 74.2072 29.9271 72.9417 30.3336ZM72.9401 40.4117C71.6697 40.751 70.8304 42.2291 71.2352 43.5141C71.5639 44.8091 73.0243 45.659 74.2865 45.2509C75.5585 44.9149 76.3928 43.4335 75.993 42.1519C75.6676 40.8535 74.2039 40.0052 72.9401 40.4117ZM72.9318 50.4915C71.668 50.8342 70.8337 52.3039 71.2319 53.5838C71.559 54.8839 73.021 55.7388 74.2865 55.329C75.5552 54.9931 76.3895 53.5183 75.9947 52.2367C75.6709 50.9316 74.2006 50.0783 72.9318 50.4915ZM72.9285 60.5713C71.668 60.9156 70.8354 62.382 71.2319 63.6602C71.5573 64.9654 73.0293 65.822 74.2997 65.4038C75.5652 65.0611 76.3928 63.583 75.9914 62.3047C75.6626 61.003 74.1923 60.1564 72.9285 60.5713Z" fill="#CFA460"/>
<path d="M10.308 70.7747C11.4014 70.2439 12.8275 70.6806 13.4607 71.7103C13.963 72.451 13.8622 73.3883 13.8672 74.2365C13.8639 78.1569 13.8622 82.079 13.8672 85.9993H8.82648C8.82144 81.7413 8.82648 77.4833 8.82312 73.227C8.77441 72.2058 9.36398 71.1862 10.308 70.7747Z" fill="#CFA460"/>
<path d="M31.4463 70.9244C32.1333 70.4692 32.9899 70.5464 33.7744 70.5431C36.7944 70.5515 39.8162 70.5431 42.8379 70.5464C42.8312 75.698 42.8497 80.848 42.8295 85.9996H40.3184C40.3184 82.5276 40.3184 79.0574 40.3184 75.5855C38.6387 75.5855 36.959 75.5855 35.2794 75.5855C35.2794 79.0574 35.2794 82.5276 35.2794 85.9996H30.2403C30.2403 81.7432 30.2403 77.4869 30.2386 73.2306C30.2 72.3185 30.6518 71.393 31.4463 70.9244Z" fill="#575757"/>
<path d="M42.8385 70.5463C46.1995 70.5446 49.5606 70.5496 52.92 70.5429C54.2738 70.4724 55.5084 71.7086 55.4395 73.0624C55.4328 77.3742 55.4378 81.6876 55.4361 85.9994H50.3971C50.3971 82.5275 50.3971 79.0572 50.3971 75.5853C48.7174 75.5853 47.0377 75.5853 45.358 75.5853C45.358 79.0572 45.358 82.5275 45.358 85.9994H42.8301C42.8502 80.8478 42.8318 75.6979 42.8385 70.5463Z" fill="#575757"/>
<path d="M70.6188 72.3638C70.5745 70.9097 72.162 69.6257 73.8889 69.7089C75.5398 69.7302 76.9774 70.9788 76.9394 72.3674C76.9563 76.9103 76.9394 81.4551 76.9458 85.9998H70.6104C70.6188 81.4551 70.6019 76.9086 70.6188 72.3638Z" fill="#CFA460"/>
</svg>